Playwrite-Th00ShortFast.ufo
<glyph name="parenright" format="2">
  <advance width="286"/>
  <unicode hex="0029"/>
  <outline>
    <contour>
      <point x="59" y="-54" type="curve"/>
      <point x="53" y="-66"/>
      <point x="56" y="-70"/>
      <point x="68" y="-75" type="curve"/>
      <point x="80" y="-80"/>
      <point x="84" y="-79"/>
      <point x="89" y="-69" type="curve"/>
      <point x="168" y="105"/>
      <point x="205" y="271"/>
      <point x="205" y="438" type="curve" smooth="yes"/>
      <point x="205" y="604"/>
      <point x="168" y="770"/>
      <point x="89" y="944" type="curve"/>
      <point x="84" y="954"/>
      <point x="80" y="955"/>
      <point x="68" y="950" type="curve"/>
      <point x="56" y="945"/>
      <point x="53" y="941"/>
      <point x="59" y="929" type="curve"/>
      <point x="130" y="770"/>
      <point x="168" y="604"/>
      <point x="168" y="438" type="curve" smooth="yes"/>
      <point x="168" y="271"/>
      <point x="130" y="105"/>
    </contour>
  </outline>
</glyph>
<glyph name="comma" format="2">
  <advance width="313"/>
  <unicode hex="002C"/>
  <outline>
    <contour>
      <point x="111" y="-162" type="curve" smooth="yes"/>
      <point x="119" y="-162"/>
      <point x="125" y="-156"/>
      <point x="130" y="-149" type="curve" smooth="yes"/>
      <point x="169" y="-96"/>
      <point x="185" y="-35"/>
      <point x="185" y="44" type="curve" smooth="yes"/>
      <point x="185" y="58"/>
      <point x="178" y="71"/>
      <point x="155" y="71" type="curve" smooth="yes"/>
      <point x="134" y="71"/>
      <point x="126" y="60"/>
      <point x="126" y="46" type="curve" smooth="yes"/>
      <point x="126" y="-54"/>
      <point x="121" y="-77"/>
      <point x="93" y="-129" type="curve" smooth="yes"/>
      <point x="89" y="-136"/>
      <point x="85" y="-141"/>
      <point x="85" y="-146" type="curve" smooth="yes"/>
      <point x="85" y="-155"/>
      <point x="101" y="-162"/>
    </contour>
  </outline>
</glyph>
<glyph name="slash" format="2">
  <advance width="323"/>
  <unicode hex="002F"/>
  <outline>
    <contour>
      <point x="28" y="-75" type="curve" smooth="yes"/>
      <point x="41" y="-79"/>
      <point x="48" y="-76"/>
      <point x="50" y="-65" type="curve"/>
      <point x="309" y="931" type="line" smooth="yes"/>
      <point x="311" y="941"/>
      <point x="306" y="946"/>
      <point x="295" y="950" type="curve"/>
      <point x="281" y="954"/>
      <point x="275" y="951"/>
      <point x="273" y="940" type="curve"/>
      <point x="14" y="-56" type="line" smooth="yes"/>
      <point x="11" y="-66"/>
      <point x="15" y="-71"/>
    </contour>
  </outline>
</glyph>
<glyph name="zero" format="2">
  <advance width="762"/>
  <unicode hex="0030"/>
  <outline>
    <contour>
      <point x="383" y="-19" type="curve" smooth="yes"/>
      <point x="553" y="-19"/>
      <point x="681" y="121"/>
      <point x="681" y="436" type="curve" smooth="yes"/>
      <point x="681" y="750"/>
      <point x="553" y="890"/>
      <point x="383" y="890" type="curve" smooth="yes"/>
      <point x="210" y="890"/>
      <point x="81" y="750"/>
      <point x="81" y="436" type="curve" smooth="yes"/>
      <point x="81" y="121"/>
      <point x="210" y="-19"/>
    </contour>
    <contour>
      <point x="383" y="19" type="curve" smooth="yes"/>
      <point x="229" y="19"/>
      <point x="123" y="151"/>
      <point x="123" y="436" type="curve" smooth="yes"/>
      <point x="123" y="721"/>
      <point x="229" y="853"/>
      <point x="383" y="853" type="curve" smooth="yes"/>
      <point x="534" y="853"/>
      <point x="640" y="721"/>
      <point x="640" y="436" type="curve" smooth="yes"/>
      <point x="640" y="151"/>
      <point x="534" y="19"/>
    </contour>
  </outline>
</glyph>
<glyph name="two" format="2">
  <advance width="663"/>
  <unicode hex="0032"/>
  <outline>
    <contour>
      <point x="76" y="0" type="curve" smooth="yes"/>
      <point x="568" y="0" type="line" smooth="yes"/>
      <point x="574" y="0"/>
      <point x="579" y="6"/>
      <point x="579" y="19" type="curve" smooth="yes"/>
      <point x="579" y="31"/>
      <point x="574" y="35"/>
      <point x="568" y="35" type="curve" smooth="yes"/>
      <point x="115" y="35" type="line"/>
      <point x="225" y="163" type="line" smooth="yes"/>
      <point x="501" y="484"/>
      <point x="565" y="571"/>
      <point x="565" y="675" type="curve" smooth="yes"/>
      <point x="565" y="808"/>
      <point x="469" y="890"/>
      <point x="324" y="890" type="curve" smooth="yes"/>
      <point x="218" y="890"/>
      <point x="129" y="843"/>
      <point x="81" y="783" type="curve" smooth="yes"/>
      <point x="76" y="776"/>
      <point x="69" y="766"/>
      <point x="83" y="756" type="curve" smooth="yes"/>
      <point x="94" y="748"/>
      <point x="103" y="751"/>
      <point x="110" y="759" type="curve" smooth="yes"/>
      <point x="163" y="816"/>
      <point x="228" y="853"/>
      <point x="324" y="853" type="curve" smooth="yes"/>
      <point x="455" y="853"/>
      <point x="525" y="781"/>
      <point x="525" y="675" type="curve" smooth="yes"/>
      <point x="525" y="578"/>
      <point x="469" y="498"/>
      <point x="196" y="181" type="curve" smooth="yes"/>
      <point x="64" y="28" type="line"/>
      <point x="56" y="19"/>
      <point x="59" y="0"/>
    </contour>
  </outline>
</glyph>
<glyph name="six" format="2">
  <advance width="713"/>
  <unicode hex="0036"/>
  <outline>
    <contour>
      <point x="379" y="-19" type="curve" smooth="yes"/>
      <point x="538" y="-19"/>
      <point x="638" y="100"/>
      <point x="638" y="276" type="curve" smooth="yes"/>
      <point x="638" y="434"/>
      <point x="543" y="528"/>
      <point x="399" y="528" type="curve" smooth="yes"/>
      <point x="290" y="528"/>
      <point x="166" y="456"/>
      <point x="126" y="218" type="curve"/>
      <point x="148" y="155" type="line"/>
      <point x="179" y="420"/>
      <point x="296" y="491"/>
      <point x="399" y="491" type="curve" smooth="yes"/>
      <point x="518" y="491"/>
      <point x="596" y="409"/>
      <point x="596" y="274" type="curve" smooth="yes"/>
      <point x="596" y="123"/>
      <point x="519" y="19"/>
      <point x="380" y="19" type="curve" smooth="yes"/>
      <point x="249" y="19"/>
      <point x="141" y="130"/>
      <point x="141" y="343" type="curve" smooth="yes"/>
      <point x="141" y="614"/>
      <point x="255" y="793"/>
      <point x="530" y="855" type="curve" smooth="yes"/>
      <point x="544" y="858"/>
      <point x="544" y="866"/>
      <point x="543" y="874" type="curve" smooth="yes"/>
      <point x="541" y="889"/>
      <point x="538" y="893"/>
      <point x="515" y="888" type="curve" smooth="yes"/>
      <point x="233" y="826"/>
      <point x="100" y="630"/>
      <point x="100" y="350" type="curve" smooth="yes"/>
      <point x="100" y="130"/>
      <point x="200" y="-19"/>
    </contour>
  </outline>
</glyph>
<glyph name="eight" format="2">
  <advance width="663"/>
  <unicode hex="0038"/>
  <outline>
    <contour>
      <point x="330" y="-19" type="curve" smooth="yes"/>
      <point x="501" y="-19"/>
      <point x="598" y="96"/>
      <point x="598" y="221" type="curve" smooth="yes"/>
      <point x="598" y="320"/>
      <point x="529" y="406"/>
      <point x="378" y="474" type="curve"/>
      <point x="499" y="533"/>
      <point x="560" y="625"/>
      <point x="560" y="708" type="curve" smooth="yes"/>
      <point x="560" y="836"/>
      <point x="455" y="893"/>
      <point x="335" y="893" type="curve" smooth="yes"/>
      <point x="215" y="893"/>
      <point x="104" y="828"/>
      <point x="104" y="698" type="curve" smooth="yes"/>
      <point x="104" y="614"/>
      <point x="165" y="528"/>
      <point x="288" y="471" type="curve"/>
      <point x="144" y="405"/>
      <point x="66" y="306"/>
      <point x="66" y="206" type="curve" smooth="yes"/>
      <point x="66" y="81"/>
      <point x="159" y="-19"/>
    </contour>
    <contour>
      <point x="333" y="18" type="curve" smooth="yes"/>
      <point x="188" y="18"/>
      <point x="108" y="100"/>
      <point x="108" y="206" type="curve" smooth="yes"/>
      <point x="108" y="311"/>
      <point x="196" y="395"/>
      <point x="330" y="454" type="curve"/>
      <point x="471" y="398"/>
      <point x="556" y="328"/>
      <point x="556" y="221" type="curve" smooth="yes"/>
      <point x="556" y="115"/>
      <point x="478" y="18"/>
    </contour>
    <contour>
      <point x="334" y="491" type="curve"/>
      <point x="209" y="539"/>
      <point x="144" y="619"/>
      <point x="144" y="699" type="curve" smooth="yes"/>
      <point x="144" y="805"/>
      <point x="238" y="856"/>
      <point x="335" y="856" type="curve" smooth="yes"/>
      <point x="433" y="856"/>
      <point x="520" y="811"/>
      <point x="520" y="705" type="curve" smooth="yes"/>
      <point x="520" y="626"/>
      <point x="459" y="541"/>
    </contour>
  </outline>
</glyph>
<glyph name="B" format="2">
  <advance width="725"/>
  <unicode hex="0042"/>
  <anchor x="363" y="0" name="bottom"/>
  <anchor x="170" y="258" name="center"/>
  <anchor x="363" y="838" name="top"/>
  <outline>
    <contour>
      <point x="169" y="0" type="curve" smooth="yes"/>
      <point x="346" y="0" type="line" smooth="yes"/>
      <point x="545" y="0"/>
      <point x="675" y="110"/>
      <point x="675" y="271" type="curve" smooth="yes"/>
      <point x="675" y="410"/>
      <point x="560" y="463"/>
      <point x="435" y="465" type="curve"/>
      <point x="435" y="469" type="line"/>
      <point x="520" y="479"/>
      <point x="638" y="551"/>
      <point x="638" y="691" type="curve" smooth="yes"/>
      <point x="638" y="819"/>
      <point x="549" y="875"/>
      <point x="379" y="875" type="curve" smooth="yes"/>
      <point x="170" y="875" type="line" smooth="yes"/>
      <point x="156" y="875"/>
      <point x="150" y="871"/>
      <point x="150" y="860" type="curve" smooth="yes"/>
      <point x="150" y="15" type="line" smooth="yes"/>
      <point x="150" y="4"/>
      <point x="155" y="0"/>
    </contour>
    <contour>
      <point x="188" y="35" type="line"/>
      <point x="188" y="445" type="line"/>
      <point x="371" y="445" type="line" smooth="yes"/>
      <point x="520" y="445"/>
      <point x="634" y="401"/>
      <point x="634" y="270" type="curve" smooth="yes"/>
      <point x="634" y="130"/>
      <point x="518" y="35"/>
      <point x="346" y="35" type="curve" smooth="yes"/>
    </contour>
    <contour>
      <point x="188" y="480" type="line"/>
      <point x="188" y="840" type="line"/>
      <point x="379" y="840" type="line" smooth="yes"/>
      <point x="523" y="840"/>
      <point x="598" y="796"/>
      <point x="598" y="690" type="curve" smooth="yes"/>
      <point x="598" y="558"/>
      <point x="484" y="480"/>
      <point x="350" y="480" type="curve" smooth="yes"/>
    </contour>
  </outline>
</glyph>
<glyph name="D" format="2">
  <advance width="869"/>
  <unicode hex="0044"/>
  <anchor x="396" y="0" name="bottom"/>
  <anchor x="233" y="438" name="center"/>
  <anchor x="408" y="838" name="top"/>
  <outline>
    <contour>
      <point x="169" y="0" type="curve" smooth="yes"/>
      <point x="295" y="0" type="line" smooth="yes"/>
      <point x="620" y="0"/>
      <point x="775" y="229"/>
      <point x="775" y="483" type="curve" smooth="yes"/>
      <point x="775" y="768"/>
      <point x="575" y="875"/>
      <point x="350" y="875" type="curve" smooth="yes"/>
      <point x="170" y="875" type="line" smooth="yes"/>
      <point x="156" y="875"/>
      <point x="150" y="871"/>
      <point x="150" y="860" type="curve" smooth="yes"/>
      <point x="150" y="15" type="line" smooth="yes"/>
      <point x="150" y="4"/>
      <point x="155" y="0"/>
    </contour>
    <contour>
      <point x="189" y="35" type="line"/>
      <point x="189" y="840" type="line"/>
      <point x="350" y="840" type="line" smooth="yes"/>
      <point x="551" y="840"/>
      <point x="734" y="749"/>
      <point x="734" y="483" type="curve" smooth="yes"/>
      <point x="734" y="249"/>
      <point x="595" y="35"/>
      <point x="294" y="35" type="curve" smooth="yes"/>
    </contour>
  </outline>
</glyph>
<glyph name="E" format="2">
  <advance width="663"/>
  <unicode hex="0045"/>
  <anchor x="368" y="0" name="bottom"/>
  <anchor x="609" y="13" name="ogonek"/>
  <anchor x="386" y="838" name="top"/>
  <outline>
    <contour>
      <point x="169" y="0" type="curve" smooth="yes"/>
      <point x="601" y="0" type="line" smooth="yes"/>
      <point x="608" y="0"/>
      <point x="613" y="5"/>
      <point x="613" y="18" type="curve" smooth="yes"/>
      <point x="613" y="30"/>
      <point x="608" y="35"/>
      <point x="601" y="35" type="curve" smooth="yes"/>
      <point x="188" y="35" type="line"/>
      <point x="188" y="445" type="line"/>
      <point x="539" y="445" type="line" smooth="yes"/>
      <point x="545" y="445"/>
      <point x="550" y="450"/>
      <point x="550" y="463" type="curve" smooth="yes"/>
      <point x="550" y="475"/>
      <point x="545" y="480"/>
      <point x="539" y="480" type="curve" smooth="yes"/>
      <point x="188" y="480" type="line"/>
      <point x="188" y="840" type="line"/>
      <point x="601" y="840" type="line" smooth="yes"/>
      <point x="608" y="840"/>
      <point x="613" y="845"/>
      <point x="613" y="858" type="curve" smooth="yes"/>
      <point x="613" y="870"/>
      <point x="608" y="875"/>
      <point x="601" y="875" type="curve" smooth="yes"/>
      <point x="170" y="875" type="line" smooth="yes"/>
      <point x="156" y="875"/>
      <point x="150" y="871"/>
      <point x="150" y="860" type="curve" smooth="yes"/>
      <point x="150" y="15" type="line" smooth="yes"/>
      <point x="150" y="4"/>
      <point x="155" y="0"/>
    </contour>
  </outline>
</glyph>
<glyph name="G" format="2">
  <advance width="875"/>
  <unicode hex="0047"/>
  <anchor x="438" y="0" name="bottom"/>
  <anchor x="450" y="838" name="top"/>
  <outline>
    <contour>
      <point x="435" y="-19" type="curve" smooth="yes"/>
      <point x="600" y="-19"/>
      <point x="763" y="128"/>
      <point x="763" y="438" type="curve" smooth="yes"/>
      <point x="763" y="449"/>
      <point x="758" y="453"/>
      <point x="744" y="453" type="curve" smooth="yes"/>
      <point x="473" y="453" type="line" smooth="yes"/>
      <point x="461" y="453"/>
      <point x="458" y="448"/>
      <point x="458" y="436" type="curve" smooth="yes"/>
      <point x="458" y="424"/>
      <point x="461" y="418"/>
      <point x="473" y="418" type="curve" smooth="yes"/>
      <point x="725" y="418" type="line"/>
      <point x="716" y="130"/>
      <point x="569" y="19"/>
      <point x="435" y="19" type="curve" smooth="yes"/>
      <point x="261" y="19"/>
      <point x="135" y="189"/>
      <point x="135" y="424" type="curve" smooth="yes"/>
      <point x="135" y="679"/>
      <point x="271" y="853"/>
      <point x="464" y="853" type="curve" smooth="yes"/>
      <point x="541" y="853"/>
      <point x="608" y="828"/>
      <point x="659" y="770" type="curve" smooth="yes"/>
      <point x="669" y="759"/>
      <point x="678" y="758"/>
      <point x="686" y="764" type="curve" smooth="yes"/>
      <point x="698" y="773"/>
      <point x="698" y="780"/>
      <point x="688" y="791" type="curve" smooth="yes"/>
      <point x="633" y="858"/>
      <point x="555" y="890"/>
      <point x="466" y="890" type="curve" smooth="yes"/>
      <point x="250" y="890"/>
      <point x="94" y="700"/>
      <point x="94" y="424" type="curve" smooth="yes"/>
      <point x="94" y="168"/>
      <point x="238" y="-19"/>
    </contour>
  </outline>
</glyph>
<glyph name="K" format="2">
  <advance width="688"/>
  <unicode hex="004B"/>
  <anchor x="381" y="0" name="bottom"/>
  <anchor x="381" y="838" name="top"/>
  <outline>
    <contour>
      <point x="169" y="-14" type="curve" smooth="yes"/>
      <point x="183" y="-14"/>
      <point x="188" y="-10"/>
      <point x="188" y="1" type="curve" smooth="yes"/>
      <point x="188" y="456" type="line"/>
      <point x="311" y="306"/>
      <point x="484" y="118"/>
      <point x="638" y="-10" type="curve" smooth="yes"/>
      <point x="646" y="-17"/>
      <point x="653" y="-20"/>
      <point x="663" y="-10" type="curve" smooth="yes"/>
      <point x="673" y="0"/>
      <point x="675" y="6"/>
      <point x="666" y="14" type="curve" smooth="yes"/>
      <point x="514" y="141"/>
      <point x="354" y="315"/>
      <point x="231" y="464" type="curve"/>
      <point x="648" y="860" type="line" smooth="yes"/>
      <point x="656" y="869"/>
      <point x="656" y="874"/>
      <point x="646" y="884" type="curve" smooth="yes"/>
      <point x="636" y="894"/>
      <point x="630" y="893"/>
      <point x="621" y="884" type="curve" smooth="yes"/>
      <point x="188" y="469" type="line"/>
      <point x="188" y="875" type="line" smooth="yes"/>
      <point x="188" y="886"/>
      <point x="183" y="890"/>
      <point x="169" y="890" type="curve" smooth="yes"/>
      <point x="155" y="890"/>
      <point x="150" y="886"/>
      <point x="150" y="875" type="curve" smooth="yes"/>
      <point x="150" y="1" type="line" smooth="yes"/>
      <point x="150" y="-10"/>
      <point x="155" y="-14"/>
    </contour>
  </outline>
</glyph>
<glyph name="T" format="2">
  <advance width="691"/>
  <unicode hex="0054"/>
  <anchor x="345" y="0" name="bottom"/>
  <anchor x="345" y="438" name="center"/>
  <anchor x="345" y="838" name="top"/>
  <outline>
    <contour>
      <point x="345" y="-14" type="curve" smooth="yes"/>
      <point x="359" y="-14"/>
      <point x="364" y="-10"/>
      <point x="364" y="1" type="curve" smooth="yes"/>
      <point x="364" y="840" type="line"/>
      <point x="651" y="840" type="line" smooth="yes"/>
      <point x="658" y="840"/>
      <point x="663" y="846"/>
      <point x="663" y="859" type="curve" smooth="yes"/>
      <point x="663" y="871"/>
      <point x="658" y="875"/>
      <point x="651" y="875" type="curve" smooth="yes"/>
      <point x="39" y="875" type="line" smooth="yes"/>
      <point x="33" y="875"/>
      <point x="28" y="870"/>
      <point x="28" y="858" type="curve" smooth="yes"/>
      <point x="28" y="845"/>
      <point x="33" y="840"/>
      <point x="39" y="840" type="curve" smooth="yes"/>
      <point x="326" y="840" type="line"/>
      <point x="326" y="1" type="line" smooth="yes"/>
      <point x="326" y="-10"/>
      <point x="331" y="-14"/>
    </contour>
  </outline>
</glyph>
<glyph name="U" format="2">
  <advance width="863"/>
  <unicode hex="0055"/>
  <anchor x="431" y="0" name="bottom"/>
  <anchor x="588" y="13" name="ogonek"/>
  <anchor x="431" y="838" name="top"/>
  <anchor x="708" y="888" name="topright"/>
  <outline>
    <contour>
      <point x="433" y="-19" type="curve" smooth="yes"/>
      <point x="626" y="-19"/>
      <point x="725" y="76"/>
      <point x="725" y="263" type="curve" smooth="yes"/>
      <point x="725" y="875" type="line" smooth="yes"/>
      <point x="725" y="886"/>
      <point x="720" y="890"/>
      <point x="706" y="890" type="curve" smooth="yes"/>
      <point x="693" y="890"/>
      <point x="688" y="886"/>
      <point x="688" y="875" type="curve" smooth="yes"/>
      <point x="688" y="260" type="line" smooth="yes"/>
      <point x="688" y="99"/>
      <point x="601" y="19"/>
      <point x="433" y="19" type="curve" smooth="yes"/>
      <point x="263" y="19"/>
      <point x="175" y="99"/>
      <point x="175" y="260" type="curve" smooth="yes"/>
      <point x="175" y="875" type="line" smooth="yes"/>
      <point x="175" y="886"/>
      <point x="170" y="890"/>
      <point x="156" y="890" type="curve" smooth="yes"/>
      <point x="143" y="890"/>
      <point x="138" y="886"/>
      <point x="138" y="875" type="curve" smooth="yes"/>
      <point x="138" y="263" type="line" smooth="yes"/>
      <point x="138" y="76"/>
      <point x="238" y="-19"/>
    </contour>
  </outline>
</glyph>
<glyph name="V" format="2">
  <advance width="725"/>
  <unicode hex="0056"/>
  <outline>
    <contour>
      <point x="363" y="-14" type="curve" smooth="yes"/>
      <point x="376" y="-14"/>
      <point x="381" y="-10"/>
      <point x="385" y="1" type="curve" smooth="yes"/>
      <point x="691" y="868" type="line" smooth="yes"/>
      <point x="695" y="879"/>
      <point x="694" y="884"/>
      <point x="681" y="889" type="curve" smooth="yes"/>
      <point x="668" y="894"/>
      <point x="663" y="890"/>
      <point x="656" y="874" type="curve" smooth="yes"/>
      <point x="363" y="43" type="line"/>
      <point x="69" y="874" type="line" smooth="yes"/>
      <point x="63" y="890"/>
      <point x="58" y="894"/>
      <point x="44" y="889" type="curve" smooth="yes"/>
      <point x="31" y="884"/>
      <point x="30" y="879"/>
      <point x="34" y="868" type="curve" smooth="yes"/>
      <point x="341" y="1" type="line" smooth="yes"/>
      <point x="345" y="-10"/>
      <point x="350" y="-14"/>
    </contour>
  </outline>
</glyph>
<glyph name="o" format="2">
  <advance width="589"/>
  <unicode hex="006F"/>
  <anchor x="295" y="0" name="bottom"/>
  <anchor x="295" y="250" name="center"/>
  <anchor x="385" y="0" name="ogonek"/>
  <anchor x="295" y="500" name="top"/>
  <anchor x="365" y="506" name="topright"/>
  <outline>
    <contour>
      <point x="295" y="-19" type="curve" smooth="yes"/>
      <point x="430" y="-19"/>
      <point x="514" y="90"/>
      <point x="514" y="250" type="curve" smooth="yes"/>
      <point x="514" y="410"/>
      <point x="425" y="519"/>
      <point x="295" y="519" type="curve" smooth="yes"/>
      <point x="168" y="519"/>
      <point x="75" y="410"/>
      <point x="75" y="250" type="curve" smooth="yes"/>
      <point x="75" y="90"/>
      <point x="156" y="-19"/>
    </contour>
    <contour>
      <point x="295" y="16" type="curve" smooth="yes"/>
      <point x="183" y="16"/>
      <point x="114" y="113"/>
      <point x="114" y="250" type="curve" smooth="yes"/>
      <point x="114" y="388"/>
      <point x="183" y="484"/>
      <point x="295" y="484" type="curve" smooth="yes"/>
      <point x="406" y="484"/>
      <point x="475" y="388"/>
      <point x="475" y="250" type="curve" smooth="yes"/>
      <point x="475" y="113"/>
      <point x="406" y="16"/>
    </contour>
  </outline>
</glyph>
<glyph name="t" format="2">
  <advance width="388"/>
  <unicode hex="0074"/>
  <anchor x="226" y="0" name="bottom"/>
  <anchor x="189" y="294" name="center"/>
  <anchor x="159" y="698" name="top"/>
  <anchor x="195" y="781" name="topright"/>
  <outline>
    <contour>
      <point x="219" y="-17" type="curve" smooth="yes"/>
      <point x="273" y="-17"/>
      <point x="321" y="28"/>
      <point x="349" y="101" type="curve" smooth="yes"/>
      <point x="351" y="108"/>
      <point x="349" y="115"/>
      <point x="339" y="119" type="curve" smooth="yes"/>
      <point x="330" y="123"/>
      <point x="321" y="123"/>
      <point x="318" y="113" type="curve" smooth="yes"/>
      <point x="293" y="49"/>
      <point x="261" y="16"/>
      <point x="224" y="16" type="curve" smooth="yes"/>
      <point x="186" y="16"/>
      <point x="179" y="46"/>
      <point x="179" y="106" type="curve" smooth="yes"/>
      <point x="179" y="468" type="line"/>
      <point x="320" y="468" type="line" smooth="yes"/>
      <point x="331" y="468"/>
      <point x="335" y="473"/>
      <point x="335" y="483" type="curve" smooth="yes"/>
      <point x="335" y="494"/>
      <point x="331" y="500"/>
      <point x="320" y="500" type="curve" smooth="yes"/>
      <point x="179" y="500" type="line"/>
      <point x="179" y="715" type="line" smooth="yes"/>
      <point x="179" y="726"/>
      <point x="173" y="730"/>
      <point x="160" y="730" type="curve" smooth="yes"/>
      <point x="148" y="730"/>
      <point x="141" y="726"/>
      <point x="141" y="715" type="curve" smooth="yes"/>
      <point x="141" y="500" type="line"/>
      <point x="64" y="500" type="line" smooth="yes"/>
      <point x="53" y="500"/>
      <point x="49" y="494"/>
      <point x="49" y="483" type="curve" smooth="yes"/>
      <point x="49" y="473"/>
      <point x="53" y="468"/>
      <point x="64" y="468" type="curve" smooth="yes"/>
      <point x="141" y="468" type="line"/>
      <point x="141" y="93" type="line" smooth="yes"/>
      <point x="141" y="11"/>
      <point x="168" y="-17"/>
    </contour>
  </outline>
</glyph>
<glyph name="section" format="2">
  <advance width="666"/>
  <unicode hex="00A7"/>
  <outline>
    <contour>
      <point x="324" y="-394" type="curve" smooth="yes"/>
      <point x="448" y="-394"/>
      <point x="564" y="-310"/>
      <point x="564" y="-162" type="curve" smooth="yes"/>
      <point x="564" y="-79"/>
      <point x="525" y="-26"/>
      <point x="469" y="16" type="curve"/>
      <point x="544" y="66"/>
      <point x="598" y="137"/>
      <point x="598" y="236" type="curve" smooth="yes"/>
      <point x="598" y="509"/>
      <point x="161" y="456"/>
      <point x="161" y="684" type="curve" smooth="yes"/>
      <point x="161" y="786"/>
      <point x="221" y="853"/>
      <point x="336" y="853" type="curve" smooth="yes"/>
      <point x="415" y="853"/>
      <point x="484" y="814"/>
      <point x="538" y="764" type="curve"/>
      <point x="550" y="751"/>
      <point x="556" y="748"/>
      <point x="568" y="758" type="curve" smooth="yes"/>
      <point x="578" y="766"/>
      <point x="578" y="773"/>
      <point x="568" y="783" type="curve" smooth="yes"/>
      <point x="519" y="834"/>
      <point x="438" y="890"/>
      <point x="336" y="890" type="curve" smooth="yes"/>
      <point x="214" y="890"/>
      <point x="121" y="813"/>
      <point x="121" y="684" type="curve" smooth="yes"/>
      <point x="121" y="611"/>
      <point x="157" y="563"/>
      <point x="208" y="525" type="curve"/>
      <point x="133" y="474"/>
      <point x="80" y="404"/>
      <point x="80" y="305" type="curve" smooth="yes"/>
      <point x="80" y="36"/>
      <point x="524" y="88"/>
      <point x="524" y="-162" type="curve" smooth="yes"/>
      <point x="524" y="-284"/>
      <point x="430" y="-356"/>
      <point x="324" y="-356" type="curve" smooth="yes"/>
      <point x="235" y="-356"/>
      <point x="164" y="-319"/>
      <point x="111" y="-264" type="curve" smooth="yes"/>
      <point x="99" y="-250"/>
      <point x="94" y="-247"/>
      <point x="83" y="-257" type="curve" smooth="yes"/>
      <point x="73" y="-266"/>
      <point x="75" y="-276"/>
      <point x="85" y="-287" type="curve" smooth="yes"/>
      <point x="140" y="-347"/>
      <point x="219" y="-394"/>
    </contour>
    <contour>
      <point x="439" y="37" type="curve"/>
      <point x="307" y="118"/>
      <point x="120" y="152"/>
      <point x="120" y="305" type="curve" smooth="yes"/>
      <point x="120" y="392"/>
      <point x="170" y="459"/>
      <point x="239" y="504" type="curve"/>
      <point x="369" y="426"/>
      <point x="558" y="391"/>
      <point x="558" y="236" type="curve" smooth="yes"/>
      <point x="558" y="149"/>
      <point x="508" y="82"/>
    </contour>
  </outline>
</glyph>
<glyph name="eth" format="2">
  <advance width="603"/>
  <unicode hex="00F0"/>
  <outline>
    <contour>
      <point x="294" y="-19" type="curve" smooth="yes"/>
      <point x="420" y="-19"/>
      <point x="526" y="90"/>
      <point x="526" y="296" type="curve" smooth="yes"/>
      <point x="526" y="556"/>
      <point x="402" y="723"/>
      <point x="223" y="888" type="curve" smooth="yes"/>
      <point x="216" y="894"/>
      <point x="209" y="894"/>
      <point x="200" y="885" type="curve" smooth="yes"/>
      <point x="191" y="876"/>
      <point x="189" y="870"/>
      <point x="198" y="861" type="curve" smooth="yes"/>
      <point x="306" y="760"/>
      <point x="413" y="639"/>
      <point x="459" y="490" type="curve"/>
      <point x="415" y="509"/>
      <point x="376" y="519"/>
      <point x="325" y="519" type="curve" smooth="yes"/>
      <point x="180" y="519"/>
      <point x="88" y="408"/>
      <point x="88" y="250" type="curve" smooth="yes"/>
      <point x="88" y="90"/>
      <point x="159" y="-19"/>
    </contour>
    <contour>
      <point x="294" y="16" type="curve" smooth="yes"/>
      <point x="185" y="16"/>
      <point x="126" y="113"/>
      <point x="126" y="250" type="curve" smooth="yes"/>
      <point x="126" y="385"/>
      <point x="195" y="484"/>
      <point x="325" y="484" type="curve" smooth="yes"/>
      <point x="369" y="484"/>
      <point x="418" y="474"/>
      <point x="471" y="449" type="curve"/>
      <point x="482" y="401"/>
      <point x="488" y="351"/>
      <point x="488" y="296" type="curve" smooth="yes"/>
      <point x="488" y="105"/>
      <point x="395" y="16"/>
    </contour>
    <contour>
      <point x="229" y="625" type="curve" smooth="yes"/>
      <point x="501" y="750" type="line" smooth="yes"/>
      <point x="511" y="755"/>
      <point x="513" y="761"/>
      <point x="509" y="773" type="curve" smooth="yes"/>
      <point x="504" y="785"/>
      <point x="496" y="789"/>
      <point x="486" y="784" type="curve" smooth="yes"/>
      <point x="215" y="659" type="line" smooth="yes"/>
      <point x="204" y="654"/>
      <point x="203" y="646"/>
      <point x="206" y="636" type="curve" smooth="yes"/>
      <point x="211" y="624"/>
      <point x="219" y="620"/>
    </contour>
  </outline>
</glyph>
<glyph name="Ohorn" format="2">
  <advance width="925"/>
  <unicode hex="01A0"/>
  <anchor x="463" y="0" name="bottom"/>
  <anchor x="463" y="438" name="center"/>
  <anchor x="591" y="6" name="ogonek"/>
  <anchor x="463" y="838" name="top"/>
  <outline>
    <contour>
      <point x="464" y="-19" type="curve" smooth="yes"/>
      <point x="676" y="-19"/>
      <point x="831" y="159"/>
      <point x="831" y="436" type="curve" smooth="yes"/>
      <point x="831" y="638"/>
      <point x="748" y="787"/>
      <point x="621" y="853" type="curve"/>
      <point x="754" y="874"/>
      <point x="769" y="962"/>
      <point x="750" y="1053" type="curve" smooth="yes"/>
      <point x="744" y="1082"/>
      <point x="701" y="1073"/>
      <point x="706" y="1046" type="curve" smooth="yes"/>
      <point x="721" y="963"/>
      <point x="724" y="885"/>
      <point x="568" y="875" type="curve"/>
      <point x="535" y="885"/>
      <point x="501" y="890"/>
      <point x="464" y="890" type="curve" smooth="yes"/>
      <point x="249" y="890"/>
      <point x="94" y="713"/>
      <point x="94" y="436" type="curve" smooth="yes"/>
      <point x="94" y="159"/>
      <point x="249" y="-19"/>
    </contour>
    <contour>
      <point x="464" y="19" type="curve" smooth="yes"/>
      <point x="273" y="19"/>
      <point x="135" y="181"/>
      <point x="135" y="436" type="curve" smooth="yes"/>
      <point x="135" y="691"/>
      <point x="273" y="853"/>
      <point x="464" y="853" type="curve" smooth="yes"/>
      <point x="653" y="853"/>
      <point x="790" y="691"/>
      <point x="790" y="436" type="curve" smooth="yes"/>
      <point x="790" y="181"/>
      <point x="653" y="19"/>
    </contour>
  </outline>
</glyph>
<glyph name="ohorn" format="2">
  <advance width="589"/>
  <unicode hex="01A1"/>
  <anchor x="295" y="0" name="bottom"/>
  <anchor x="295" y="250" name="center"/>
  <anchor x="385" y="0" name="ogonek"/>
  <anchor x="295" y="500" name="top"/>
  <outline>
    <contour>
      <point x="295" y="-19" type="curve" smooth="yes"/>
      <point x="430" y="-19"/>
      <point x="514" y="90"/>
      <point x="514" y="250" type="curve" smooth="yes"/>
      <point x="514" y="356"/>
      <point x="475" y="439"/>
      <point x="411" y="484" type="curve"/>
      <point x="516" y="503"/>
      <point x="538" y="590"/>
      <point x="519" y="678" type="curve" smooth="yes"/>
      <point x="513" y="706"/>
      <point x="470" y="697"/>
      <point x="475" y="671" type="curve" smooth="yes"/>
      <point x="489" y="592"/>
      <point x="489" y="517"/>
      <point x="368" y="506" type="curve"/>
      <point x="346" y="515"/>
      <point x="321" y="519"/>
      <point x="295" y="519" type="curve" smooth="yes"/>
      <point x="168" y="519"/>
      <point x="75" y="410"/>
      <point x="75" y="250" type="curve" smooth="yes"/>
      <point x="75" y="90"/>
      <point x="156" y="-19"/>
    </contour>
    <contour>
      <point x="295" y="16" type="curve" smooth="yes"/>
      <point x="183" y="16"/>
      <point x="114" y="113"/>
      <point x="114" y="250" type="curve" smooth="yes"/>
      <point x="114" y="388"/>
      <point x="183" y="484"/>
      <point x="295" y="484" type="curve" smooth="yes"/>
      <point x="406" y="484"/>
      <point x="475" y="388"/>
      <point x="475" y="250" type="curve" smooth="yes"/>
      <point x="475" y="113"/>
      <point x="406" y="16"/>
    </contour>
  </outline>
</glyph>
<glyph name="jdotless" format="2">
  <advance width="268"/>
  <unicode hex="0237"/>
  <anchor x="130" y="500" name="top"/>
  <outline>
    <contour>
      <point x="54" y="-392" type="curve" smooth="yes"/>
      <point x="126" y="-392"/>
      <point x="149" y="-351"/>
      <point x="149" y="-272" type="curve" smooth="yes"/>
      <point x="149" y="500" type="line" smooth="yes"/>
      <point x="149" y="511"/>
      <point x="144" y="515"/>
      <point x="131" y="515" type="curve" smooth="yes"/>
      <point x="119" y="515"/>
      <point x="113" y="511"/>
      <point x="113" y="500" type="curve" smooth="yes"/>
      <point x="113" y="-270" type="line" smooth="yes"/>
      <point x="113" y="-330"/>
      <point x="100" y="-357"/>
      <point x="55" y="-357" type="curve" smooth="yes"/>
      <point x="20" y="-357"/>
      <point x="-15" y="-337"/>
      <point x="-40" y="-312" type="curve" smooth="yes"/>
      <point x="-47" y="-305"/>
      <point x="-57" y="-302"/>
      <point x="-66" y="-311" type="curve" smooth="yes"/>
      <point x="-77" y="-322"/>
      <point x="-75" y="-331"/>
      <point x="-67" y="-339" type="curve" smooth="yes"/>
      <point x="-36" y="-371"/>
      <point x="4" y="-392"/>
    </contour>
  </outline>
</glyph>
<glyph name="dieresiscomb" format="2">
  <unicode hex="0308"/>
  <anchor x="0" y="500" name="_top"/>
  <anchor x="0" y="736" name="top"/>
  <outline>
    <contour>
      <point x="-125" y="690" type="curve" smooth="yes"/>
      <point x="-100" y="690"/>
      <point x="-87" y="704"/>
      <point x="-87" y="733" type="curve" smooth="yes"/>
      <point x="-87" y="761"/>
      <point x="-100" y="775"/>
      <point x="-125" y="775" type="curve" smooth="yes"/>
      <point x="-150" y="775"/>
      <point x="-162" y="761"/>
      <point x="-162" y="733" type="curve" smooth="yes"/>
      <point x="-162" y="704"/>
      <point x="-150" y="690"/>
    </contour>
    <contour>
      <point x="125" y="690" type="curve" smooth="yes"/>
      <point x="150" y="690"/>
      <point x="163" y="704"/>
      <point x="163" y="733" type="curve" smooth="yes"/>
      <point x="163" y="761"/>
      <point x="150" y="775"/>
      <point x="125" y="775" type="curve" smooth="yes"/>
      <point x="100" y="775"/>
      <point x="88" y="761"/>
      <point x="88" y="733" type="curve" smooth="yes"/>
      <point x="88" y="704"/>
      <point x="100" y="690"/>
    </contour>
  </outline>
</glyph>
<glyph name="hookabovecomb" format="2">
  <unicode hex="0309"/>
  <anchor x="0" y="500" name="_top"/>
  <anchor x="0" y="818" name="top"/>
  <outline>
    <contour>
      <point x="8" y="838" type="curve" smooth="yes"/>
      <point x="-22" y="838"/>
      <point x="-60" y="828"/>
      <point x="-81" y="811" type="curve" smooth="yes"/>
      <point x="-90" y="804"/>
      <point x="-92" y="798"/>
      <point x="-86" y="786" type="curve" smooth="yes"/>
      <point x="-82" y="779"/>
      <point x="-75" y="775"/>
      <point x="-62" y="783" type="curve" smooth="yes"/>
      <point x="-44" y="794"/>
      <point x="-19" y="803"/>
      <point x="4" y="803" type="curve" smooth="yes"/>
      <point x="34" y="803"/>
      <point x="49" y="793"/>
      <point x="49" y="773" type="curve" smooth="yes"/>
      <point x="49" y="756"/>
      <point x="41" y="739"/>
      <point x="16" y="716" type="curve" smooth="yes"/>
      <point x="-11" y="691"/>
      <point x="-25" y="668"/>
      <point x="-21" y="641" type="curve" smooth="yes"/>
      <point x="-19" y="625" type="line" smooth="yes"/>
      <point x="-16" y="605"/>
      <point x="24" y="608"/>
      <point x="20" y="630" type="curve" smooth="yes"/>
      <point x="18" y="644" type="line" smooth="yes"/>
      <point x="15" y="660"/>
      <point x="21" y="671"/>
      <point x="45" y="693" type="curve" smooth="yes"/>
      <point x="76" y="720"/>
      <point x="89" y="749"/>
      <point x="89" y="774" type="curve" smooth="yes"/>
      <point x="89" y="811"/>
      <point x="59" y="838"/>
    </contour>
  </outline>
</glyph>
<glyph name="hungarumlautcomb" format="2">
  <unicode hex="030B"/>
  <anchor x="0" y="500" name="_top"/>
  <anchor x="66" y="818" name="top"/>
  <outline>
    <contour>
      <point x="-92" y="630" type="curve" smooth="yes"/>
      <point x="-87" y="630"/>
      <point x="-84" y="634"/>
      <point x="-81" y="639" type="curve" smooth="yes"/>
      <point x="15" y="805" type="line" smooth="yes"/>
      <point x="18" y="810"/>
      <point x="19" y="814"/>
      <point x="19" y="818" type="curve" smooth="yes"/>
      <point x="19" y="828"/>
      <point x="3" y="836"/>
      <point x="-6" y="836" type="curve" smooth="yes"/>
      <point x="-12" y="836"/>
      <point x="-16" y="833"/>
      <point x="-20" y="826" type="curve" smooth="yes"/>
      <point x="-109" y="658" type="line" smooth="yes"/>
      <point x="-112" y="650"/>
      <point x="-112" y="648"/>
      <point x="-112" y="645" type="curve" smooth="yes"/>
      <point x="-112" y="636"/>
      <point x="-101" y="630"/>
    </contour>
    <contour>
      <point x="58" y="630" type="curve" smooth="yes"/>
      <point x="63" y="630"/>
      <point x="66" y="634"/>
      <point x="69" y="639" type="curve" smooth="yes"/>
      <point x="171" y="805" type="line" smooth="yes"/>
      <point x="174" y="810"/>
      <point x="175" y="814"/>
      <point x="175" y="818" type="curve" smooth="yes"/>
      <point x="175" y="828"/>
      <point x="159" y="836"/>
      <point x="150" y="836" type="curve" smooth="yes"/>
      <point x="144" y="836"/>
      <point x="140" y="833"/>
      <point x="136" y="826" type="curve" smooth="yes"/>
      <point x="41" y="658" type="line" smooth="yes"/>
      <point x="38" y="650"/>
      <point x="38" y="648"/>
      <point x="38" y="645" type="curve" smooth="yes"/>
      <point x="38" y="636"/>
      <point x="49" y="630"/>
    </contour>
  </outline>
</glyph>
<glyph name="quoteright" format="2">
  <advance width="192"/>
  <unicode hex="2019"/>
  <outline>
    <contour>
      <point x="99" y="894" type="curve" smooth="yes"/>
      <point x="80" y="894"/>
      <point x="73" y="883"/>
      <point x="73" y="869" type="curve" smooth="yes"/>
      <point x="73" y="759"/>
      <point x="67" y="735"/>
      <point x="38" y="679" type="curve" smooth="yes"/>
      <point x="34" y="671"/>
      <point x="30" y="666"/>
      <point x="30" y="661" type="curve" smooth="yes"/>
      <point x="30" y="653"/>
      <point x="44" y="645"/>
      <point x="54" y="645" type="curve" smooth="yes"/>
      <point x="61" y="645"/>
      <point x="67" y="651"/>
      <point x="73" y="659" type="curve" smooth="yes"/>
      <point x="111" y="716"/>
      <point x="127" y="778"/>
      <point x="127" y="866" type="curve" smooth="yes"/>
      <point x="127" y="880"/>
      <point x="120" y="894"/>
    </contour>
  </outline>
</glyph>
<glyph name="A.cur_locl" format="2">
  <advance width="979"/>
  <guideline x="606"/>
  <anchor x="354" y="0" name="bottom"/>
  <anchor x="881" y="13" name="ogonek"/>
  <anchor x="459" y="838" name="top"/>
  <outline>
    <contour>
      <point x="354" y="-17" type="curve" smooth="yes"/>
      <point x="511" y="-17"/>
      <point x="653" y="151"/>
      <point x="713" y="395" type="curve"/>
      <point x="713" y="90" type="line" smooth="yes"/>
      <point x="713" y="24"/>
      <point x="746" y="-17"/>
      <point x="803" y="-17" type="curve" smooth="yes"/>
      <point x="865" y="-17"/>
      <point x="920" y="34"/>
      <point x="958" y="126" type="curve" smooth="yes"/>
      <point x="960" y="134"/>
      <point x="956" y="139"/>
      <point x="946" y="143" type="curve" smooth="yes"/>
      <point x="935" y="146"/>
      <point x="928" y="145"/>
      <point x="924" y="138" type="curve" smooth="yes"/>
      <point x="889" y="59"/>
      <point x="850" y="19"/>
      <point x="809" y="19" type="curve" smooth="yes"/>
      <point x="765" y="19"/>
      <point x="750" y="44"/>
      <point x="750" y="114" type="curve" smooth="yes"/>
      <point x="751" y="875" type="line" smooth="yes"/>
      <point x="751" y="886"/>
      <point x="746" y="890"/>
      <point x="731" y="890" type="curve" smooth="yes"/>
      <point x="718" y="890"/>
      <point x="713" y="886"/>
      <point x="713" y="874" type="curve" smooth="yes"/>
      <point x="713" y="791" type="line"/>
      <point x="648" y="856"/>
      <point x="561" y="890"/>
      <point x="459" y="890" type="curve" smooth="yes"/>
      <point x="230" y="890"/>
      <point x="81" y="694"/>
      <point x="81" y="391" type="curve" smooth="yes"/>
      <point x="81" y="130"/>
      <point x="180" y="-17"/>
    </contour>
    <contour>
      <point x="123" y="391" type="curve" smooth="yes"/>
      <point x="123" y="674"/>
      <point x="253" y="853"/>
      <point x="459" y="853" type="curve" smooth="yes"/>
      <point x="565" y="853"/>
      <point x="640" y="820"/>
      <point x="713" y="741" type="curve"/>
      <point x="713" y="539" type="line"/>
      <point x="670" y="239"/>
      <point x="520" y="20"/>
      <point x="358" y="20" type="curve" smooth="yes"/>
      <point x="206" y="20"/>
      <point x="123" y="151"/>
    </contour>
  </outline>
</glyph>
<glyph name="A.dec" format="2">
  <advance width="938"/>
  <anchor x="520" y="0" name="bottom"/>
  <anchor x="833" y="0" name="ogonek"/>
  <anchor x="558" y="838" name="top"/>
  <outline>
    <contour>
      <point x="158" y="-17" type="curve" smooth="yes"/>
      <point x="276" y="-17"/>
      <point x="420" y="140"/>
      <point x="558" y="814" type="curve"/>
      <point x="613" y="550"/>
      <point x="690" y="284"/>
      <point x="796" y="-4" type="curve" smooth="yes"/>
      <point x="803" y="-20"/>
      <point x="809" y="-21"/>
      <point x="821" y="-16" type="curve" smooth="yes"/>
      <point x="834" y="-11"/>
      <point x="838" y="-6"/>
      <point x="833" y="9" type="curve" smooth="yes"/>
      <point x="721" y="311"/>
      <point x="641" y="588"/>
      <point x="584" y="868" type="curve" smooth="yes"/>
      <point x="581" y="883"/>
      <point x="574" y="890"/>
      <point x="559" y="890" type="curve" smooth="yes"/>
      <point x="544" y="890"/>
      <point x="535" y="881"/>
      <point x="533" y="868" type="curve" smooth="yes"/>
      <point x="385" y="159"/>
      <point x="250" y="20"/>
      <point x="156" y="20" type="curve" smooth="yes"/>
      <point x="123" y="20"/>
      <point x="96" y="36"/>
      <point x="75" y="56" type="curve" smooth="yes"/>
      <point x="68" y="64"/>
      <point x="60" y="65"/>
      <point x="50" y="53" type="curve" smooth="yes"/>
      <point x="40" y="43"/>
      <point x="43" y="35"/>
      <point x="50" y="28" type="curve" smooth="yes"/>
      <point x="71" y="8"/>
      <point x="103" y="-17"/>
    </contour>
    <contour>
      <point x="795" y="6" type="curve"/>
      <point x="823" y="19" type="line"/>
      <point x="686" y="353"/>
      <point x="519" y="376"/>
      <point x="398" y="376" type="curve" smooth="yes"/>
      <point x="304" y="376"/>
      <point x="234" y="330"/>
      <point x="234" y="269" type="curve" smooth="yes"/>
      <point x="234" y="194"/>
      <point x="315" y="151"/>
      <point x="440" y="151" type="curve" smooth="yes"/>
      <point x="554" y="151"/>
      <point x="694" y="173"/>
      <point x="863" y="251" type="curve" smooth="yes"/>
      <point x="875" y="258"/>
      <point x="876" y="264"/>
      <point x="871" y="276" type="curve" smooth="yes"/>
      <point x="865" y="290"/>
      <point x="856" y="289"/>
      <point x="845" y="284" type="curve" smooth="yes"/>
      <point x="689" y="209"/>
      <point x="556" y="186"/>
      <point x="440" y="186" type="curve" smooth="yes"/>
      <point x="351" y="186"/>
      <point x="275" y="213"/>
      <point x="275" y="269" type="curve" smooth="yes"/>
      <point x="275" y="313"/>
      <point x="324" y="341"/>
      <point x="396" y="341" type="curve" smooth="yes"/>
      <point x="520" y="341"/>
      <point x="656" y="318"/>
    </contour>
  </outline>
</glyph>
<glyph name="A.dec_locl" format="2">
  <advance width="1063"/>
  <anchor x="520" y="0" name="bottom"/>
  <anchor x="936" y="0" name="ogonek"/>
  <anchor x="558" y="838" name="top"/>
  <outline>
    <contour>
      <point x="158" y="-17" type="curve" smooth="yes"/>
      <point x="237" y="-17"/>
      <point x="328" y="53"/>
      <point x="421" y="303" type="curve"/>
      <point x="690" y="303" type="line"/>
      <point x="697" y="279"/>
      <point x="704" y="257"/>
      <point x="710" y="237" type="curve" smooth="yes"/>
      <point x="775" y="30"/>
      <point x="812" y="-17"/>
      <point x="886" y="-17" type="curve" smooth="yes"/>
      <point x="954" y="-17"/>
      <point x="1001" y="64"/>
      <point x="1030" y="224" type="curve"/>
      <point x="1033" y="235"/>
      <point x="1025" y="241"/>
      <point x="1013" y="243" type="curve" smooth="yes"/>
      <point x="1001" y="244"/>
      <point x="996" y="239"/>
      <point x="994" y="228" type="curve" smooth="yes"/>
      <point x="969" y="89"/>
      <point x="933" y="19"/>
      <point x="886" y="19" type="curve" smooth="yes"/>
      <point x="824" y="19"/>
      <point x="794" y="79"/>
      <point x="710" y="371" type="curve" smooth="yes"/>
      <point x="646" y="590"/>
      <point x="613" y="729"/>
      <point x="584" y="868" type="curve" smooth="yes"/>
      <point x="581" y="883"/>
      <point x="574" y="890"/>
      <point x="559" y="890" type="curve" smooth="yes"/>
      <point x="544" y="890"/>
      <point x="535" y="881"/>
      <point x="533" y="868" type="curve" smooth="yes"/>
      <point x="385" y="159"/>
      <point x="250" y="20"/>
      <point x="156" y="20" type="curve" smooth="yes"/>
      <point x="123" y="20"/>
      <point x="96" y="36"/>
      <point x="75" y="56" type="curve" smooth="yes"/>
      <point x="68" y="64"/>
      <point x="60" y="65"/>
      <point x="50" y="53" type="curve" smooth="yes"/>
      <point x="40" y="43"/>
      <point x="43" y="35"/>
      <point x="50" y="28" type="curve" smooth="yes"/>
      <point x="71" y="8"/>
      <point x="103" y="-17"/>
    </contour>
    <contour>
      <point x="432" y="335" type="line"/>
      <point x="474" y="454"/>
      <point x="516" y="611"/>
      <point x="558" y="814" type="curve"/>
      <point x="592" y="655"/>
      <point x="640" y="473"/>
      <point x="681" y="335" type="curve"/>
    </contour>
  </outline>
</glyph>
<glyph name="AE.cur" format="2">
  <advance width="1287"/>
  <anchor x="754" y="838" name="top"/>
  <outline>
    <contour>
      <point x="144" y="-17" type="curve" smooth="yes"/>
      <point x="211" y="-17"/>
      <point x="270" y="31"/>
      <point x="389" y="286" type="curve"/>
      <point x="673" y="286" type="line"/>
      <point x="679" y="250"/>
      <point x="686" y="215"/>
      <point x="693" y="180" type="curve" smooth="yes"/>
      <point x="696" y="163"/>
      <point x="703" y="161"/>
      <point x="716" y="164" type="curve" smooth="yes"/>
      <point x="729" y="168"/>
      <point x="733" y="171"/>
      <point x="729" y="188" type="curve" smooth="yes"/>
      <point x="686" y="403"/>
      <point x="655" y="654"/>
      <point x="643" y="865" type="curve" smooth="yes"/>
      <point x="641" y="883"/>
      <point x="633" y="890"/>
      <point x="616" y="890" type="curve" smooth="yes"/>
      <point x="604" y="890"/>
      <point x="596" y="884"/>
      <point x="591" y="871" type="curve" smooth="yes"/>
      <point x="298" y="125"/>
      <point x="221" y="20"/>
      <point x="143" y="20" type="curve" smooth="yes"/>
      <point x="115" y="20"/>
      <point x="96" y="31"/>
      <point x="75" y="51" type="curve" smooth="yes"/>
      <point x="68" y="59"/>
      <point x="60" y="60"/>
      <point x="50" y="48" type="curve" smooth="yes"/>
      <point x="40" y="38"/>
      <point x="43" y="30"/>
      <point x="50" y="23" type="curve" smooth="yes"/>
      <point x="71" y="3"/>
      <point x="95" y="-17"/>
    </contour>
    <contour>
      <point x="405" y="321" type="line"/>
      <point x="459" y="441"/>
      <point x="525" y="602"/>
      <point x="608" y="817" type="curve"/>
      <point x="617" y="663"/>
      <point x="639" y="488"/>
      <point x="667" y="321" type="curve"/>
    </contour>
    <contour>
      <point x="954" y="-19" type="curve" smooth="yes"/>
      <point x="1074" y="-19"/>
      <point x="1174" y="45"/>
      <point x="1230" y="163" type="curve" smooth="yes"/>
      <point x="1236" y="176"/>
      <point x="1235" y="183"/>
      <point x="1225" y="189" type="curve" smooth="yes"/>
      <point x="1213" y="195"/>
      <point x="1205" y="194"/>
      <point x="1200" y="184" type="curve" smooth="yes"/>
      <point x="1146" y="74"/>
      <point x="1058" y="18"/>
      <point x="951" y="18" type="curve" smooth="yes"/>
      <point x="811" y="18"/>
      <point x="729" y="99"/>
      <point x="729" y="233" type="curve" smooth="yes"/>
      <point x="729" y="368"/>
      <point x="841" y="441"/>
      <point x="979" y="441" type="curve" smooth="yes"/>
      <point x="1083" y="441" type="line" smooth="yes"/>
      <point x="1090" y="441"/>
      <point x="1094" y="448"/>
      <point x="1094" y="459" type="curve" smooth="yes"/>
      <point x="1094" y="470"/>
      <point x="1090" y="476"/>
      <point x="1083" y="476" type="curve" smooth="yes"/>
      <point x="975" y="476" type="line" smooth="yes"/>
      <point x="859" y="476"/>
      <point x="778" y="558"/>
      <point x="778" y="676" type="curve" smooth="yes"/>
      <point x="778" y="781"/>
      <point x="859" y="853"/>
      <point x="966" y="853" type="curve" smooth="yes"/>
      <point x="1048" y="853"/>
      <point x="1113" y="819"/>
      <point x="1168" y="759" type="curve" smooth="yes"/>
      <point x="1176" y="750"/>
      <point x="1185" y="749"/>
      <point x="1195" y="756" type="curve" smooth="yes"/>
      <point x="1205" y="764"/>
      <point x="1205" y="771"/>
      <point x="1196" y="783" type="curve" smooth="yes"/>
      <point x="1146" y="846"/>
      <point x="1059" y="890"/>
      <point x="966" y="890" type="curve" smooth="yes"/>
      <point x="834" y="890"/>
      <point x="738" y="798"/>
      <point x="738" y="675" type="curve" smooth="yes"/>
      <point x="738" y="573"/>
      <point x="796" y="489"/>
      <point x="888" y="460" type="curve"/>
      <point x="774" y="434"/>
      <point x="688" y="358"/>
      <point x="688" y="231" type="curve" smooth="yes"/>
      <point x="688" y="78"/>
      <point x="788" y="-19"/>
    </contour>
  </outline>
</glyph>
<glyph name="B.cur" format="2">
  <advance width="894"/>
  <anchor x="491" y="0" name="bottom"/>
  <anchor x="299" y="258" name="center"/>
  <anchor x="491" y="838" name="top"/>
  <outline>
    <contour>
      <point x="545" y="-12" type="curve" smooth="yes"/>
      <point x="696" y="-12"/>
      <point x="818" y="114"/>
      <point x="818" y="274" type="curve" smooth="yes"/>
      <point x="818" y="399"/>
      <point x="728" y="479"/>
      <point x="584" y="480" type="curve"/>
      <point x="584" y="481" type="line"/>
      <point x="695" y="504"/>
      <point x="766" y="580"/>
      <point x="766" y="689" type="curve" smooth="yes"/>
      <point x="766" y="819"/>
      <point x="648" y="890"/>
      <point x="455" y="890" type="curve" smooth="yes"/>
      <point x="316" y="890"/>
      <point x="175" y="850"/>
      <point x="73" y="788" type="curve" smooth="yes"/>
      <point x="64" y="783"/>
      <point x="63" y="775"/>
      <point x="70" y="764" type="curve" smooth="yes"/>
      <point x="78" y="753"/>
      <point x="85" y="751"/>
      <point x="93" y="756" type="curve" smooth="yes"/>
      <point x="186" y="819"/>
      <point x="324" y="854"/>
      <point x="455" y="854" type="curve" smooth="yes"/>
      <point x="624" y="854"/>
      <point x="726" y="796"/>
      <point x="726" y="688" type="curve" smooth="yes"/>
      <point x="726" y="585"/>
      <point x="650" y="514"/>
      <point x="531" y="495" type="curve"/>
      <point x="516" y="501"/>
      <point x="500" y="504"/>
      <point x="481" y="504" type="curve" smooth="yes"/>
      <point x="454" y="504"/>
      <point x="434" y="490"/>
      <point x="434" y="470" type="curve" smooth="yes"/>
      <point x="434" y="454"/>
      <point x="449" y="443"/>
      <point x="473" y="443" type="curve" smooth="yes"/>
      <point x="489" y="443"/>
      <point x="511" y="448"/>
      <point x="533" y="458" type="curve"/>
      <point x="691" y="455"/>
      <point x="776" y="390"/>
      <point x="776" y="271" type="curve" smooth="yes"/>
      <point x="776" y="135"/>
      <point x="673" y="24"/>
      <point x="545" y="24" type="curve" smooth="yes"/>
      <point x="483" y="24"/>
      <point x="435" y="45"/>
      <point x="400" y="90" type="curve" smooth="yes"/>
      <point x="389" y="104"/>
      <point x="384" y="105"/>
      <point x="373" y="96" type="curve" smooth="yes"/>
      <point x="363" y="89"/>
      <point x="363" y="83"/>
      <point x="373" y="68" type="curve" smooth="yes"/>
      <point x="409" y="16"/>
      <point x="471" y="-12"/>
    </contour>
    <contour>
      <point x="214" y="-17" type="curve" smooth="yes"/>
      <point x="280" y="-17"/>
      <point x="318" y="24"/>
      <point x="318" y="103" type="curve" smooth="yes"/>
      <point x="318" y="746" type="line" smooth="yes"/>
      <point x="318" y="756"/>
      <point x="313" y="761"/>
      <point x="300" y="761" type="curve" smooth="yes"/>
      <point x="286" y="761"/>
      <point x="280" y="758"/>
      <point x="280" y="746" type="curve" smooth="yes"/>
      <point x="280" y="114" type="line" smooth="yes"/>
      <point x="280" y="43"/>
      <point x="263" y="19"/>
      <point x="210" y="19" type="curve" smooth="yes"/>
      <point x="158" y="19"/>
      <point x="109" y="61"/>
      <point x="75" y="138" type="curve" smooth="yes"/>
      <point x="71" y="146"/>
      <point x="63" y="148"/>
      <point x="53" y="143" type="curve" smooth="yes"/>
      <point x="43" y="138"/>
      <point x="39" y="133"/>
      <point x="41" y="126" type="curve" smooth="yes"/>
      <point x="80" y="31"/>
      <point x="140" y="-17"/>
    </contour>
  </outline>
</glyph>
<glyph name="F.cur" format="2">
  <advance width="741"/>
  <outline>
    <contour>
      <point x="218" y="-17" type="curve" smooth="yes"/>
      <point x="281" y="-17"/>
      <point x="321" y="24"/>
      <point x="321" y="90" type="curve" smooth="yes"/>
      <point x="321" y="420" type="line"/>
      <point x="643" y="420" type="line" smooth="yes"/>
      <point x="650" y="420"/>
      <point x="654" y="426"/>
      <point x="654" y="438" type="curve" smooth="yes"/>
      <point x="654" y="449"/>
      <point x="650" y="455"/>
      <point x="643" y="455" type="curve" smooth="yes"/>
      <point x="321" y="455" type="line"/>
      <point x="321" y="840" type="line"/>
      <point x="705" y="840" type="line" smooth="yes"/>
      <point x="713" y="840"/>
      <point x="716" y="846"/>
      <point x="716" y="858" type="curve" smooth="yes"/>
      <point x="716" y="869"/>
      <point x="713" y="875"/>
      <point x="705" y="875" type="curve" smooth="yes"/>
      <point x="278" y="875" type="line" smooth="yes"/>
      <point x="174" y="875"/>
      <point x="100" y="834"/>
      <point x="50" y="783" type="curve" smooth="yes"/>
      <point x="40" y="773"/>
      <point x="40" y="764"/>
      <point x="50" y="756" type="curve" smooth="yes"/>
      <point x="61" y="748"/>
      <point x="68" y="749"/>
      <point x="78" y="758" type="curve" smooth="yes"/>
      <point x="121" y="805"/>
      <point x="186" y="841"/>
      <point x="278" y="841" type="curve" smooth="yes"/>
      <point x="284" y="841" type="line"/>
      <point x="284" y="114" type="line" smooth="yes"/>
      <point x="284" y="43"/>
      <point x="266" y="19"/>
      <point x="214" y="19" type="curve" smooth="yes"/>
      <point x="161" y="19"/>
      <point x="113" y="61"/>
      <point x="79" y="138" type="curve" smooth="yes"/>
      <point x="75" y="146"/>
      <point x="66" y="148"/>
      <point x="56" y="143" type="curve" smooth="yes"/>
      <point x="46" y="138"/>
      <point x="43" y="133"/>
      <point x="45" y="126" type="curve" smooth="yes"/>
      <point x="84" y="31"/>
      <point x="144" y="-17"/>
    </contour>
  </outline>
</glyph>
<glyph name="F.cur_locl" format="2">
  <advance width="841"/>
  <outline>
    <contour>
      <point x="248" y="-17" type="curve" smooth="yes"/>
      <point x="449" y="-17"/>
      <point x="651" y="266"/>
      <point x="651" y="576" type="curve" smooth="yes"/>
      <point x="651" y="779"/>
      <point x="566" y="890"/>
      <point x="394" y="890" type="curve" smooth="yes"/>
      <point x="281" y="890"/>
      <point x="180" y="836"/>
      <point x="99" y="770" type="curve" smooth="yes"/>
      <point x="89" y="763"/>
      <point x="88" y="755"/>
      <point x="96" y="745" type="curve" smooth="yes"/>
      <point x="105" y="733"/>
      <point x="114" y="734"/>
      <point x="121" y="740" type="curve" smooth="yes"/>
      <point x="199" y="805"/>
      <point x="300" y="853"/>
      <point x="394" y="853" type="curve" smooth="yes"/>
      <point x="543" y="853"/>
      <point x="610" y="755"/>
      <point x="610" y="576" type="curve" smooth="yes"/>
      <point x="610" y="286"/>
      <point x="421" y="20"/>
      <point x="248" y="20" type="curve" smooth="yes"/>
      <point x="173" y="20"/>
      <point x="134" y="74"/>
      <point x="134" y="153" type="curve" smooth="yes"/>
      <point x="134" y="302"/>
      <point x="193" y="478"/>
      <point x="769" y="567" type="curve"/>
      <point x="769" y="465" type="line" smooth="yes"/>
      <point x="769" y="454"/>
      <point x="775" y="450"/>
      <point x="789" y="450" type="curve" smooth="yes"/>
      <point x="801" y="450"/>
      <point x="806" y="455"/>
      <point x="806" y="465" type="curve" smooth="yes"/>
      <point x="806" y="584" type="line" smooth="yes"/>
      <point x="806" y="598"/>
      <point x="799" y="608"/>
      <point x="786" y="605" type="curve" smooth="yes"/>
      <point x="155" y="508"/>
      <point x="93" y="309"/>
      <point x="93" y="153" type="curve" smooth="yes"/>
      <point x="93" y="53"/>
      <point x="149" y="-17"/>
    </contour>
  </outline>
</glyph>
<glyph name="G.cur" format="2">
  <advance width="863"/>
  <anchor x="606" y="-406" name="bottom"/>
  <anchor x="450" y="838" name="top"/>
  <outline>
    <contour>
      <point x="606" y="-394" type="curve" smooth="yes"/>
      <point x="706" y="-394"/>
      <point x="764" y="-300"/>
      <point x="764" y="-140" type="curve" smooth="yes"/>
      <point x="764" y="459" type="line" smooth="yes"/>
      <point x="764" y="470"/>
      <point x="759" y="474"/>
      <point x="745" y="474" type="curve" smooth="yes"/>
      <point x="731" y="474"/>
      <point x="726" y="470"/>
      <point x="726" y="458" type="curve"/>
      <point x="669" y="203"/>
      <point x="523" y="49"/>
      <point x="370" y="49" type="curve" smooth="yes"/>
      <point x="219" y="49"/>
      <point x="135" y="179"/>
      <point x="135" y="404" type="curve" smooth="yes"/>
      <point x="135" y="674"/>
      <point x="265" y="853"/>
      <point x="471" y="853" type="curve" smooth="yes"/>
      <point x="575" y="853"/>
      <point x="648" y="814"/>
      <point x="716" y="765" type="curve" smooth="yes"/>
      <point x="728" y="756"/>
      <point x="735" y="756"/>
      <point x="744" y="765" type="curve" smooth="yes"/>
      <point x="754" y="775"/>
      <point x="753" y="785"/>
      <point x="741" y="794" type="curve" smooth="yes"/>
      <point x="675" y="844"/>
      <point x="590" y="890"/>
      <point x="471" y="890" type="curve" smooth="yes"/>
      <point x="243" y="890"/>
      <point x="94" y="694"/>
      <point x="94" y="404" type="curve" smooth="yes"/>
      <point x="94" y="158"/>
      <point x="193" y="11"/>
      <point x="366" y="11" type="curve" smooth="yes"/>
      <point x="518" y="11"/>
      <point x="658" y="139"/>
      <point x="726" y="350" type="curve"/>
      <point x="726" y="-142" type="line" smooth="yes"/>
      <point x="726" y="-274"/>
      <point x="680" y="-359"/>
      <point x="610" y="-359" type="curve" smooth="yes"/>
      <point x="559" y="-359"/>
      <point x="538" y="-334"/>
      <point x="538" y="-275" type="curve" smooth="yes"/>
      <point x="538" y="-217"/>
      <point x="571" y="-146"/>
      <point x="629" y="-79" type="curve" smooth="yes"/>
      <point x="728" y="33"/>
      <point x="855" y="158"/>
      <point x="931" y="221" type="curve" smooth="yes"/>
      <point x="940" y="229"/>
      <point x="944" y="235"/>
      <point x="936" y="245" type="curve" smooth="yes"/>
      <point x="929" y="255"/>
      <point x="923" y="258"/>
      <point x="911" y="248" type="curve" smooth="yes"/>
      <point x="830" y="180"/>
      <point x="708" y="60"/>
      <point x="619" y="-39" type="curve" smooth="yes"/>
      <point x="535" y="-137"/>
      <point x="498" y="-211"/>
      <point x="498" y="-276" type="curve" smooth="yes"/>
      <point x="498" y="-351"/>
      <point x="538" y="-394"/>
    </contour>
  </outline>
</glyph>
<glyph name="G.cur.ini" format="2">
  <advance width="863"/>
  <anchor x="606" y="-406" name="bottom"/>
  <anchor x="863" y="0" name="cnct"/>
  <anchor x="450" y="838" name="top"/>
  <outline>
    <contour>
      <point x="594" y="-394" type="curve" smooth="yes"/>
      <point x="701" y="-394"/>
      <point x="764" y="-300"/>
      <point x="764" y="-140" type="curve" smooth="yes"/>
      <point x="764" y="459" type="line" smooth="yes"/>
      <point x="764" y="470"/>
      <point x="759" y="474"/>
      <point x="745" y="474" type="curve" smooth="yes"/>
      <point x="731" y="474"/>
      <point x="726" y="470"/>
      <point x="726" y="458" type="curve"/>
      <point x="669" y="203"/>
      <point x="523" y="49"/>
      <point x="370" y="49" type="curve" smooth="yes"/>
      <point x="219" y="49"/>
      <point x="135" y="179"/>
      <point x="135" y="404" type="curve" smooth="yes"/>
      <point x="135" y="674"/>
      <point x="265" y="853"/>
      <point x="471" y="853" type="curve" smooth="yes"/>
      <point x="575" y="853"/>
      <point x="648" y="814"/>
      <point x="716" y="765" type="curve" smooth="yes"/>
      <point x="728" y="756"/>
      <point x="735" y="756"/>
      <point x="744" y="765" type="curve" smooth="yes"/>
      <point x="754" y="775"/>
      <point x="753" y="785"/>
      <point x="741" y="794" type="curve" smooth="yes"/>
      <point x="675" y="844"/>
      <point x="590" y="890"/>
      <point x="471" y="890" type="curve" smooth="yes"/>
      <point x="243" y="890"/>
      <point x="94" y="694"/>
      <point x="94" y="404" type="curve" smooth="yes"/>
      <point x="94" y="158"/>
      <point x="193" y="11"/>
      <point x="366" y="11" type="curve" smooth="yes"/>
      <point x="518" y="11"/>
      <point x="658" y="139"/>
      <point x="726" y="350" type="curve"/>
      <point x="726" y="-142" type="line" smooth="yes"/>
      <point x="726" y="-274"/>
      <point x="675" y="-359"/>
      <point x="598" y="-359" type="curve" smooth="yes"/>
      <point x="538" y="-359"/>
      <point x="513" y="-327"/>
      <point x="513" y="-275" type="curve" smooth="yes"/>
      <point x="513" y="-250"/>
      <point x="473" y="-251"/>
      <point x="473" y="-276" type="curve" smooth="yes"/>
      <point x="473" y="-345"/>
      <point x="518" y="-394"/>
    </contour>
  </outline>
</glyph>
<glyph name="G.cur_locl" format="2">
  <advance width="915"/>
  <anchor x="363" y="0" name="bottom"/>
  <anchor x="450" y="838" name="top"/>
  <outline>
    <contour>
      <point x="559" y="-394" type="curve" smooth="yes"/>
      <point x="656" y="-394"/>
      <point x="715" y="-297"/>
      <point x="715" y="-140" type="curve" smooth="yes"/>
      <point x="715" y="459" type="line" smooth="yes"/>
      <point x="715" y="470"/>
      <point x="710" y="474"/>
      <point x="696" y="474" type="curve" smooth="yes"/>
      <point x="683" y="474"/>
      <point x="678" y="470"/>
      <point x="678" y="458" type="curve"/>
      <point x="624" y="220"/>
      <point x="475" y="49"/>
      <point x="323" y="49" type="curve" smooth="yes"/>
      <point x="215" y="49"/>
      <point x="136" y="116"/>
      <point x="136" y="324" type="curve" smooth="yes"/>
      <point x="136" y="581"/>
      <point x="305" y="853"/>
      <point x="494" y="853" type="curve" smooth="yes"/>
      <point x="546" y="853"/>
      <point x="579" y="823"/>
      <point x="579" y="774" type="curve" smooth="yes"/>
      <point x="579" y="631"/>
      <point x="398" y="409"/>
      <point x="49" y="120" type="curve" smooth="yes"/>
      <point x="39" y="113"/>
      <point x="39" y="106"/>
      <point x="46" y="96" type="curve" smooth="yes"/>
      <point x="54" y="86"/>
      <point x="59" y="85"/>
      <point x="70" y="94" type="curve" smooth="yes"/>
      <point x="428" y="391"/>
      <point x="620" y="615"/>
      <point x="620" y="774" type="curve" smooth="yes"/>
      <point x="620" y="849"/>
      <point x="573" y="890"/>
      <point x="494" y="890" type="curve" smooth="yes"/>
      <point x="280" y="890"/>
      <point x="95" y="601"/>
      <point x="95" y="324" type="curve" smooth="yes"/>
      <point x="95" y="95"/>
      <point x="189" y="11"/>
      <point x="319" y="11" type="curve" smooth="yes"/>
      <point x="469" y="11"/>
      <point x="614" y="154"/>
      <point x="678" y="350" type="curve"/>
      <point x="678" y="-142" type="line" smooth="yes"/>
      <point x="678" y="-277"/>
      <point x="634" y="-359"/>
      <point x="561" y="-359" type="curve" smooth="yes"/>
      <point x="516" y="-359"/>
      <point x="489" y="-324"/>
      <point x="489" y="-266" type="curve" smooth="yes"/>
      <point x="489" y="-154"/>
      <point x="603" y="-26"/>
      <point x="905" y="185" type="curve" smooth="yes"/>
      <point x="915" y="191"/>
      <point x="916" y="199"/>
      <point x="910" y="208" type="curve" smooth="yes"/>
      <point x="904" y="219"/>
      <point x="898" y="221"/>
      <point x="888" y="214" type="curve" smooth="yes"/>
      <point x="579" y="-2"/>
      <point x="449" y="-137"/>
      <point x="449" y="-266" type="curve" smooth="yes"/>
      <point x="449" y="-345"/>
      <point x="491" y="-394"/>
    </contour>
  </outline>
</glyph>
<glyph name="G.cur_ro" format="2">
  <advance width="745"/>
  <anchor x="383" y="0" name="bottom"/>
  <anchor x="373" y="875" name="top"/>
  <outline>
    <contour>
      <point x="356" y="-20" type="curve" smooth="yes"/>
      <point x="523" y="-20"/>
      <point x="627" y="205"/>
      <point x="627" y="522" type="curve" smooth="yes"/>
      <point x="627" y="532"/>
      <point x="623" y="537"/>
      <point x="610" y="537" type="curve" smooth="yes"/>
      <point x="600" y="537"/>
      <point x="595" y="535"/>
      <point x="588" y="528" type="curve" smooth="yes"/>
      <point x="515" y="449"/>
      <point x="407" y="392"/>
      <point x="313" y="392" type="curve" smooth="yes"/>
      <point x="219" y="392"/>
      <point x="171" y="450"/>
      <point x="171" y="545" type="curve" smooth="yes"/>
      <point x="171" y="675"/>
      <point x="284" y="856"/>
      <point x="413" y="856" type="curve" smooth="yes"/>
      <point x="456" y="856"/>
      <point x="487" y="823"/>
      <point x="487" y="778" type="curve" smooth="yes"/>
      <point x="487" y="665"/>
      <point x="328" y="544"/>
      <point x="206" y="544" type="curve" smooth="yes"/>
      <point x="104" y="544"/>
      <point x="64" y="687"/>
      <point x="64" y="854" type="curve" smooth="yes"/>
      <point x="64" y="867"/>
      <point x="55" y="871"/>
      <point x="46" y="871" type="curve" smooth="yes"/>
      <point x="36" y="871"/>
      <point x="27" y="867"/>
      <point x="27" y="854" type="curve" smooth="yes"/>
      <point x="27" y="664"/>
      <point x="80" y="508"/>
      <point x="206" y="508" type="curve" smooth="yes"/>
      <point x="350" y="508"/>
      <point x="525" y="645"/>
      <point x="525" y="780" type="curve" smooth="yes"/>
      <point x="525" y="846"/>
      <point x="478" y="893"/>
      <point x="413" y="893" type="curve" smooth="yes"/>
      <point x="262" y="893"/>
      <point x="133" y="697"/>
      <point x="133" y="545" type="curve" smooth="yes"/>
      <point x="133" y="416"/>
      <point x="212" y="355"/>
      <point x="312" y="355" type="curve" smooth="yes"/>
      <point x="401" y="355"/>
      <point x="507" y="403"/>
      <point x="589" y="481" type="curve"/>
      <point x="584" y="212"/>
      <point x="488" y="17"/>
      <point x="360" y="17" type="curve" smooth="yes"/>
      <point x="308" y="17"/>
      <point x="256" y="46"/>
      <point x="209" y="127" type="curve" smooth="yes"/>
      <point x="203" y="137"/>
      <point x="197" y="143"/>
      <point x="185" y="138" type="curve" smooth="yes"/>
      <point x="174" y="133"/>
      <point x="169" y="125"/>
      <point x="175" y="113" type="curve" smooth="yes"/>
      <point x="223" y="21"/>
      <point x="292" y="-20"/>
    </contour>
  </outline>
</glyph>
<glyph name="G.dec" format="2">
  <advance width="1049"/>
  <anchor x="588" y="0" name="bottom"/>
  <anchor x="613" y="838" name="top"/>
  <outline>
    <contour>
      <point x="69" y="-12" type="curve" smooth="yes"/>
      <point x="288" y="-12"/>
      <point x="496" y="388"/>
      <point x="496" y="686" type="curve" smooth="yes"/>
      <point x="496" y="838"/>
      <point x="469" y="890"/>
      <point x="401" y="890" type="curve" smooth="yes"/>
      <point x="323" y="890"/>
      <point x="280" y="788"/>
      <point x="280" y="678" type="curve" smooth="yes"/>
      <point x="280" y="579"/>
      <point x="346" y="529"/>
      <point x="428" y="529" type="curve" smooth="yes"/>
      <point x="576" y="529"/>
      <point x="721" y="616"/>
      <point x="864" y="758" type="curve"/>
      <point x="845" y="754" type="line"/>
      <point x="845" y="711"/>
      <point x="845" y="665"/>
      <point x="845" y="623" type="curve" smooth="yes"/>
      <point x="845" y="204"/>
      <point x="785" y="25"/>
      <point x="608" y="25" type="curve" smooth="yes"/>
      <point x="438" y="25"/>
      <point x="281" y="171"/>
      <point x="164" y="410" type="curve"/>
      <point x="153" y="398" type="line"/>
      <point x="413" y="280"/>
      <point x="686" y="225"/>
      <point x="993" y="225" type="curve" smooth="yes"/>
      <point x="1000" y="225"/>
      <point x="1004" y="234"/>
      <point x="1004" y="245" type="curve" smooth="yes"/>
      <point x="1004" y="258"/>
      <point x="1000" y="263"/>
      <point x="993" y="263" type="curve" smooth="yes"/>
      <point x="695" y="263"/>
      <point x="414" y="321"/>
      <point x="173" y="426" type="curve" smooth="yes"/>
      <point x="166" y="429"/>
      <point x="154" y="433"/>
      <point x="140" y="418" type="curve" smooth="yes"/>
      <point x="128" y="405"/>
      <point x="131" y="390"/>
      <point x="134" y="385" type="curve" smooth="yes"/>
      <point x="250" y="150"/>
      <point x="411" y="-12"/>
      <point x="608" y="-12" type="curve" smooth="yes"/>
      <point x="819" y="-12"/>
      <point x="886" y="185"/>
      <point x="886" y="623" type="curve" smooth="yes"/>
      <point x="886" y="664"/>
      <point x="886" y="710"/>
      <point x="886" y="751" type="curve" smooth="yes"/>
      <point x="886" y="763"/>
      <point x="883" y="774"/>
      <point x="866" y="781" type="curve" smooth="yes"/>
      <point x="849" y="789"/>
      <point x="835" y="780"/>
      <point x="829" y="774" type="curve" smooth="yes"/>
      <point x="703" y="644"/>
      <point x="554" y="564"/>
      <point x="434" y="564" type="curve" smooth="yes"/>
      <point x="369" y="564"/>
      <point x="319" y="599"/>
      <point x="319" y="679" type="curve" smooth="yes"/>
      <point x="319" y="770"/>
      <point x="348" y="855"/>
      <point x="400" y="855" type="curve" smooth="yes"/>
      <point x="439" y="855"/>
      <point x="456" y="814"/>
      <point x="456" y="684" type="curve" smooth="yes"/>
      <point x="456" y="396"/>
      <point x="256" y="25"/>
      <point x="69" y="25" type="curve" smooth="yes"/>
      <point x="55" y="25"/>
      <point x="48" y="19"/>
      <point x="48" y="5" type="curve" smooth="yes"/>
      <point x="48" y="-7"/>
      <point x="54" y="-12"/>
    </contour>
  </outline>
</glyph>
<glyph name="H.cur" format="2">
  <advance width="1033"/>
  <anchor x="523" y="0" name="bottom"/>
  <anchor x="523" y="676" name="center"/>
  <anchor x="523" y="838" name="top"/>
  <outline>
    <contour>
      <point x="218" y="-17" type="curve" smooth="yes"/>
      <point x="290" y="-17"/>
      <point x="334" y="41"/>
      <point x="334" y="136" type="curve" smooth="yes"/>
      <point x="334" y="328" type="line"/>
      <point x="450" y="385"/>
      <point x="593" y="449"/>
      <point x="711" y="504" type="curve"/>
      <point x="711" y="90" type="line" smooth="yes"/>
      <point x="711" y="24"/>
      <point x="750" y="-17"/>
      <point x="811" y="-17" type="curve" smooth="yes"/>
      <point x="881" y="-17"/>
      <point x="941" y="34"/>
      <point x="979" y="126" type="curve" smooth="yes"/>
      <point x="981" y="134"/>
      <point x="978" y="139"/>
      <point x="968" y="143" type="curve" smooth="yes"/>
      <point x="956" y="146"/>
      <point x="949" y="145"/>
      <point x="945" y="138" type="curve" smooth="yes"/>
      <point x="910" y="60"/>
      <point x="866" y="19"/>
      <point x="818" y="19" type="curve" smooth="yes"/>
      <point x="766" y="19"/>
      <point x="749" y="44"/>
      <point x="749" y="114" type="curve" smooth="yes"/>
      <point x="749" y="519" type="line"/>
      <point x="860" y="580"/>
      <point x="923" y="671"/>
      <point x="923" y="771" type="curve" smooth="yes"/>
      <point x="923" y="843"/>
      <point x="885" y="890"/>
      <point x="828" y="890" type="curve" smooth="yes"/>
      <point x="755" y="890"/>
      <point x="711" y="831"/>
      <point x="711" y="736" type="curve" smooth="yes"/>
      <point x="711" y="548" type="line"/>
      <point x="585" y="484"/>
      <point x="450" y="423"/>
      <point x="334" y="368" type="curve"/>
      <point x="334" y="783" type="line" smooth="yes"/>
      <point x="334" y="856"/>
      <point x="310" y="890"/>
      <point x="256" y="890" type="curve" smooth="yes"/>
      <point x="190" y="890"/>
      <point x="115" y="831"/>
      <point x="69" y="716" type="curve" smooth="yes"/>
      <point x="65" y="706"/>
      <point x="66" y="699"/>
      <point x="78" y="694" type="curve" smooth="yes"/>
      <point x="90" y="689"/>
      <point x="98" y="691"/>
      <point x="101" y="700" type="curve" smooth="yes"/>
      <point x="146" y="805"/>
      <point x="206" y="855"/>
      <point x="251" y="855" type="curve" smooth="yes"/>
      <point x="285" y="855"/>
      <point x="296" y="835"/>
      <point x="296" y="784" type="curve" smooth="yes"/>
      <point x="296" y="354" type="line"/>
      <point x="185" y="293"/>
      <point x="123" y="201"/>
      <point x="123" y="101" type="curve" smooth="yes"/>
      <point x="123" y="30"/>
      <point x="160" y="-17"/>
    </contour>
    <contour>
      <point x="219" y="20" type="curve" smooth="yes"/>
      <point x="184" y="20"/>
      <point x="163" y="51"/>
      <point x="163" y="105" type="curve" smooth="yes"/>
      <point x="163" y="186"/>
      <point x="214" y="266"/>
      <point x="296" y="311" type="curve"/>
      <point x="296" y="150" type="line" smooth="yes"/>
      <point x="296" y="70"/>
      <point x="268" y="20"/>
    </contour>
    <contour>
      <point x="749" y="561" type="curve"/>
      <point x="749" y="723" type="line" smooth="yes"/>
      <point x="749" y="803"/>
      <point x="778" y="853"/>
      <point x="826" y="853" type="curve" smooth="yes"/>
      <point x="861" y="853"/>
      <point x="883" y="821"/>
      <point x="883" y="768" type="curve" smooth="yes"/>
      <point x="883" y="686"/>
      <point x="831" y="606"/>
    </contour>
  </outline>
</glyph>
<glyph name="I.cur.ini" format="2">
  <advance width="985"/>
  <anchor x="673" y="0" name="bottom"/>
  <anchor x="985" y="0" name="cnct"/>
  <anchor x="489" y="-5" name="ogonek"/>
  <anchor x="673" y="838" name="top"/>
  <outline>
    <contour>
      <point x="409" y="-17" type="curve" smooth="yes"/>
      <point x="679" y="-17"/>
      <point x="854" y="332"/>
      <point x="854" y="614" type="curve" smooth="yes"/>
      <point x="854" y="778"/>
      <point x="791" y="890"/>
      <point x="669" y="890" type="curve" smooth="yes"/>
      <point x="554" y="890"/>
      <point x="499" y="791"/>
      <point x="499" y="631" type="curve" smooth="yes"/>
      <point x="499" y="308"/>
      <point x="690" y="-17"/>
      <point x="883" y="-17" type="curve" smooth="yes"/>
      <point x="903" y="-17"/>
      <point x="903" y="18"/>
      <point x="883" y="18" type="curve" smooth="yes"/>
      <point x="714" y="18"/>
      <point x="540" y="328"/>
      <point x="540" y="631" type="curve" smooth="yes"/>
      <point x="540" y="769"/>
      <point x="579" y="853"/>
      <point x="669" y="853" type="curve" smooth="yes"/>
      <point x="766" y="853"/>
      <point x="813" y="745"/>
      <point x="813" y="614" type="curve" smooth="yes"/>
      <point x="813" y="339"/>
      <point x="643" y="20"/>
      <point x="409" y="20" type="curve" smooth="yes"/>
      <point x="281" y="20"/>
      <point x="188" y="110"/>
      <point x="128" y="250" type="curve"/>
      <point x="211" y="233"/>
      <point x="290" y="225"/>
      <point x="393" y="225" type="curve" smooth="yes"/>
      <point x="400" y="225"/>
      <point x="405" y="234"/>
      <point x="405" y="245" type="curve" smooth="yes"/>
      <point x="405" y="258"/>
      <point x="400" y="263"/>
      <point x="393" y="263" type="curve" smooth="yes"/>
      <point x="290" y="263"/>
      <point x="208" y="270"/>
      <point x="129" y="289" type="curve" smooth="yes"/>
      <point x="123" y="290"/>
      <point x="109" y="295"/>
      <point x="95" y="283" type="curve" smooth="yes"/>
      <point x="81" y="270"/>
      <point x="84" y="254"/>
      <point x="86" y="249" type="curve" smooth="yes"/>
      <point x="149" y="89"/>
      <point x="258" y="-17"/>
    </contour>
  </outline>
</glyph>
<glyph name="I.dec" format="2">
  <advance width="549"/>
  <anchor x="260" y="0" name="bottom"/>
  <anchor x="327" y="-5" name="ogonek"/>
  <anchor x="260" y="838" name="top"/>
  <outline>
    <contour>
      <point x="265" y="-17" type="curve" smooth="yes"/>
      <point x="349" y="-17"/>
      <point x="404" y="38"/>
      <point x="404" y="124" type="curve" smooth="yes"/>
      <point x="404" y="873" type="line" smooth="yes"/>
      <point x="404" y="883"/>
      <point x="398" y="888"/>
      <point x="386" y="888" type="curve" smooth="yes"/>
      <point x="376" y="888"/>
      <point x="370" y="884"/>
      <point x="363" y="876" type="curve"/>
      <point x="346" y="861"/>
      <point x="328" y="846"/>
      <point x="304" y="846" type="curve" smooth="yes"/>
      <point x="264" y="846"/>
      <point x="256" y="880"/>
      <point x="206" y="880" type="curve" smooth="yes"/>
      <point x="149" y="880"/>
      <point x="106" y="835"/>
      <point x="66" y="779" type="curve" smooth="yes"/>
      <point x="61" y="771"/>
      <point x="60" y="764"/>
      <point x="73" y="755" type="curve" smooth="yes"/>
      <point x="84" y="748"/>
      <point x="93" y="749"/>
      <point x="98" y="756" type="curve" smooth="yes"/>
      <point x="130" y="804"/>
      <point x="165" y="846"/>
      <point x="208" y="846" type="curve" smooth="yes"/>
      <point x="238" y="846"/>
      <point x="249" y="813"/>
      <point x="296" y="813" type="curve" smooth="yes"/>
      <point x="325" y="813"/>
      <point x="346" y="824"/>
      <point x="366" y="840" type="curve"/>
      <point x="366" y="126" type="line" smooth="yes"/>
      <point x="366" y="56"/>
      <point x="330" y="19"/>
      <point x="264" y="19" type="curve" smooth="yes"/>
      <point x="200" y="19"/>
      <point x="145" y="59"/>
      <point x="105" y="138" type="curve" smooth="yes"/>
      <point x="100" y="146"/>
      <point x="93" y="148"/>
      <point x="83" y="143" type="curve" smooth="yes"/>
      <point x="74" y="138"/>
      <point x="70" y="131"/>
      <point x="73" y="124" type="curve" smooth="yes"/>
      <point x="115" y="29"/>
      <point x="178" y="-17"/>
    </contour>
  </outline>
</glyph>
<glyph name="IJ.cur" format="2">
  <advance width="750"/>
  <guideline x="296" y="697" angle="90"/>
  <anchor x="251" y="0" name="bottom"/>
  <anchor x="370" y="838" name="top"/>
  <outline>
    <contour>
      <point x="459" y="-394" type="curve" smooth="yes"/>
      <point x="551" y="-394"/>
      <point x="601" y="-309"/>
      <point x="601" y="-152" type="curve" smooth="yes"/>
      <point x="601" y="871" type="line"/>
      <point x="601" y="883"/>
      <point x="596" y="888"/>
      <point x="583" y="888" type="curve" smooth="yes"/>
      <point x="569" y="888"/>
      <point x="564" y="883"/>
      <point x="564" y="871" type="curve" smooth="yes"/>
      <point x="564" y="513" type="line"/>
      <point x="531" y="248"/>
      <point x="431" y="86"/>
      <point x="298" y="86" type="curve" smooth="yes"/>
      <point x="216" y="86"/>
      <point x="175" y="138"/>
      <point x="175" y="241" type="curve" smooth="yes"/>
      <point x="175" y="871" type="line" smooth="yes"/>
      <point x="175" y="883"/>
      <point x="170" y="888"/>
      <point x="156" y="888" type="curve" smooth="yes"/>
      <point x="143" y="888"/>
      <point x="138" y="883"/>
      <point x="138" y="871" type="curve" smooth="yes"/>
      <point x="138" y="234" type="line" smooth="yes"/>
      <point x="138" y="115"/>
      <point x="194" y="51"/>
      <point x="295" y="51" type="curve" smooth="yes"/>
      <point x="418" y="51"/>
      <point x="521" y="170"/>
      <point x="564" y="354" type="curve"/>
      <point x="564" y="-155" type="line" smooth="yes"/>
      <point x="564" y="-282"/>
      <point x="526" y="-357"/>
      <point x="463" y="-357" type="curve" smooth="yes"/>
      <point x="418" y="-357"/>
      <point x="400" y="-335"/>
      <point x="400" y="-277" type="curve" smooth="yes"/>
      <point x="400" y="-222"/>
      <point x="433" y="-156"/>
      <point x="491" y="-85" type="curve" smooth="yes"/>
      <point x="611" y="49"/>
      <point x="726" y="170"/>
      <point x="770" y="209" type="curve" smooth="yes"/>
      <point x="779" y="216"/>
      <point x="783" y="223"/>
      <point x="775" y="233" type="curve" smooth="yes"/>
      <point x="768" y="243"/>
      <point x="761" y="245"/>
      <point x="750" y="235" type="curve" smooth="yes"/>
      <point x="705" y="195"/>
      <point x="594" y="80"/>
      <point x="481" y="-45" type="curve" smooth="yes"/>
      <point x="398" y="-144"/>
      <point x="360" y="-216"/>
      <point x="360" y="-279" type="curve" smooth="yes"/>
      <point x="360" y="-351"/>
      <point x="396" y="-394"/>
    </contour>
  </outline>
</glyph>
<glyph name="I_locl" format="2">
  <advance width="375"/>
  <anchor x="188" y="0" name="bottom"/>
  <anchor x="216" y="13" name="ogonek"/>
  <anchor x="188" y="838" name="top"/>
  <outline>
    <contour>
      <point x="31" y="0" type="curve" smooth="yes"/>
      <point x="344" y="0" type="line" smooth="yes"/>
      <point x="350" y="0"/>
      <point x="355" y="6"/>
      <point x="355" y="19" type="curve" smooth="yes"/>
      <point x="355" y="31"/>
      <point x="350" y="35"/>
      <point x="344" y="35" type="curve" smooth="yes"/>
      <point x="206" y="35" type="line"/>
      <point x="206" y="840" type="line"/>
      <point x="344" y="840" type="line" smooth="yes"/>
      <point x="350" y="840"/>
      <point x="355" y="846"/>
      <point x="355" y="859" type="curve" smooth="yes"/>
      <point x="355" y="871"/>
      <point x="350" y="875"/>
      <point x="344" y="875" type="curve" smooth="yes"/>
      <point x="31" y="875" type="line" smooth="yes"/>
      <point x="25" y="875"/>
      <point x="20" y="870"/>
      <point x="20" y="858" type="curve" smooth="yes"/>
      <point x="20" y="845"/>
      <point x="25" y="840"/>
      <point x="31" y="840" type="curve" smooth="yes"/>
      <point x="169" y="840" type="line"/>
      <point x="169" y="35" type="line"/>
      <point x="31" y="35" type="line" smooth="yes"/>
      <point x="25" y="35"/>
      <point x="20" y="30"/>
      <point x="20" y="18" type="curve" smooth="yes"/>
      <point x="20" y="5"/>
      <point x="25" y="0"/>
    </contour>
  </outline>
</glyph>
<glyph name="J.cur" format="2">
  <advance width="761"/>
  <anchor x="396" y="-406" name="bottom"/>
  <anchor x="331" y="838" name="top"/>
  <outline>
    <contour>
      <point x="380" y="-394" type="curve" smooth="yes"/>
      <point x="473" y="-394"/>
      <point x="538" y="-309"/>
      <point x="538" y="-140" type="curve" smooth="yes"/>
      <point x="538" y="46" type="line"/>
      <point x="591" y="88"/>
      <point x="654" y="134"/>
      <point x="730" y="185" type="curve" smooth="yes"/>
      <point x="740" y="191"/>
      <point x="741" y="199"/>
      <point x="735" y="208" type="curve" smooth="yes"/>
      <point x="729" y="219"/>
      <point x="724" y="220"/>
      <point x="713" y="214" type="curve"/>
      <point x="646" y="169"/>
      <point x="588" y="127"/>
      <point x="538" y="89" type="curve"/>
      <point x="538" y="666" type="line" smooth="yes"/>
      <point x="538" y="821"/>
      <point x="490" y="890"/>
      <point x="370" y="890" type="curve" smooth="yes"/>
      <point x="220" y="890"/>
      <point x="103" y="751"/>
      <point x="103" y="585" type="curve" smooth="yes"/>
      <point x="103" y="383"/>
      <point x="188" y="266"/>
      <point x="351" y="118" type="curve" smooth="yes"/>
      <point x="360" y="109"/>
      <point x="370" y="110"/>
      <point x="380" y="121" type="curve" smooth="yes"/>
      <point x="388" y="131"/>
      <point x="390" y="139"/>
      <point x="378" y="149" type="curve" smooth="yes"/>
      <point x="233" y="275"/>
      <point x="144" y="396"/>
      <point x="144" y="585" type="curve" smooth="yes"/>
      <point x="144" y="731"/>
      <point x="240" y="853"/>
      <point x="370" y="853" type="curve" smooth="yes"/>
      <point x="463" y="853"/>
      <point x="500" y="789"/>
      <point x="500" y="666" type="curve" smooth="yes"/>
      <point x="500" y="59" type="line"/>
      <point x="339" y="-71"/>
      <point x="273" y="-166"/>
      <point x="273" y="-270" type="curve" smooth="yes"/>
      <point x="273" y="-347"/>
      <point x="311" y="-394"/>
    </contour>
    <contour>
      <point x="384" y="-359" type="curve" smooth="yes"/>
      <point x="336" y="-359"/>
      <point x="313" y="-329"/>
      <point x="313" y="-270" type="curve" smooth="yes"/>
      <point x="313" y="-180"/>
      <point x="365" y="-97"/>
      <point x="500" y="16" type="curve"/>
      <point x="500" y="-142" type="line" smooth="yes"/>
      <point x="500" y="-281"/>
      <point x="450" y="-359"/>
    </contour>
  </outline>
</glyph>
<glyph name="J.cur.ini" format="2">
  <advance width="663"/>
  <anchor x="396" y="-406" name="bottom"/>
  <anchor x="663" y="0" name="cnct"/>
  <anchor x="331" y="838" name="top"/>
  <outline>
    <contour>
      <point x="380" y="-394" type="curve" smooth="yes"/>
      <point x="473" y="-394"/>
      <point x="538" y="-309"/>
      <point x="538" y="-140" type="curve" smooth="yes"/>
      <point x="538" y="666" type="line" smooth="yes"/>
      <point x="538" y="821"/>
      <point x="490" y="890"/>
      <point x="370" y="890" type="curve" smooth="yes"/>
      <point x="220" y="890"/>
      <point x="103" y="751"/>
      <point x="103" y="585" type="curve" smooth="yes"/>
      <point x="103" y="383"/>
      <point x="188" y="266"/>
      <point x="351" y="118" type="curve" smooth="yes"/>
      <point x="360" y="109"/>
      <point x="370" y="110"/>
      <point x="380" y="121" type="curve" smooth="yes"/>
      <point x="388" y="131"/>
      <point x="390" y="139"/>
      <point x="378" y="149" type="curve" smooth="yes"/>
      <point x="233" y="275"/>
      <point x="144" y="396"/>
      <point x="144" y="585" type="curve" smooth="yes"/>
      <point x="144" y="731"/>
      <point x="240" y="853"/>
      <point x="370" y="853" type="curve" smooth="yes"/>
      <point x="463" y="853"/>
      <point x="500" y="789"/>
      <point x="500" y="666" type="curve" smooth="yes"/>
      <point x="500" y="-142" type="line" smooth="yes"/>
      <point x="500" y="-281"/>
      <point x="450" y="-359"/>
      <point x="384" y="-359" type="curve" smooth="yes"/>
      <point x="336" y="-359"/>
      <point x="313" y="-329"/>
      <point x="313" y="-270" type="curve" smooth="yes"/>
      <point x="313" y="-245"/>
      <point x="273" y="-245"/>
      <point x="273" y="-270" type="curve" smooth="yes"/>
      <point x="273" y="-347"/>
      <point x="311" y="-394"/>
    </contour>
  </outline>
</glyph>
<glyph name="L.cur.ini" format="2">
  <advance width="733"/>
  <anchor x="550" y="463" name="CAT"/>
  <anchor x="465" y="0" name="bottom"/>
  <anchor x="251" y="450" name="center"/>
  <anchor x="733" y="0" name="cnct"/>
  <anchor x="415" y="838" name="top"/>
  <anchor x="590" y="875" name="topright"/>
  <outline>
    <contour>
      <point x="126" y="-21" type="curve" smooth="yes"/>
      <point x="216" y="-21"/>
      <point x="270" y="70"/>
      <point x="270" y="224" type="curve" smooth="yes"/>
      <point x="270" y="619" type="line" smooth="yes"/>
      <point x="270" y="833"/>
      <point x="351" y="856"/>
      <point x="409" y="856" type="curve" smooth="yes"/>
      <point x="480" y="856"/>
      <point x="551" y="805"/>
      <point x="591" y="729" type="curve" smooth="yes"/>
      <point x="598" y="718"/>
      <point x="604" y="716"/>
      <point x="613" y="720" type="curve" smooth="yes"/>
      <point x="623" y="724"/>
      <point x="628" y="730"/>
      <point x="621" y="743" type="curve" smooth="yes"/>
      <point x="581" y="830"/>
      <point x="499" y="890"/>
      <point x="415" y="890" type="curve" smooth="yes"/>
      <point x="341" y="890"/>
      <point x="233" y="859"/>
      <point x="233" y="629" type="curve" smooth="yes"/>
      <point x="233" y="224" type="line" smooth="yes"/>
      <point x="233" y="91"/>
      <point x="194" y="13"/>
      <point x="130" y="13" type="curve" smooth="yes"/>
      <point x="103" y="13"/>
      <point x="79" y="30"/>
      <point x="79" y="60" type="curve" smooth="yes"/>
      <point x="79" y="91"/>
      <point x="111" y="105"/>
      <point x="159" y="105" type="curve" smooth="yes"/>
      <point x="311" y="105"/>
      <point x="506" y="-17"/>
      <point x="630" y="-17" type="curve" smooth="yes"/>
      <point x="658" y="-17"/>
      <point x="658" y="18"/>
      <point x="630" y="18" type="curve" smooth="yes"/>
      <point x="510" y="18"/>
      <point x="326" y="140"/>
      <point x="159" y="140" type="curve" smooth="yes"/>
      <point x="84" y="140"/>
      <point x="39" y="109"/>
      <point x="39" y="55" type="curve" smooth="yes"/>
      <point x="39" y="4"/>
      <point x="81" y="-21"/>
    </contour>
  </outline>
</glyph>
<glyph name="M.cur" format="2">
  <advance width="1301"/>
  <guideline y="656"/>
  <anchor x="651" y="0" name="bottom"/>
  <anchor x="701" y="838" name="top"/>
  <outline>
    <contour>
      <point x="1126" y="-17" type="curve" smooth="yes"/>
      <point x="1189" y="-17"/>
      <point x="1244" y="34"/>
      <point x="1281" y="126" type="curve" smooth="yes"/>
      <point x="1284" y="134"/>
      <point x="1280" y="139"/>
      <point x="1270" y="143" type="curve" smooth="yes"/>
      <point x="1259" y="146"/>
      <point x="1251" y="145"/>
      <point x="1248" y="138" type="curve" smooth="yes"/>
      <point x="1213" y="59"/>
      <point x="1174" y="19"/>
      <point x="1133" y="19" type="curve" smooth="yes"/>
      <point x="1089" y="19"/>
      <point x="1074" y="44"/>
      <point x="1074" y="114" type="curve" smooth="yes"/>
      <point x="1074" y="708" type="line" smooth="yes"/>
      <point x="1074" y="829"/>
      <point x="1026" y="890"/>
      <point x="934" y="890" type="curve" smooth="yes"/>
      <point x="817" y="890"/>
      <point x="717" y="770"/>
      <point x="675" y="589" type="curve"/>
      <point x="675" y="629"/>
      <point x="675" y="668"/>
      <point x="675" y="708" type="curve" smooth="yes"/>
      <point x="675" y="829"/>
      <point x="628" y="890"/>
      <point x="535" y="890" type="curve" smooth="yes"/>
      <point x="418" y="890"/>
      <point x="317" y="769"/>
      <point x="276" y="586" type="curve"/>
      <point x="276" y="652"/>
      <point x="276" y="717"/>
      <point x="276" y="783" type="curve" smooth="yes"/>
      <point x="276" y="856"/>
      <point x="251" y="890"/>
      <point x="198" y="890" type="curve" smooth="yes"/>
      <point x="131" y="890"/>
      <point x="74" y="831"/>
      <point x="28" y="716" type="curve" smooth="yes"/>
      <point x="24" y="706"/>
      <point x="28" y="699"/>
      <point x="36" y="694" type="curve" smooth="yes"/>
      <point x="46" y="689"/>
      <point x="56" y="691"/>
      <point x="60" y="700" type="curve" smooth="yes"/>
      <point x="105" y="805"/>
      <point x="148" y="855"/>
      <point x="193" y="855" type="curve" smooth="yes"/>
      <point x="226" y="855"/>
      <point x="239" y="835"/>
      <point x="239" y="784" type="curve" smooth="yes"/>
      <point x="239" y="1" type="line" smooth="yes"/>
      <point x="239" y="-10"/>
      <point x="244" y="-15"/>
      <point x="258" y="-15" type="curve" smooth="yes"/>
      <point x="271" y="-15"/>
      <point x="276" y="-10"/>
      <point x="276" y="1" type="curve" smooth="yes"/>
      <point x="276" y="427.994" type="line"/>
      <point x="306" y="692"/>
      <point x="404" y="855"/>
      <point x="531" y="855" type="curve" smooth="yes"/>
      <point x="605" y="855"/>
      <point x="638" y="808"/>
      <point x="638" y="700" type="curve" smooth="yes"/>
      <point x="638" y="1" type="line" smooth="yes"/>
      <point x="638" y="-10"/>
      <point x="643" y="-15"/>
      <point x="656" y="-15" type="curve" smooth="yes"/>
      <point x="670" y="-15"/>
      <point x="675" y="-10"/>
      <point x="675" y="1" type="curve" smooth="yes"/>
      <point x="675" y="427.997" type="line"/>
      <point x="705" y="692"/>
      <point x="802" y="855"/>
      <point x="930" y="855" type="curve" smooth="yes"/>
      <point x="1004" y="855"/>
      <point x="1036" y="808"/>
      <point x="1036" y="700" type="curve" smooth="yes"/>
      <point x="1036" y="90" type="line" smooth="yes"/>
      <point x="1036" y="24"/>
      <point x="1070" y="-17"/>
    </contour>
  </outline>
</glyph>
<glyph name="M.dec.ini" format="2">
  <advance width="1325"/>
  <anchor x="704" y="0" name="bottom"/>
  <anchor x="1325" y="0" name="cnct"/>
  <anchor x="739" y="838" name="top"/>
  <outline>
    <contour>
      <point x="184" y="-17" type="curve" smooth="yes"/>
      <point x="286" y="-17"/>
      <point x="353" y="80"/>
      <point x="496" y="829" type="curve"/>
      <point x="543" y="558"/>
      <point x="609" y="290"/>
      <point x="691" y="5" type="curve" smooth="yes"/>
      <point x="696" y="-10"/>
      <point x="701" y="-17"/>
      <point x="716" y="-17" type="curve" smooth="yes"/>
      <point x="731" y="-17"/>
      <point x="739" y="-9"/>
      <point x="743" y="5" type="curve" smooth="yes"/>
      <point x="994" y="816" type="line"/>
      <point x="1071" y="70"/>
      <point x="1125" y="-17"/>
      <point x="1216" y="-17" type="curve" smooth="yes"/>
      <point x="1236" y="-17"/>
      <point x="1235" y="18"/>
      <point x="1215" y="18" type="curve" smooth="yes"/>
      <point x="1151" y="18"/>
      <point x="1110" y="110"/>
      <point x="1023" y="864" type="curve" smooth="yes"/>
      <point x="1020" y="879"/>
      <point x="1013" y="886"/>
      <point x="998" y="886" type="curve" smooth="yes"/>
      <point x="983" y="886"/>
      <point x="976" y="878"/>
      <point x="971" y="864" type="curve" smooth="yes"/>
      <point x="718" y="43" type="line"/>
      <point x="635" y="330"/>
      <point x="570" y="593"/>
      <point x="523" y="864" type="curve" smooth="yes"/>
      <point x="520" y="879"/>
      <point x="513" y="886"/>
      <point x="498" y="886" type="curve" smooth="yes"/>
      <point x="483" y="886"/>
      <point x="474" y="878"/>
      <point x="471" y="864" type="curve" smooth="yes"/>
      <point x="321" y="133"/>
      <point x="266" y="20"/>
      <point x="184" y="20" type="curve" smooth="yes"/>
      <point x="141" y="20"/>
      <point x="121" y="61"/>
      <point x="121" y="120" type="curve" smooth="yes"/>
      <point x="121" y="158"/>
      <point x="130" y="203"/>
      <point x="146" y="248" type="curve"/>
      <point x="151" y="258"/>
      <point x="149" y="264"/>
      <point x="136" y="269" type="curve" smooth="yes"/>
      <point x="125" y="274"/>
      <point x="118" y="271"/>
      <point x="113" y="259" type="curve" smooth="yes"/>
      <point x="94" y="206"/>
      <point x="85" y="158"/>
      <point x="85" y="116" type="curve" smooth="yes"/>
      <point x="85" y="36"/>
      <point x="120" y="-17"/>
    </contour>
  </outline>
</glyph>
<glyph name="M_locl.au" format="2">
  <advance width="1050"/>
  <anchor x="525" y="0" name="bottom"/>
  <anchor x="525" y="838" name="top"/>
  <outline>
    <contour>
      <point x="169" y="-14" type="curve" smooth="yes"/>
      <point x="183" y="-14"/>
      <point x="188" y="-10"/>
      <point x="188" y="1" type="curve" smooth="yes"/>
      <point x="188" y="813" type="line"/>
      <point x="499" y="18" type="line" smooth="yes"/>
      <point x="504" y="4"/>
      <point x="514" y="0"/>
      <point x="525" y="0" type="curve" smooth="yes"/>
      <point x="535" y="0"/>
      <point x="546" y="4"/>
      <point x="551" y="18" type="curve" smooth="yes"/>
      <point x="863" y="813" type="line"/>
      <point x="863" y="1" type="line" smooth="yes"/>
      <point x="863" y="-10"/>
      <point x="868" y="-14"/>
      <point x="881" y="-14" type="curve" smooth="yes"/>
      <point x="895" y="-14"/>
      <point x="900" y="-10"/>
      <point x="900" y="1" type="curve" smooth="yes"/>
      <point x="900" y="875" type="line" smooth="yes"/>
      <point x="900" y="886"/>
      <point x="893" y="890"/>
      <point x="879" y="890" type="curve" smooth="yes"/>
      <point x="863" y="890"/>
      <point x="855" y="889"/>
      <point x="850" y="878" type="curve" smooth="yes"/>
      <point x="525" y="48" type="line"/>
      <point x="199" y="878" type="line" smooth="yes"/>
      <point x="194" y="889"/>
      <point x="186" y="890"/>
      <point x="173" y="890" type="curve" smooth="yes"/>
      <point x="159" y="890"/>
      <point x="150" y="886"/>
      <point x="150" y="875" type="curve" smooth="yes"/>
      <point x="150" y="1" type="line" smooth="yes"/>
      <point x="150" y="-10"/>
      <point x="155" y="-14"/>
    </contour>
  </outline>
</glyph>
<glyph name="N.cur" format="2">
  <advance width="965"/>
  <anchor x="483" y="0" name="bottom"/>
  <anchor x="478" y="838" name="top"/>
  <outline>
    <contour>
      <point x="790" y="-17" type="curve" smooth="yes"/>
      <point x="853" y="-17"/>
      <point x="908" y="34"/>
      <point x="945" y="126" type="curve" smooth="yes"/>
      <point x="948" y="134"/>
      <point x="944" y="139"/>
      <point x="934" y="143" type="curve" smooth="yes"/>
      <point x="923" y="146"/>
      <point x="915" y="145"/>
      <point x="911" y="138" type="curve"/>
      <point x="876" y="59"/>
      <point x="838" y="19"/>
      <point x="796" y="19" type="curve" smooth="yes"/>
      <point x="753" y="19"/>
      <point x="738" y="43"/>
      <point x="738" y="114" type="curve" smooth="yes"/>
      <point x="738" y="708" type="line" smooth="yes"/>
      <point x="738" y="829"/>
      <point x="683" y="890"/>
      <point x="576" y="890" type="curve" smooth="yes"/>
      <point x="439" y="890"/>
      <point x="322" y="766"/>
      <point x="276" y="579" type="curve"/>
      <point x="276" y="783" type="line" smooth="yes"/>
      <point x="276" y="856"/>
      <point x="251" y="890"/>
      <point x="198" y="890" type="curve" smooth="yes"/>
      <point x="131" y="890"/>
      <point x="74" y="831"/>
      <point x="28" y="716" type="curve" smooth="yes"/>
      <point x="24" y="706"/>
      <point x="28" y="699"/>
      <point x="36" y="694" type="curve" smooth="yes"/>
      <point x="46" y="689"/>
      <point x="56" y="691"/>
      <point x="60" y="700" type="curve" smooth="yes"/>
      <point x="105" y="805"/>
      <point x="148" y="855"/>
      <point x="193" y="855" type="curve" smooth="yes"/>
      <point x="226" y="855"/>
      <point x="239" y="835"/>
      <point x="239" y="784" type="curve" smooth="yes"/>
      <point x="239" y="1" type="line" smooth="yes"/>
      <point x="239" y="-10"/>
      <point x="244" y="-15"/>
      <point x="258" y="-15" type="curve" smooth="yes"/>
      <point x="271" y="-15"/>
      <point x="276" y="-10"/>
      <point x="276" y="1" type="curve" smooth="yes"/>
      <point x="276" y="427" type="line"/>
      <point x="311" y="691"/>
      <point x="425" y="855"/>
      <point x="575" y="855" type="curve" smooth="yes"/>
      <point x="661" y="855"/>
      <point x="700" y="808"/>
      <point x="700" y="700" type="curve" smooth="yes"/>
      <point x="700" y="109" type="line" smooth="yes"/>
      <point x="700" y="24"/>
      <point x="728" y="-17"/>
    </contour>
  </outline>
</glyph>
<glyph name="O.cur" format="2">
  <advance width="929"/>
  <anchor x="463" y="0" name="bottom"/>
  <anchor x="463" y="438" name="center"/>
  <anchor x="591" y="6" name="ogonek"/>
  <anchor x="463" y="838" name="top"/>
  <anchor x="615" y="875" name="topright"/>
  <outline>
    <contour>
      <point x="459" y="-19" type="curve" smooth="yes"/>
      <point x="680" y="-19"/>
      <point x="833" y="171"/>
      <point x="833" y="448" type="curve" smooth="yes"/>
      <point x="833" y="719"/>
      <point x="719" y="890"/>
      <point x="540" y="890" type="curve" smooth="yes"/>
      <point x="414" y="890"/>
      <point x="309" y="810"/>
      <point x="249" y="666" type="curve" smooth="yes"/>
      <point x="244" y="654"/>
      <point x="245" y="646"/>
      <point x="255" y="640" type="curve" smooth="yes"/>
      <point x="265" y="634"/>
      <point x="276" y="636"/>
      <point x="280" y="646" type="curve" smooth="yes"/>
      <point x="336" y="783"/>
      <point x="425" y="854"/>
      <point x="540" y="854" type="curve" smooth="yes"/>
      <point x="693" y="854"/>
      <point x="791" y="694"/>
      <point x="791" y="448" type="curve" smooth="yes"/>
      <point x="791" y="194"/>
      <point x="656" y="19"/>
      <point x="459" y="19" type="curve" smooth="yes"/>
      <point x="265" y="19"/>
      <point x="136" y="185"/>
      <point x="136" y="436" type="curve" smooth="yes"/>
      <point x="136" y="590"/>
      <point x="189" y="724"/>
      <point x="278" y="798" type="curve" smooth="yes"/>
      <point x="288" y="806"/>
      <point x="288" y="816"/>
      <point x="280" y="825" type="curve" smooth="yes"/>
      <point x="271" y="836"/>
      <point x="263" y="838"/>
      <point x="250" y="826" type="curve" smooth="yes"/>
      <point x="153" y="743"/>
      <point x="95" y="599"/>
      <point x="95" y="436" type="curve" smooth="yes"/>
      <point x="95" y="163"/>
      <point x="240" y="-19"/>
    </contour>
  </outline>
</glyph>
<glyph name="O.dec" format="2">
  <advance width="988"/>
  <anchor x="463" y="0" name="bottom"/>
  <anchor x="463" y="438" name="center"/>
  <anchor x="591" y="6" name="ogonek"/>
  <anchor x="463" y="838" name="top"/>
  <anchor x="630" y="855" name="topright"/>
  <outline>
    <contour>
      <point x="471" y="890" type="curve" smooth="yes"/>
      <point x="345" y="890"/>
      <point x="271" y="800"/>
      <point x="271" y="718" type="curve" smooth="yes"/>
      <point x="271" y="580"/>
      <point x="405" y="520"/>
      <point x="561" y="520" type="curve" smooth="yes"/>
      <point x="695" y="520"/>
      <point x="816" y="550"/>
      <point x="970" y="608" type="curve" smooth="yes"/>
      <point x="983" y="613"/>
      <point x="989" y="619"/>
      <point x="984" y="634" type="curve" smooth="yes"/>
      <point x="979" y="648"/>
      <point x="970" y="649"/>
      <point x="959" y="645" type="curve" smooth="yes"/>
      <point x="824" y="593"/>
      <point x="689" y="558"/>
      <point x="561" y="558" type="curve" smooth="yes"/>
      <point x="428" y="558"/>
      <point x="310" y="608"/>
      <point x="310" y="718" type="curve" smooth="yes"/>
      <point x="310" y="791"/>
      <point x="353" y="854"/>
      <point x="471" y="854" type="curve" smooth="yes"/>
      <point x="665" y="854"/>
      <point x="794" y="703"/>
      <point x="794" y="448" type="curve" smooth="yes"/>
      <point x="794" y="194"/>
      <point x="655" y="19"/>
      <point x="454" y="19" type="curve" smooth="yes"/>
      <point x="256" y="19"/>
      <point x="135" y="185"/>
      <point x="135" y="436" type="curve" smooth="yes"/>
      <point x="135" y="700"/>
      <point x="249" y="796"/>
      <point x="404" y="849" type="curve" smooth="yes"/>
      <point x="415" y="853"/>
      <point x="423" y="863"/>
      <point x="418" y="875" type="curve" smooth="yes"/>
      <point x="413" y="889"/>
      <point x="406" y="891"/>
      <point x="389" y="885" type="curve" smooth="yes"/>
      <point x="223" y="831"/>
      <point x="94" y="716"/>
      <point x="94" y="436" type="curve" smooth="yes"/>
      <point x="94" y="164"/>
      <point x="233" y="-19"/>
      <point x="454" y="-19" type="curve" smooth="yes"/>
      <point x="680" y="-19"/>
      <point x="835" y="171"/>
      <point x="835" y="448" type="curve" smooth="yes"/>
      <point x="835" y="720"/>
      <point x="694" y="890"/>
    </contour>
  </outline>
</glyph>
<glyph name="OE.cur.ini" format="2">
  <advance width="1326"/>
  <anchor x="1326" y="0" name="cnct"/>
  <anchor x="736" y="838" name="top"/>
  <outline>
    <contour>
      <point x="434" y="-19" type="curve" smooth="yes"/>
      <point x="655" y="-19"/>
      <point x="780" y="171"/>
      <point x="780" y="448" type="curve" smooth="yes"/>
      <point x="780" y="719"/>
      <point x="674" y="890"/>
      <point x="510" y="890" type="curve" smooth="yes"/>
      <point x="400" y="890"/>
      <point x="306" y="810"/>
      <point x="246" y="666" type="curve" smooth="yes"/>
      <point x="241" y="654"/>
      <point x="243" y="646"/>
      <point x="253" y="640" type="curve" smooth="yes"/>
      <point x="263" y="634"/>
      <point x="274" y="636"/>
      <point x="278" y="646" type="curve" smooth="yes"/>
      <point x="334" y="783"/>
      <point x="411" y="854"/>
      <point x="510" y="854" type="curve" smooth="yes"/>
      <point x="648" y="854"/>
      <point x="739" y="694"/>
      <point x="739" y="448" type="curve" smooth="yes"/>
      <point x="739" y="194"/>
      <point x="631" y="19"/>
      <point x="434" y="19" type="curve" smooth="yes"/>
      <point x="240" y="19"/>
      <point x="136" y="185"/>
      <point x="136" y="436" type="curve" smooth="yes"/>
      <point x="136" y="590"/>
      <point x="189" y="724"/>
      <point x="275" y="798" type="curve" smooth="yes"/>
      <point x="285" y="806"/>
      <point x="285" y="816"/>
      <point x="278" y="825" type="curve" smooth="yes"/>
      <point x="269" y="836"/>
      <point x="260" y="838"/>
      <point x="248" y="826" type="curve" smooth="yes"/>
      <point x="153" y="743"/>
      <point x="95" y="599"/>
      <point x="95" y="436" type="curve" smooth="yes"/>
      <point x="95" y="163"/>
      <point x="215" y="-19"/>
    </contour>
    <contour>
      <point x="984" y="-17" type="curve" smooth="yes"/>
      <point x="1004" y="-17"/>
      <point x="1009" y="16"/>
      <point x="989" y="16" type="curve" smooth="yes"/>
      <point x="853" y="16"/>
      <point x="780" y="98"/>
      <point x="780" y="233" type="curve" smooth="yes"/>
      <point x="780" y="368"/>
      <point x="893" y="441"/>
      <point x="1030" y="441" type="curve" smooth="yes"/>
      <point x="1134" y="441" type="line" smooth="yes"/>
      <point x="1141" y="441"/>
      <point x="1145" y="448"/>
      <point x="1145" y="459" type="curve" smooth="yes"/>
      <point x="1145" y="470"/>
      <point x="1141" y="476"/>
      <point x="1134" y="476" type="curve" smooth="yes"/>
      <point x="1026" y="476" type="line" smooth="yes"/>
      <point x="910" y="476"/>
      <point x="829" y="558"/>
      <point x="829" y="676" type="curve" smooth="yes"/>
      <point x="829" y="781"/>
      <point x="910" y="853"/>
      <point x="1018" y="853" type="curve" smooth="yes"/>
      <point x="1099" y="853"/>
      <point x="1164" y="819"/>
      <point x="1219" y="759" type="curve" smooth="yes"/>
      <point x="1228" y="750"/>
      <point x="1236" y="749"/>
      <point x="1246" y="756" type="curve" smooth="yes"/>
      <point x="1256" y="764"/>
      <point x="1256" y="771"/>
      <point x="1248" y="783" type="curve" smooth="yes"/>
      <point x="1198" y="846"/>
      <point x="1110" y="890"/>
      <point x="1018" y="890" type="curve" smooth="yes"/>
      <point x="885" y="890"/>
      <point x="789" y="798"/>
      <point x="789" y="675" type="curve" smooth="yes"/>
      <point x="789" y="573"/>
      <point x="848" y="489"/>
      <point x="939" y="460" type="curve"/>
      <point x="825" y="434"/>
      <point x="739" y="358"/>
      <point x="739" y="231" type="curve" smooth="yes"/>
      <point x="739" y="78"/>
      <point x="822" y="-17"/>
    </contour>
  </outline>
</glyph>
<glyph name="Q.cur.ini" format="2">
  <advance width="966"/>
  <anchor x="966" y="0" name="cnct"/>
  <outline>
    <contour>
      <point x="863" y="-17" type="curve" smooth="yes"/>
      <point x="879" y="-17"/>
      <point x="880" y="18"/>
      <point x="863" y="18" type="curve" smooth="yes"/>
      <point x="706" y="18"/>
      <point x="534" y="259"/>
      <point x="384" y="259" type="curve" smooth="yes"/>
      <point x="311" y="259"/>
      <point x="266" y="211"/>
      <point x="266" y="141" type="curve" smooth="yes"/>
      <point x="266" y="54"/>
      <point x="356" y="-19"/>
      <point x="460" y="-19" type="curve" smooth="yes"/>
      <point x="673" y="-19"/>
      <point x="819" y="165"/>
      <point x="819" y="430" type="curve" smooth="yes"/>
      <point x="819" y="714"/>
      <point x="681" y="890"/>
      <point x="460" y="890" type="curve" smooth="yes"/>
      <point x="243" y="890"/>
      <point x="94" y="704"/>
      <point x="94" y="430" type="curve" smooth="yes"/>
      <point x="94" y="341"/>
      <point x="118" y="249"/>
      <point x="158" y="181" type="curve" smooth="yes"/>
      <point x="168" y="163"/>
      <point x="201" y="181"/>
      <point x="191" y="200" type="curve" smooth="yes"/>
      <point x="154" y="274"/>
      <point x="135" y="358"/>
      <point x="135" y="430" type="curve" smooth="yes"/>
      <point x="135" y="681"/>
      <point x="266" y="853"/>
      <point x="460" y="853" type="curve" smooth="yes"/>
      <point x="656" y="853"/>
      <point x="778" y="691"/>
      <point x="778" y="430" type="curve" smooth="yes"/>
      <point x="778" y="195"/>
      <point x="643" y="16"/>
      <point x="465" y="16" type="curve" smooth="yes"/>
      <point x="380" y="16"/>
      <point x="305" y="73"/>
      <point x="305" y="141" type="curve" smooth="yes"/>
      <point x="305" y="194"/>
      <point x="330" y="223"/>
      <point x="384" y="223" type="curve" smooth="yes"/>
      <point x="516" y="223"/>
      <point x="680" y="-17"/>
    </contour>
  </outline>
</glyph>
<glyph name="Q.cur_locl" format="2">
  <advance width="954"/>
  <anchor x="463" y="0" name="bottom"/>
  <anchor x="463" y="438" name="center"/>
  <anchor x="591" y="6" name="ogonek"/>
  <anchor x="463" y="838" name="top"/>
  <anchor x="568" y="875" name="topright"/>
  <outline>
    <contour>
      <point x="766" y="-112" type="curve" smooth="yes"/>
      <point x="829" y="-112"/>
      <point x="878" y="-67"/>
      <point x="926" y="38" type="curve" smooth="yes"/>
      <point x="931" y="48"/>
      <point x="930" y="54"/>
      <point x="919" y="60" type="curve" smooth="yes"/>
      <point x="908" y="66"/>
      <point x="900" y="65"/>
      <point x="896" y="56" type="curve" smooth="yes"/>
      <point x="856" y="-39"/>
      <point x="819" y="-77"/>
      <point x="768" y="-77" type="curve" smooth="yes"/>
      <point x="654" y="-77"/>
      <point x="549" y="259"/>
      <point x="409" y="259" type="curve" smooth="yes"/>
      <point x="384" y="259"/>
      <point x="384" y="223"/>
      <point x="409" y="223" type="curve" smooth="yes"/>
      <point x="523" y="223"/>
      <point x="629" y="-112"/>
    </contour>
    <component base="O"/>
  </outline>
</glyph>
<glyph name="Q.cur_locl.ini" format="2">
  <advance width="966"/>
  <anchor x="966" y="0" name="cnct"/>
  <anchor x="463" y="0" name="bottom"/>
  <anchor x="463" y="438" name="center"/>
  <anchor x="591" y="6" name="ogonek"/>
  <anchor x="463" y="838" name="top"/>
  <anchor x="568" y="875" name="topright"/>
  <outline>
    <contour>
      <point x="863" y="-17" type="curve" smooth="yes"/>
      <point x="879" y="-17"/>
      <point x="880" y="18"/>
      <point x="863" y="18" type="curve" smooth="yes"/>
      <point x="740" y="18"/>
      <point x="599" y="259"/>
      <point x="409" y="259" type="curve" smooth="yes"/>
      <point x="384" y="259"/>
      <point x="384" y="223"/>
      <point x="409" y="223" type="curve" smooth="yes"/>
      <point x="583" y="223"/>
      <point x="719" y="-17"/>
    </contour>
    <component base="O"/>
  </outline>
</glyph>
<glyph name="Q.dec_pt" format="2">
  <advance width="869"/>
  <outline>
    <contour>
      <point x="618" y="483" type="curve" smooth="yes"/>
      <point x="618" y="766" type="line" smooth="yes"/>
      <point x="618" y="778"/>
      <point x="613" y="781"/>
      <point x="599" y="781" type="curve" smooth="yes"/>
      <point x="585" y="781"/>
      <point x="580" y="778"/>
      <point x="580" y="765" type="curve"/>
      <point x="525" y="541"/>
      <point x="379" y="435"/>
      <point x="281" y="435" type="curve" smooth="yes"/>
      <point x="210" y="435"/>
      <point x="171" y="485"/>
      <point x="171" y="574" type="curve" smooth="yes"/>
      <point x="171" y="688"/>
      <point x="263" y="853"/>
      <point x="364" y="853" type="curve" smooth="yes"/>
      <point x="398" y="853"/>
      <point x="418" y="835"/>
      <point x="418" y="796" type="curve" smooth="yes"/>
      <point x="418" y="724"/>
      <point x="333" y="650"/>
      <point x="229" y="650" type="curve" smooth="yes"/>
      <point x="166" y="650"/>
      <point x="101" y="669"/>
      <point x="65" y="686" type="curve" smooth="yes"/>
      <point x="58" y="690"/>
      <point x="50" y="688"/>
      <point x="45" y="676" type="curve" smooth="yes"/>
      <point x="40" y="664"/>
      <point x="41" y="659"/>
      <point x="53" y="654" type="curve" smooth="yes"/>
      <point x="90" y="636"/>
      <point x="151" y="618"/>
      <point x="226" y="618" type="curve" smooth="yes"/>
      <point x="358" y="618"/>
      <point x="458" y="704"/>
      <point x="458" y="796" type="curve" smooth="yes"/>
      <point x="458" y="856"/>
      <point x="425" y="890"/>
      <point x="364" y="890" type="curve" smooth="yes"/>
      <point x="240" y="890"/>
      <point x="131" y="706"/>
      <point x="131" y="574" type="curve" smooth="yes"/>
      <point x="131" y="464"/>
      <point x="185" y="398"/>
      <point x="278" y="398" type="curve" smooth="yes"/>
      <point x="383" y="398"/>
      <point x="515" y="488"/>
      <point x="580" y="669" type="curve"/>
      <point x="580" y="483" type="line" smooth="yes"/>
      <point x="580" y="225"/>
      <point x="445" y="15"/>
      <point x="335" y="15" type="curve" smooth="yes"/>
      <point x="299" y="15"/>
      <point x="276" y="34"/>
      <point x="276" y="65" type="curve" smooth="yes"/>
      <point x="276" y="95"/>
      <point x="291" y="109"/>
      <point x="324" y="109" type="curve" smooth="yes"/>
      <point x="386" y="109"/>
      <point x="510" y="-17"/>
      <point x="621" y="-17" type="curve" smooth="yes"/>
      <point x="701" y="-17"/>
      <point x="775" y="53"/>
      <point x="818" y="143" type="curve" smooth="yes"/>
      <point x="821" y="151"/>
      <point x="818" y="161"/>
      <point x="806" y="165" type="curve" smooth="yes"/>
      <point x="796" y="169"/>
      <point x="790" y="166"/>
      <point x="784" y="154" type="curve" smooth="yes"/>
      <point x="741" y="75"/>
      <point x="684" y="20"/>
      <point x="624" y="20" type="curve" smooth="yes"/>
      <point x="525" y="20"/>
      <point x="408" y="144"/>
      <point x="321" y="144" type="curve" smooth="yes"/>
      <point x="268" y="144"/>
      <point x="235" y="114"/>
      <point x="235" y="65" type="curve" smooth="yes"/>
      <point x="235" y="8"/>
      <point x="288" y="-20"/>
      <point x="331" y="-20" type="curve" smooth="yes"/>
      <point x="475" y="-20"/>
      <point x="618" y="205"/>
    </contour>
  </outline>
</glyph>
<glyph name="Q_locl.ini" format="2">
  <advance width="978"/>
  <anchor x="978" y="0" name="cnct"/>
  <outline>
    <contour>
      <point x="354" y="-17" type="curve" smooth="yes"/>
      <point x="509" y="-17"/>
      <point x="651" y="149"/>
      <point x="713" y="395" type="curve"/>
      <point x="713" y="-375" type="line" smooth="yes"/>
      <point x="713" y="-386"/>
      <point x="719" y="-390"/>
      <point x="733" y="-390" type="curve" smooth="yes"/>
      <point x="745" y="-390"/>
      <point x="750" y="-385"/>
      <point x="750" y="-375" type="curve" smooth="yes"/>
      <point x="750" y="540" type="line" smooth="yes"/>
      <point x="750" y="551"/>
      <point x="745" y="555"/>
      <point x="731" y="555" type="curve" smooth="yes"/>
      <point x="718" y="555"/>
      <point x="713" y="551"/>
      <point x="713" y="539" type="curve"/>
      <point x="668" y="219"/>
      <point x="508" y="20"/>
      <point x="358" y="20" type="curve" smooth="yes"/>
      <point x="193" y="20"/>
      <point x="123" y="173"/>
      <point x="123" y="391" type="curve" smooth="yes"/>
      <point x="123" y="689"/>
      <point x="264" y="853"/>
      <point x="459" y="853" type="curve" smooth="yes"/>
      <point x="590" y="853"/>
      <point x="664" y="800"/>
      <point x="721" y="733" type="curve" smooth="yes"/>
      <point x="730" y="723"/>
      <point x="738" y="720"/>
      <point x="748" y="726" type="curve" smooth="yes"/>
      <point x="760" y="734"/>
      <point x="761" y="744"/>
      <point x="753" y="755" type="curve" smooth="yes"/>
      <point x="688" y="834"/>
      <point x="605" y="890"/>
      <point x="459" y="890" type="curve" smooth="yes"/>
      <point x="243" y="890"/>
      <point x="81" y="710"/>
      <point x="81" y="391" type="curve" smooth="yes"/>
      <point x="81" y="150"/>
      <point x="166" y="-17"/>
    </contour>
  </outline>
</glyph>
<glyph name="R.cur" format="2">
  <advance width="933"/>
  <guideline x="68"/>
  <guideline x="738"/>
  <guideline y="63"/>
  <guideline y="115"/>
  <guideline x="690" y="30" angle="66.68"/>
  <guideline x="708" y="6" angle="64.47"/>
  <anchor x="504" y="0" name="bottom"/>
  <anchor x="479" y="838" name="top"/>
  <outline>
    <contour>
      <point x="796" y="-19" type="curve" smooth="yes"/>
      <point x="848" y="-19"/>
      <point x="888" y="16"/>
      <point x="925" y="95" type="curve" smooth="yes"/>
      <point x="930" y="105"/>
      <point x="929" y="113"/>
      <point x="919" y="118" type="curve" smooth="yes"/>
      <point x="906" y="125"/>
      <point x="899" y="124"/>
      <point x="894" y="114" type="curve" smooth="yes"/>
      <point x="865" y="46"/>
      <point x="836" y="18"/>
      <point x="798" y="18" type="curve" smooth="yes"/>
      <point x="749" y="18"/>
      <point x="724" y="45"/>
      <point x="598" y="230" type="curve" smooth="yes"/>
      <point x="559" y="286"/>
      <point x="535" y="324"/>
      <point x="491" y="398" type="curve"/>
      <point x="653" y="433"/>
      <point x="759" y="548"/>
      <point x="759" y="686" type="curve" smooth="yes"/>
      <point x="759" y="815"/>
      <point x="640" y="890"/>
      <point x="461" y="890" type="curve" smooth="yes"/>
      <point x="311" y="890"/>
      <point x="185" y="850"/>
      <point x="84" y="788" type="curve" smooth="yes"/>
      <point x="75" y="783"/>
      <point x="74" y="775"/>
      <point x="81" y="764" type="curve" smooth="yes"/>
      <point x="89" y="753"/>
      <point x="96" y="751"/>
      <point x="104" y="756" type="curve" smooth="yes"/>
      <point x="196" y="816"/>
      <point x="314" y="854"/>
      <point x="461" y="854" type="curve" smooth="yes"/>
      <point x="621" y="854"/>
      <point x="719" y="795"/>
      <point x="719" y="681" type="curve" smooth="yes"/>
      <point x="719" y="558"/>
      <point x="615" y="450"/>
      <point x="471" y="426" type="curve"/>
      <point x="459" y="443"/>
      <point x="433" y="455"/>
      <point x="410" y="455" type="curve" smooth="yes"/>
      <point x="389" y="455"/>
      <point x="375" y="444"/>
      <point x="375" y="425" type="curve" smooth="yes"/>
      <point x="375" y="400"/>
      <point x="413" y="381"/>
      <point x="456" y="385" type="curve"/>
      <point x="503" y="306"/>
      <point x="521" y="278"/>
      <point x="571" y="205" type="curve" smooth="yes"/>
      <point x="698" y="19"/>
      <point x="736" y="-19"/>
    </contour>
    <contour>
      <point x="211" y="-17" type="curve" smooth="yes"/>
      <point x="275" y="-17"/>
      <point x="315" y="24"/>
      <point x="315" y="90" type="curve" smooth="yes"/>
      <point x="315" y="746" type="line" smooth="yes"/>
      <point x="315" y="756"/>
      <point x="310" y="761"/>
      <point x="298" y="761" type="curve" smooth="yes"/>
      <point x="284" y="761"/>
      <point x="278" y="758"/>
      <point x="278" y="746" type="curve" smooth="yes"/>
      <point x="278" y="114" type="line" smooth="yes"/>
      <point x="278" y="43"/>
      <point x="260" y="19"/>
      <point x="208" y="19" type="curve" smooth="yes"/>
      <point x="155" y="19"/>
      <point x="106" y="61"/>
      <point x="73" y="138" type="curve" smooth="yes"/>
      <point x="69" y="146"/>
      <point x="60" y="148"/>
      <point x="50" y="143" type="curve" smooth="yes"/>
      <point x="40" y="138"/>
      <point x="36" y="133"/>
      <point x="39" y="126" type="curve" smooth="yes"/>
      <point x="78" y="31"/>
      <point x="138" y="-17"/>
    </contour>
  </outline>
</glyph>
<glyph name="R.cur.ini" format="2">
  <advance width="889"/>
  <anchor x="504" y="0" name="bottom"/>
  <anchor x="889" y="0" name="cnct"/>
  <anchor x="479" y="838" name="top"/>
  <outline>
    <contour>
      <point x="785" y="-17" type="curve" smooth="yes"/>
      <point x="803" y="-17"/>
      <point x="804" y="18"/>
      <point x="786" y="18" type="curve" smooth="yes"/>
      <point x="746" y="18"/>
      <point x="716" y="45"/>
      <point x="595" y="230" type="curve" smooth="yes"/>
      <point x="558" y="286"/>
      <point x="535" y="324"/>
      <point x="491" y="398" type="curve"/>
      <point x="653" y="433"/>
      <point x="759" y="548"/>
      <point x="759" y="686" type="curve" smooth="yes"/>
      <point x="759" y="815"/>
      <point x="640" y="890"/>
      <point x="461" y="890" type="curve" smooth="yes"/>
      <point x="311" y="890"/>
      <point x="185" y="850"/>
      <point x="84" y="788" type="curve" smooth="yes"/>
      <point x="75" y="783"/>
      <point x="74" y="775"/>
      <point x="81" y="764" type="curve" smooth="yes"/>
      <point x="89" y="753"/>
      <point x="96" y="751"/>
      <point x="104" y="756" type="curve" smooth="yes"/>
      <point x="196" y="816"/>
      <point x="314" y="854"/>
      <point x="461" y="854" type="curve" smooth="yes"/>
      <point x="621" y="854"/>
      <point x="719" y="795"/>
      <point x="719" y="681" type="curve" smooth="yes"/>
      <point x="719" y="558"/>
      <point x="615" y="450"/>
      <point x="471" y="426" type="curve"/>
      <point x="459" y="443"/>
      <point x="433" y="455"/>
      <point x="410" y="455" type="curve" smooth="yes"/>
      <point x="389" y="455"/>
      <point x="375" y="444"/>
      <point x="375" y="425" type="curve" smooth="yes"/>
      <point x="375" y="400"/>
      <point x="413" y="381"/>
      <point x="456" y="385" type="curve"/>
      <point x="503" y="306"/>
      <point x="520" y="279"/>
      <point x="569" y="205" type="curve" smooth="yes"/>
      <point x="690" y="19"/>
      <point x="730" y="-17"/>
    </contour>
    <contour>
      <point x="211" y="-17" type="curve" smooth="yes"/>
      <point x="275" y="-17"/>
      <point x="315" y="24"/>
      <point x="315" y="90" type="curve" smooth="yes"/>
      <point x="315" y="743" type="line" smooth="yes"/>
      <point x="315" y="753"/>
      <point x="310" y="758"/>
      <point x="298" y="758" type="curve" smooth="yes"/>
      <point x="284" y="758"/>
      <point x="278" y="754"/>
      <point x="278" y="743" type="curve" smooth="yes"/>
      <point x="278" y="114" type="line" smooth="yes"/>
      <point x="278" y="43"/>
      <point x="260" y="19"/>
      <point x="208" y="19" type="curve" smooth="yes"/>
      <point x="155" y="19"/>
      <point x="106" y="61"/>
      <point x="73" y="138" type="curve" smooth="yes"/>
      <point x="69" y="146"/>
      <point x="60" y="148"/>
      <point x="50" y="143" type="curve" smooth="yes"/>
      <point x="40" y="138"/>
      <point x="36" y="133"/>
      <point x="39" y="126" type="curve" smooth="yes"/>
      <point x="78" y="31"/>
      <point x="138" y="-17"/>
    </contour>
  </outline>
</glyph>
<glyph name="R.dec" format="2">
  <advance width="948"/>
  <anchor x="504" y="0" name="bottom"/>
  <anchor x="491" y="838" name="top"/>
  <outline>
    <contour>
      <point x="803" y="-19" type="curve" smooth="yes"/>
      <point x="854" y="-19"/>
      <point x="896" y="15"/>
      <point x="938" y="95" type="curve"/>
      <point x="944" y="104"/>
      <point x="941" y="113"/>
      <point x="931" y="118" type="curve" smooth="yes"/>
      <point x="919" y="125"/>
      <point x="911" y="123"/>
      <point x="906" y="113" type="curve" smooth="yes"/>
      <point x="870" y="43"/>
      <point x="841" y="18"/>
      <point x="804" y="18" type="curve" smooth="yes"/>
      <point x="766" y="18"/>
      <point x="728" y="49"/>
      <point x="606" y="230" type="curve" smooth="yes"/>
      <point x="545" y="323"/>
      <point x="528" y="351"/>
      <point x="501" y="398" type="curve"/>
      <point x="663" y="455"/>
      <point x="769" y="560"/>
      <point x="769" y="709" type="curve" smooth="yes"/>
      <point x="769" y="815"/>
      <point x="700" y="890"/>
      <point x="588" y="890" type="curve" smooth="yes"/>
      <point x="435" y="890"/>
      <point x="326" y="771"/>
      <point x="276" y="603" type="curve"/>
      <point x="276" y="873" type="line" smooth="yes"/>
      <point x="276" y="883"/>
      <point x="270" y="888"/>
      <point x="259" y="888" type="curve" smooth="yes"/>
      <point x="248" y="888"/>
      <point x="239" y="883"/>
      <point x="236" y="875" type="curve" smooth="yes"/>
      <point x="200" y="765"/>
      <point x="138" y="681"/>
      <point x="44" y="596" type="curve" smooth="yes"/>
      <point x="38" y="591"/>
      <point x="34" y="584"/>
      <point x="43" y="574" type="curve" smooth="yes"/>
      <point x="50" y="565"/>
      <point x="58" y="563"/>
      <point x="66" y="570" type="curve" smooth="yes"/>
      <point x="145" y="643"/>
      <point x="200" y="709"/>
      <point x="239" y="795" type="curve"/>
      <point x="239" y="1" type="line" smooth="yes"/>
      <point x="239" y="-9"/>
      <point x="245" y="-14"/>
      <point x="258" y="-14" type="curve" smooth="yes"/>
      <point x="271" y="-14"/>
      <point x="276" y="-9"/>
      <point x="276" y="1" type="curve" smooth="yes"/>
      <point x="276" y="380" type="line" smooth="yes"/>
      <point x="276" y="628"/>
      <point x="393" y="856"/>
      <point x="584" y="856" type="curve" smooth="yes"/>
      <point x="676" y="856"/>
      <point x="729" y="795"/>
      <point x="729" y="704" type="curve" smooth="yes"/>
      <point x="729" y="570"/>
      <point x="629" y="475"/>
      <point x="484" y="425" type="curve"/>
      <point x="470" y="443"/>
      <point x="444" y="455"/>
      <point x="419" y="455" type="curve" smooth="yes"/>
      <point x="399" y="455"/>
      <point x="385" y="444"/>
      <point x="385" y="425" type="curve" smooth="yes"/>
      <point x="385" y="400"/>
      <point x="423" y="381"/>
      <point x="466" y="385" type="curve"/>
      <point x="503" y="323"/>
      <point x="524" y="288"/>
      <point x="580" y="205" type="curve" smooth="yes"/>
      <point x="679" y="59"/>
      <point x="738" y="-19"/>
    </contour>
  </outline>
</glyph>
<glyph name="S.cur" format="2">
  <advance width="893"/>
  <anchor x="598" y="0" name="bottom"/>
  <anchor x="455" y="875" name="top"/>
  <outline>
    <contour>
      <point x="586" y="-19" type="curve" smooth="yes"/>
      <point x="731" y="-19"/>
      <point x="830" y="80"/>
      <point x="830" y="223" type="curve" smooth="yes"/>
      <point x="830" y="424"/>
      <point x="647" y="508"/>
      <point x="496" y="678" type="curve"/>
      <point x="527" y="759"/>
      <point x="541" y="816"/>
      <point x="541" y="856" type="curve" smooth="yes"/>
      <point x="541" y="911"/>
      <point x="514" y="941"/>
      <point x="463" y="941" type="curve" smooth="yes"/>
      <point x="411" y="941"/>
      <point x="370" y="896"/>
      <point x="370" y="841" type="curve" smooth="yes"/>
      <point x="370" y="782"/>
      <point x="399" y="736"/>
      <point x="454" y="671" type="curve"/>
      <point x="258" y="176"/>
      <point x="219" y="25"/>
      <point x="53" y="25" type="curve" smooth="yes"/>
      <point x="39" y="25"/>
      <point x="31" y="19"/>
      <point x="31" y="5" type="curve" smooth="yes"/>
      <point x="31" y="-7"/>
      <point x="38" y="-12"/>
      <point x="53" y="-12" type="curve" smooth="yes"/>
      <point x="234" y="-12"/>
      <point x="272" y="112"/>
      <point x="481" y="640" type="curve"/>
      <point x="635" y="468"/>
      <point x="791" y="400"/>
      <point x="791" y="221" type="curve" smooth="yes"/>
      <point x="791" y="104"/>
      <point x="708" y="18"/>
      <point x="591" y="18" type="curve" smooth="yes"/>
      <point x="523" y="18"/>
      <point x="466" y="45"/>
      <point x="401" y="110" type="curve" smooth="yes"/>
      <point x="388" y="124"/>
      <point x="385" y="125"/>
      <point x="374" y="116" type="curve" smooth="yes"/>
      <point x="364" y="109"/>
      <point x="364" y="100"/>
      <point x="374" y="88" type="curve" smooth="yes"/>
      <point x="429" y="24"/>
      <point x="515" y="-19"/>
    </contour>
    <contour>
      <point x="469" y="710" type="curve"/>
      <point x="432" y="756"/>
      <point x="409" y="806"/>
      <point x="409" y="843" type="curve" smooth="yes"/>
      <point x="409" y="881"/>
      <point x="430" y="906"/>
      <point x="463" y="906" type="curve" smooth="yes"/>
      <point x="489" y="906"/>
      <point x="501" y="889"/>
      <point x="501" y="854" type="curve" smooth="yes"/>
      <point x="501" y="821"/>
      <point x="489" y="768"/>
    </contour>
  </outline>
</glyph>
<glyph name="T.cur" format="2">
  <advance width="721"/>
  <guideline x="10"/>
  <guideline y="91"/>
  <anchor x="361" y="0" name="bottom"/>
  <anchor x="374" y="438" name="center"/>
  <anchor x="386" y="838" name="top"/>
  <outline>
    <contour>
      <point x="439" y="-17" type="curve" smooth="yes"/>
      <point x="524" y="-17"/>
      <point x="605" y="43"/>
      <point x="663" y="149" type="curve" smooth="yes"/>
      <point x="668" y="158"/>
      <point x="664" y="168"/>
      <point x="655" y="171" type="curve" smooth="yes"/>
      <point x="646" y="176"/>
      <point x="636" y="175"/>
      <point x="633" y="168" type="curve" smooth="yes"/>
      <point x="586" y="76"/>
      <point x="513" y="18"/>
      <point x="443" y="18" type="curve" smooth="yes"/>
      <point x="321" y="18"/>
      <point x="258" y="109"/>
      <point x="258" y="284" type="curve" smooth="yes"/>
      <point x="258" y="431"/>
      <point x="330" y="636"/>
      <point x="455" y="840" type="curve"/>
      <point x="698" y="840" type="line" smooth="yes"/>
      <point x="705" y="840"/>
      <point x="709" y="848"/>
      <point x="709" y="859" type="curve" smooth="yes"/>
      <point x="709" y="870"/>
      <point x="705" y="875"/>
      <point x="698" y="875" type="curve" smooth="yes"/>
      <point x="214" y="875" type="line" smooth="yes"/>
      <point x="113" y="875"/>
      <point x="40" y="813"/>
      <point x="14" y="701" type="curve" smooth="yes"/>
      <point x="11" y="691"/>
      <point x="15" y="685"/>
      <point x="25" y="683" type="curve" smooth="yes"/>
      <point x="38" y="679"/>
      <point x="45" y="683"/>
      <point x="48" y="691" type="curve" smooth="yes"/>
      <point x="73" y="788"/>
      <point x="129" y="840"/>
      <point x="208" y="840" type="curve" smooth="yes"/>
      <point x="415" y="840" type="line"/>
      <point x="293" y="640"/>
      <point x="220" y="434"/>
      <point x="220" y="284" type="curve" smooth="yes"/>
      <point x="220" y="89"/>
      <point x="298" y="-17"/>
    </contour>
  </outline>
</glyph>
<glyph name="T.cur.ini" format="2">
  <advance width="671"/>
  <anchor x="430" y="0" name="bottom"/>
  <anchor x="274" y="438" name="center"/>
  <anchor x="671" y="0" name="cnct"/>
  <anchor x="426" y="838" name="top"/>
  <outline>
    <contour>
      <point x="429" y="-17" type="curve" smooth="yes"/>
      <point x="454" y="-17"/>
      <point x="459" y="16"/>
      <point x="434" y="16" type="curve" smooth="yes"/>
      <point x="324" y="16"/>
      <point x="258" y="118"/>
      <point x="258" y="284" type="curve" smooth="yes"/>
      <point x="258" y="431"/>
      <point x="330" y="636"/>
      <point x="455" y="840" type="curve"/>
      <point x="698" y="840" type="line" smooth="yes"/>
      <point x="705" y="840"/>
      <point x="709" y="848"/>
      <point x="709" y="859" type="curve" smooth="yes"/>
      <point x="709" y="870"/>
      <point x="705" y="875"/>
      <point x="698" y="875" type="curve" smooth="yes"/>
      <point x="214" y="875" type="line" smooth="yes"/>
      <point x="113" y="875"/>
      <point x="40" y="813"/>
      <point x="14" y="701" type="curve" smooth="yes"/>
      <point x="11" y="691"/>
      <point x="15" y="685"/>
      <point x="25" y="683" type="curve" smooth="yes"/>
      <point x="38" y="679"/>
      <point x="45" y="683"/>
      <point x="48" y="691" type="curve" smooth="yes"/>
      <point x="73" y="788"/>
      <point x="129" y="840"/>
      <point x="208" y="840" type="curve" smooth="yes"/>
      <point x="415" y="840" type="line"/>
      <point x="293" y="640"/>
      <point x="220" y="434"/>
      <point x="220" y="284" type="curve" smooth="yes"/>
      <point x="220" y="96"/>
      <point x="299" y="-17"/>
    </contour>
  </outline>
</glyph>
<glyph name="T.cur_locl.ini" format="2">
  <advance width="851"/>
  <anchor x="511" y="0" name="bottom"/>
  <anchor x="349" y="387" name="center"/>
  <anchor x="851" y="0" name="cnct"/>
  <anchor x="511" y="838" name="top"/>
  <outline>
    <contour>
      <point x="605" y="-17" type="curve" smooth="yes"/>
      <point x="625" y="-17"/>
      <point x="629" y="16"/>
      <point x="609" y="16" type="curve" smooth="yes"/>
      <point x="441" y="16"/>
      <point x="341" y="161"/>
      <point x="341" y="311" type="curve" smooth="yes"/>
      <point x="341" y="331"/>
      <point x="343" y="350"/>
      <point x="346" y="369" type="curve"/>
      <point x="584" y="369" type="line" smooth="yes"/>
      <point x="591" y="369"/>
      <point x="595" y="376"/>
      <point x="595" y="388" type="curve" smooth="yes"/>
      <point x="595" y="399"/>
      <point x="591" y="404"/>
      <point x="584" y="404" type="curve" smooth="yes"/>
      <point x="355" y="404" type="line"/>
      <point x="399" y="550"/>
      <point x="553" y="670"/>
      <point x="839" y="844" type="curve" smooth="yes"/>
      <point x="846" y="849"/>
      <point x="851" y="856"/>
      <point x="841" y="870" type="curve" smooth="yes"/>
      <point x="831" y="883"/>
      <point x="823" y="880"/>
      <point x="814" y="875" type="curve" smooth="yes"/>
      <point x="766" y="848"/>
      <point x="704" y="835"/>
      <point x="651" y="835" type="curve" smooth="yes"/>
      <point x="543" y="835"/>
      <point x="505" y="890"/>
      <point x="381" y="890" type="curve" smooth="yes"/>
      <point x="251" y="890"/>
      <point x="151" y="830"/>
      <point x="71" y="729" type="curve" smooth="yes"/>
      <point x="65" y="720"/>
      <point x="61" y="714"/>
      <point x="73" y="705" type="curve" smooth="yes"/>
      <point x="84" y="696"/>
      <point x="93" y="695"/>
      <point x="101" y="706" type="curve" smooth="yes"/>
      <point x="173" y="801"/>
      <point x="264" y="856"/>
      <point x="384" y="856" type="curve" smooth="yes"/>
      <point x="489" y="856"/>
      <point x="520" y="804"/>
      <point x="646" y="804" type="curve" smooth="yes"/>
      <point x="676" y="804"/>
      <point x="706" y="808"/>
      <point x="734" y="815" type="curve"/>
      <point x="494" y="666"/>
      <point x="356" y="546"/>
      <point x="316" y="404" type="curve"/>
      <point x="195" y="404" type="line" smooth="yes"/>
      <point x="188" y="404"/>
      <point x="184" y="399"/>
      <point x="184" y="388" type="curve" smooth="yes"/>
      <point x="184" y="376"/>
      <point x="188" y="369"/>
      <point x="195" y="369" type="curve" smooth="yes"/>
      <point x="309" y="369" type="line"/>
      <point x="305" y="350"/>
      <point x="304" y="331"/>
      <point x="304" y="311" type="curve" smooth="yes"/>
      <point x="304" y="141"/>
      <point x="419" y="-17"/>
    </contour>
  </outline>
</glyph>
<glyph name="T.dec" format="2">
  <advance width="721"/>
  <guideline x="10"/>
  <guideline y="91"/>
  <anchor x="305" y="0" name="bottom"/>
  <anchor x="386" y="438" name="center"/>
  <anchor x="386" y="838" name="top"/>
  <outline>
    <contour>
      <point x="301" y="-17" type="curve" smooth="yes"/>
      <point x="365" y="-17"/>
      <point x="405" y="24"/>
      <point x="405" y="90" type="curve" smooth="yes"/>
      <point x="405" y="840" type="line"/>
      <point x="698" y="840" type="line" smooth="yes"/>
      <point x="705" y="840"/>
      <point x="709" y="848"/>
      <point x="709" y="859" type="curve" smooth="yes"/>
      <point x="709" y="870"/>
      <point x="705" y="875"/>
      <point x="698" y="875" type="curve" smooth="yes"/>
      <point x="214" y="875" type="line" smooth="yes"/>
      <point x="113" y="875"/>
      <point x="40" y="813"/>
      <point x="14" y="701" type="curve" smooth="yes"/>
      <point x="11" y="691"/>
      <point x="15" y="685"/>
      <point x="25" y="683" type="curve" smooth="yes"/>
      <point x="38" y="679"/>
      <point x="45" y="683"/>
      <point x="48" y="691" type="curve" smooth="yes"/>
      <point x="73" y="788"/>
      <point x="129" y="840"/>
      <point x="208" y="840" type="curve" smooth="yes"/>
      <point x="368" y="840" type="line"/>
      <point x="368" y="114" type="line" smooth="yes"/>
      <point x="368" y="43"/>
      <point x="350" y="19"/>
      <point x="298" y="19" type="curve" smooth="yes"/>
      <point x="245" y="19"/>
      <point x="196" y="61"/>
      <point x="163" y="138" type="curve" smooth="yes"/>
      <point x="159" y="146"/>
      <point x="150" y="148"/>
      <point x="140" y="143" type="curve" smooth="yes"/>
      <point x="130" y="138"/>
      <point x="126" y="133"/>
      <point x="129" y="126" type="curve" smooth="yes"/>
      <point x="168" y="31"/>
      <point x="228" y="-17"/>
    </contour>
  </outline>
</glyph>
<glyph name="U.cur" format="2">
  <advance width="953"/>
  <anchor x="464" y="0" name="bottom"/>
  <anchor x="858" y="13" name="ogonek"/>
  <anchor x="476" y="838" name="top"/>
  <anchor x="706" y="888" name="topright"/>
  <outline>
    <contour>
      <point x="396" y="-17" type="curve" smooth="yes"/>
      <point x="529" y="-17"/>
      <point x="643" y="107"/>
      <point x="688" y="292" type="curve"/>
      <point x="688" y="225"/>
      <point x="688" y="157"/>
      <point x="688" y="90" type="curve" smooth="yes"/>
      <point x="688" y="24"/>
      <point x="721" y="-17"/>
      <point x="778" y="-17" type="curve" smooth="yes"/>
      <point x="840" y="-17"/>
      <point x="895" y="34"/>
      <point x="933" y="126" type="curve"/>
      <point x="935" y="134"/>
      <point x="931" y="139"/>
      <point x="921" y="143" type="curve" smooth="yes"/>
      <point x="910" y="146"/>
      <point x="903" y="145"/>
      <point x="899" y="138" type="curve"/>
      <point x="864" y="59"/>
      <point x="825" y="19"/>
      <point x="784" y="19" type="curve" smooth="yes"/>
      <point x="740" y="19"/>
      <point x="725" y="44"/>
      <point x="725" y="114" type="curve" smooth="yes"/>
      <point x="725" y="871" type="line" smooth="yes"/>
      <point x="725" y="883"/>
      <point x="720" y="888"/>
      <point x="706" y="888" type="curve" smooth="yes"/>
      <point x="693" y="888"/>
      <point x="688" y="883"/>
      <point x="688" y="871" type="curve" smooth="yes"/>
      <point x="688" y="446" type="line"/>
      <point x="654" y="183"/>
      <point x="543" y="18"/>
      <point x="398" y="18" type="curve" smooth="yes"/>
      <point x="314" y="18"/>
      <point x="276" y="65"/>
      <point x="276" y="173" type="curve" smooth="yes"/>
      <point x="276" y="783" type="line" smooth="yes"/>
      <point x="276" y="856"/>
      <point x="251" y="890"/>
      <point x="198" y="890" type="curve" smooth="yes"/>
      <point x="131" y="890"/>
      <point x="74" y="831"/>
      <point x="28" y="716" type="curve" smooth="yes"/>
      <point x="24" y="706"/>
      <point x="28" y="699"/>
      <point x="36" y="694" type="curve" smooth="yes"/>
      <point x="46" y="689"/>
      <point x="56" y="691"/>
      <point x="60" y="700" type="curve" smooth="yes"/>
      <point x="105" y="805"/>
      <point x="148" y="855"/>
      <point x="193" y="855" type="curve" smooth="yes"/>
      <point x="226" y="855"/>
      <point x="239" y="835"/>
      <point x="239" y="784" type="curve" smooth="yes"/>
      <point x="239" y="165" type="line" smooth="yes"/>
      <point x="239" y="44"/>
      <point x="293" y="-17"/>
    </contour>
  </outline>
</glyph>
<glyph name="U.cur.ini" format="2">
  <advance width="909"/>
  <anchor x="464" y="0" name="bottom"/>
  <anchor x="909" y="0" name="cnct"/>
  <anchor x="858" y="13" name="ogonek"/>
  <anchor x="476" y="838" name="top"/>
  <anchor x="706" y="888" name="topright"/>
  <outline>
    <contour>
      <point x="396" y="-17" type="curve" smooth="yes"/>
      <point x="545" y="-17"/>
      <point x="670" y="138"/>
      <point x="701" y="361" type="curve"/>
      <point x="689" y="454" type="line"/>
      <point x="656" y="186"/>
      <point x="544" y="18"/>
      <point x="398" y="18" type="curve" smooth="yes"/>
      <point x="314" y="18"/>
      <point x="276" y="65"/>
      <point x="276" y="173" type="curve" smooth="yes"/>
      <point x="276" y="783" type="line" smooth="yes"/>
      <point x="276" y="856"/>
      <point x="251" y="890"/>
      <point x="198" y="890" type="curve" smooth="yes"/>
      <point x="131" y="890"/>
      <point x="74" y="831"/>
      <point x="28" y="716" type="curve" smooth="yes"/>
      <point x="24" y="706"/>
      <point x="28" y="699"/>
      <point x="36" y="694" type="curve" smooth="yes"/>
      <point x="46" y="689"/>
      <point x="56" y="691"/>
      <point x="60" y="700" type="curve" smooth="yes"/>
      <point x="105" y="805"/>
      <point x="148" y="855"/>
      <point x="193" y="855" type="curve" smooth="yes"/>
      <point x="226" y="855"/>
      <point x="239" y="835"/>
      <point x="239" y="784" type="curve" smooth="yes"/>
      <point x="239" y="165" type="line" smooth="yes"/>
      <point x="239" y="44"/>
      <point x="293" y="-17"/>
    </contour>
    <contour>
      <point x="805" y="-17" type="curve" smooth="yes"/>
      <point x="824" y="-17"/>
      <point x="824" y="18"/>
      <point x="805" y="18" type="curve" smooth="yes"/>
      <point x="741" y="18"/>
      <point x="725" y="78"/>
      <point x="725" y="139" type="curve" smooth="yes"/>
      <point x="725" y="871" type="line" smooth="yes"/>
      <point x="725" y="883"/>
      <point x="720" y="888"/>
      <point x="706" y="888" type="curve" smooth="yes"/>
      <point x="693" y="888"/>
      <point x="688" y="883"/>
      <point x="688" y="871" type="curve" smooth="yes"/>
      <point x="688" y="134" type="line" smooth="yes"/>
      <point x="688" y="54"/>
      <point x="715" y="-17"/>
    </contour>
  </outline>
</glyph>
<glyph name="X.dec" format="2">
  <advance width="925"/>
  <outline>
    <contour>
      <point x="269" y="-17" type="curve" smooth="yes"/>
      <point x="355" y="-17"/>
      <point x="433" y="99"/>
      <point x="466" y="260" type="curve"/>
      <point x="491" y="99"/>
      <point x="553" y="-17"/>
      <point x="654" y="-17" type="curve" smooth="yes"/>
      <point x="741" y="-17"/>
      <point x="815" y="59"/>
      <point x="848" y="123" type="curve" smooth="yes"/>
      <point x="856" y="140"/>
      <point x="854" y="148"/>
      <point x="841" y="154" type="curve" smooth="yes"/>
      <point x="829" y="159"/>
      <point x="821" y="158"/>
      <point x="813" y="141" type="curve" smooth="yes"/>
      <point x="781" y="83"/>
      <point x="725" y="20"/>
      <point x="656" y="20" type="curve" smooth="yes"/>
      <point x="541" y="20"/>
      <point x="488" y="213"/>
      <point x="488" y="436" type="curve" smooth="yes"/>
      <point x="488" y="666"/>
      <point x="565" y="853"/>
      <point x="671" y="853" type="curve" smooth="yes"/>
      <point x="733" y="853"/>
      <point x="771" y="813"/>
      <point x="803" y="763" type="curve" smooth="yes"/>
      <point x="813" y="748"/>
      <point x="819" y="743"/>
      <point x="831" y="750" type="curve" smooth="yes"/>
      <point x="845" y="758"/>
      <point x="846" y="766"/>
      <point x="836" y="783" type="curve" smooth="yes"/>
      <point x="804" y="838"/>
      <point x="753" y="890"/>
      <point x="671" y="890" type="curve" smooth="yes"/>
      <point x="578" y="890"/>
      <point x="501" y="776"/>
      <point x="470" y="613" type="curve"/>
      <point x="443" y="776"/>
      <point x="373" y="890"/>
      <point x="265" y="890" type="curve" smooth="yes"/>
      <point x="186" y="890"/>
      <point x="134" y="836"/>
      <point x="104" y="783" type="curve" smooth="yes"/>
      <point x="95" y="766"/>
      <point x="95" y="758"/>
      <point x="109" y="750" type="curve" smooth="yes"/>
      <point x="120" y="744"/>
      <point x="129" y="748"/>
      <point x="138" y="763" type="curve" smooth="yes"/>
      <point x="166" y="814"/>
      <point x="205" y="853"/>
      <point x="264" y="853" type="curve" smooth="yes"/>
      <point x="385" y="853"/>
      <point x="450" y="666"/>
      <point x="450" y="436" type="curve" smooth="yes"/>
      <point x="450" y="213"/>
      <point x="364" y="20"/>
      <point x="266" y="20" type="curve" smooth="yes"/>
      <point x="198" y="20"/>
      <point x="146" y="83"/>
      <point x="115" y="141" type="curve" smooth="yes"/>
      <point x="106" y="158"/>
      <point x="99" y="159"/>
      <point x="86" y="154" type="curve" smooth="yes"/>
      <point x="74" y="148"/>
      <point x="71" y="140"/>
      <point x="80" y="123" type="curve" smooth="yes"/>
      <point x="113" y="59"/>
      <point x="181" y="-17"/>
    </contour>
  </outline>
</glyph>
<glyph name="X.dec.ini" format="2">
  <advance width="900"/>
  <anchor x="900" y="0" name="cnct"/>
  <outline>
    <contour>
      <point x="269" y="-17" type="curve" smooth="yes"/>
      <point x="356" y="-17"/>
      <point x="434" y="100"/>
      <point x="466" y="263" type="curve"/>
      <point x="494" y="95"/>
      <point x="565" y="-17"/>
      <point x="691" y="-17" type="curve" smooth="yes"/>
      <point x="711" y="-17"/>
      <point x="711" y="18"/>
      <point x="691" y="18" type="curve" smooth="yes"/>
      <point x="545" y="18"/>
      <point x="488" y="213"/>
      <point x="488" y="436" type="curve" smooth="yes"/>
      <point x="488" y="666"/>
      <point x="565" y="853"/>
      <point x="671" y="853" type="curve" smooth="yes"/>
      <point x="733" y="853"/>
      <point x="771" y="813"/>
      <point x="803" y="763" type="curve" smooth="yes"/>
      <point x="813" y="748"/>
      <point x="819" y="743"/>
      <point x="831" y="750" type="curve" smooth="yes"/>
      <point x="845" y="758"/>
      <point x="846" y="766"/>
      <point x="836" y="783" type="curve" smooth="yes"/>
      <point x="804" y="838"/>
      <point x="753" y="890"/>
      <point x="671" y="890" type="curve" smooth="yes"/>
      <point x="578" y="890"/>
      <point x="501" y="776"/>
      <point x="470" y="613" type="curve"/>
      <point x="443" y="776"/>
      <point x="373" y="890"/>
      <point x="265" y="890" type="curve" smooth="yes"/>
      <point x="186" y="890"/>
      <point x="134" y="836"/>
      <point x="104" y="783" type="curve" smooth="yes"/>
      <point x="95" y="766"/>
      <point x="95" y="758"/>
      <point x="109" y="750" type="curve" smooth="yes"/>
      <point x="120" y="744"/>
      <point x="129" y="748"/>
      <point x="138" y="763" type="curve" smooth="yes"/>
      <point x="166" y="814"/>
      <point x="205" y="853"/>
      <point x="264" y="853" type="curve" smooth="yes"/>
      <point x="385" y="853"/>
      <point x="450" y="666"/>
      <point x="450" y="436" type="curve" smooth="yes"/>
      <point x="450" y="213"/>
      <point x="364" y="20"/>
      <point x="266" y="20" type="curve" smooth="yes"/>
      <point x="198" y="20"/>
      <point x="146" y="83"/>
      <point x="115" y="141" type="curve" smooth="yes"/>
      <point x="106" y="158"/>
      <point x="99" y="159"/>
      <point x="86" y="154" type="curve" smooth="yes"/>
      <point x="74" y="148"/>
      <point x="71" y="140"/>
      <point x="80" y="123" type="curve" smooth="yes"/>
      <point x="113" y="59"/>
      <point x="181" y="-17"/>
    </contour>
  </outline>
</glyph>
<glyph name="X.dec_locl" format="2">
  <advance width="1009"/>
  <outline>
    <contour>
      <point x="701" y="-17" type="curve" smooth="yes"/>
      <point x="793" y="-17"/>
      <point x="868" y="59"/>
      <point x="900" y="123" type="curve" smooth="yes"/>
      <point x="909" y="140"/>
      <point x="906" y="146"/>
      <point x="894" y="153" type="curve" smooth="yes"/>
      <point x="881" y="158"/>
      <point x="874" y="158"/>
      <point x="865" y="141" type="curve" smooth="yes"/>
      <point x="834" y="83"/>
      <point x="776" y="20"/>
      <point x="704" y="20" type="curve" smooth="yes"/>
      <point x="578" y="20"/>
      <point x="525" y="213"/>
      <point x="525" y="436" type="curve" smooth="yes"/>
      <point x="525" y="666"/>
      <point x="611" y="853"/>
      <point x="755" y="853" type="curve" smooth="yes"/>
      <point x="824" y="853"/>
      <point x="876" y="805"/>
      <point x="876" y="731" type="curve" smooth="yes"/>
      <point x="876" y="430"/>
      <point x="95" y="510"/>
      <point x="95" y="154" type="curve" smooth="yes"/>
      <point x="95" y="55"/>
      <point x="168" y="-17"/>
      <point x="260" y="-17" type="curve" smooth="yes"/>
      <point x="409" y="-17"/>
      <point x="521" y="191"/>
      <point x="521" y="436" type="curve" smooth="yes"/>
      <point x="521" y="689"/>
      <point x="448" y="890"/>
      <point x="301" y="890" type="curve" smooth="yes"/>
      <point x="216" y="890"/>
      <point x="156" y="836"/>
      <point x="126" y="783" type="curve" smooth="yes"/>
      <point x="118" y="766"/>
      <point x="118" y="759"/>
      <point x="131" y="751" type="curve" smooth="yes"/>
      <point x="143" y="745"/>
      <point x="151" y="748"/>
      <point x="160" y="763" type="curve" smooth="yes"/>
      <point x="189" y="814"/>
      <point x="235" y="853"/>
      <point x="300" y="853" type="curve" smooth="yes"/>
      <point x="425" y="853"/>
      <point x="488" y="666"/>
      <point x="488" y="436" type="curve" smooth="yes"/>
      <point x="488" y="213"/>
      <point x="388" y="20"/>
      <point x="258" y="20" type="curve" smooth="yes"/>
      <point x="186" y="20"/>
      <point x="135" y="84"/>
      <point x="135" y="158" type="curve" smooth="yes"/>
      <point x="135" y="480"/>
      <point x="916" y="393"/>
      <point x="916" y="735" type="curve" smooth="yes"/>
      <point x="916" y="830"/>
      <point x="845" y="890"/>
      <point x="755" y="890" type="curve" smooth="yes"/>
      <point x="593" y="890"/>
      <point x="491" y="689"/>
      <point x="491" y="436" type="curve" smooth="yes"/>
      <point x="491" y="191"/>
      <point x="554" y="-17"/>
    </contour>
  </outline>
</glyph>
<glyph name="X.dec_ro" format="2">
  <advance width="925"/>
  <outline>
    <contour>
      <point x="277" y="431" type="curve" smooth="yes"/>
      <point x="660" y="431" type="line" smooth="yes"/>
      <point x="667" y="431"/>
      <point x="671" y="439"/>
      <point x="671" y="450" type="curve" smooth="yes"/>
      <point x="671" y="461"/>
      <point x="667" y="466"/>
      <point x="660" y="466" type="curve" smooth="yes"/>
      <point x="277" y="466" type="line" smooth="yes"/>
      <point x="270" y="466"/>
      <point x="266" y="461"/>
      <point x="266" y="450" type="curve" smooth="yes"/>
      <point x="266" y="439"/>
      <point x="270" y="431"/>
    </contour>
    <component base="X.dec"/>
  </outline>
</glyph>
<glyph name="X.dec_ro.ini" format="2">
  <advance width="900"/>
  <anchor x="900" y="0" name="cnct"/>
  <outline>
    <contour>
      <point x="277" y="431" type="curve" smooth="yes"/>
      <point x="660" y="431" type="line" smooth="yes"/>
      <point x="667" y="431"/>
      <point x="671" y="439"/>
      <point x="671" y="450" type="curve" smooth="yes"/>
      <point x="671" y="461"/>
      <point x="667" y="466"/>
      <point x="660" y="466" type="curve" smooth="yes"/>
      <point x="277" y="466" type="line" smooth="yes"/>
      <point x="270" y="466"/>
      <point x="266" y="461"/>
      <point x="266" y="450" type="curve" smooth="yes"/>
      <point x="266" y="439"/>
      <point x="270" y="431"/>
    </contour>
    <component base="X.dec.ini"/>
  </outline>
</glyph>
<glyph name="Y.cur" format="2">
  <advance width="800"/>
  <anchor x="820" y="0" name="bottom"/>
  <anchor x="450" y="838" name="top"/>
  <outline>
    <contour>
      <point x="558" y="-394" type="curve" smooth="yes"/>
      <point x="649" y="-394"/>
      <point x="700" y="-309"/>
      <point x="700" y="-152" type="curve" smooth="yes"/>
      <point x="700" y="871" type="line" smooth="yes"/>
      <point x="700" y="883"/>
      <point x="695" y="888"/>
      <point x="681" y="888" type="curve" smooth="yes"/>
      <point x="668" y="888"/>
      <point x="663" y="883"/>
      <point x="663" y="871" type="curve" smooth="yes"/>
      <point x="663" y="511" type="line"/>
      <point x="630" y="248"/>
      <point x="530" y="86"/>
      <point x="396" y="86" type="curve" smooth="yes"/>
      <point x="316" y="86"/>
      <point x="276" y="138"/>
      <point x="276" y="241" type="curve" smooth="yes"/>
      <point x="276" y="783" type="line" smooth="yes"/>
      <point x="276" y="856"/>
      <point x="251" y="890"/>
      <point x="198" y="890" type="curve" smooth="yes"/>
      <point x="131" y="890"/>
      <point x="74" y="831"/>
      <point x="28" y="716" type="curve" smooth="yes"/>
      <point x="24" y="706"/>
      <point x="28" y="699"/>
      <point x="36" y="694" type="curve" smooth="yes"/>
      <point x="46" y="689"/>
      <point x="56" y="691"/>
      <point x="60" y="700" type="curve" smooth="yes"/>
      <point x="105" y="805"/>
      <point x="148" y="855"/>
      <point x="193" y="855" type="curve" smooth="yes"/>
      <point x="226" y="855"/>
      <point x="239" y="835"/>
      <point x="239" y="784" type="curve" smooth="yes"/>
      <point x="239" y="234" type="line" smooth="yes"/>
      <point x="239" y="115"/>
      <point x="294" y="51"/>
      <point x="394" y="51" type="curve" smooth="yes"/>
      <point x="516" y="51"/>
      <point x="620" y="170"/>
      <point x="663" y="354" type="curve"/>
      <point x="663" y="-155" type="line" smooth="yes"/>
      <point x="663" y="-282"/>
      <point x="625" y="-357"/>
      <point x="561" y="-357" type="curve" smooth="yes"/>
      <point x="516" y="-357"/>
      <point x="499" y="-335"/>
      <point x="499" y="-277" type="curve" smooth="yes"/>
      <point x="499" y="-222"/>
      <point x="531" y="-156"/>
      <point x="590" y="-85" type="curve" smooth="yes"/>
      <point x="710" y="49"/>
      <point x="825" y="170"/>
      <point x="869" y="209" type="curve" smooth="yes"/>
      <point x="878" y="216"/>
      <point x="881" y="223"/>
      <point x="874" y="233" type="curve" smooth="yes"/>
      <point x="866" y="243"/>
      <point x="860" y="245"/>
      <point x="849" y="235" type="curve" smooth="yes"/>
      <point x="804" y="195"/>
      <point x="693" y="80"/>
      <point x="580" y="-45" type="curve" smooth="yes"/>
      <point x="496" y="-144"/>
      <point x="459" y="-216"/>
      <point x="459" y="-279" type="curve" smooth="yes"/>
      <point x="459" y="-351"/>
      <point x="495" y="-394"/>
    </contour>
  </outline>
</glyph>
<glyph name="Y.cur.ini" format="2">
  <advance width="799"/>
  <anchor x="820" y="0" name="bottom"/>
  <anchor x="799" y="0" name="cnct"/>
  <anchor x="450" y="838" name="top"/>
  <outline>
    <contour>
      <point x="394" y="51" type="curve" smooth="yes"/>
      <point x="517" y="51"/>
      <point x="620" y="170"/>
      <point x="663" y="354" type="curve"/>
      <point x="663" y="-142" type="line" smooth="yes"/>
      <point x="663" y="-274"/>
      <point x="612" y="-359"/>
      <point x="534" y="-359" type="curve" smooth="yes"/>
      <point x="482" y="-359"/>
      <point x="449" y="-327"/>
      <point x="449" y="-275" type="curve" smooth="yes"/>
      <point x="449" y="-250"/>
      <point x="409" y="-251"/>
      <point x="409" y="-276" type="curve" smooth="yes"/>
      <point x="409" y="-349"/>
      <point x="455" y="-394"/>
      <point x="530" y="-394" type="curve" smooth="yes"/>
      <point x="638" y="-394"/>
      <point x="700" y="-300"/>
      <point x="700" y="-140" type="curve" smooth="yes"/>
      <point x="700" y="871" type="line" smooth="yes"/>
      <point x="700" y="883"/>
      <point x="695" y="888"/>
      <point x="682" y="888" type="curve" smooth="yes"/>
      <point x="668" y="888"/>
      <point x="663" y="883"/>
      <point x="663" y="871" type="curve" smooth="yes"/>
      <point x="663" y="513" type="line"/>
      <point x="630" y="248"/>
      <point x="530" y="86"/>
      <point x="397" y="86" type="curve" smooth="yes"/>
      <point x="317" y="86"/>
      <point x="277" y="138"/>
      <point x="277" y="241" type="curve" smooth="yes"/>
      <point x="277" y="783" type="line" smooth="yes"/>
      <point x="277" y="856"/>
      <point x="252" y="890"/>
      <point x="198" y="890" type="curve" smooth="yes"/>
      <point x="132" y="890"/>
      <point x="74" y="831"/>
      <point x="28" y="716" type="curve" smooth="yes"/>
      <point x="24" y="706"/>
      <point x="28" y="699"/>
      <point x="37" y="694" type="curve" smooth="yes"/>
      <point x="47" y="689"/>
      <point x="57" y="691"/>
      <point x="60" y="700" type="curve" smooth="yes"/>
      <point x="105" y="805"/>
      <point x="148" y="855"/>
      <point x="193" y="855" type="curve" smooth="yes"/>
      <point x="227" y="855"/>
      <point x="239" y="835"/>
      <point x="239" y="784" type="curve" smooth="yes"/>
      <point x="239" y="234" type="line" smooth="yes"/>
      <point x="239" y="115"/>
      <point x="294" y="51"/>
    </contour>
  </outline>
</glyph>
<glyph name="Y_locl" format="2">
  <advance width="686"/>
  <anchor x="335" y="0" name="bottom"/>
  <anchor x="369" y="838" name="top"/>
  <outline>
    <contour>
      <point x="218" y="-1" type="curve" smooth="yes"/>
      <point x="673" y="861" type="line" smooth="yes"/>
      <point x="678" y="870"/>
      <point x="680" y="879"/>
      <point x="665" y="886" type="curve" smooth="yes"/>
      <point x="655" y="891"/>
      <point x="648" y="891"/>
      <point x="640" y="878" type="curve" smooth="yes"/>
      <point x="378" y="379" type="line"/>
      <point x="70" y="879" type="line" smooth="yes"/>
      <point x="63" y="891"/>
      <point x="58" y="891"/>
      <point x="45" y="884" type="curve" smooth="yes"/>
      <point x="34" y="876"/>
      <point x="33" y="868"/>
      <point x="39" y="859" type="curve" smooth="yes"/>
      <point x="359" y="344" type="line"/>
      <point x="185" y="15" type="line" smooth="yes"/>
      <point x="180" y="6"/>
      <point x="179" y="-2"/>
      <point x="193" y="-10" type="curve" smooth="yes"/>
      <point x="203" y="-16"/>
      <point x="210" y="-15"/>
    </contour>
  </outline>
</glyph>
<glyph name="Z.cur" format="2">
  <advance width="804"/>
  <anchor x="403" y="0" name="bottom"/>
  <anchor x="403" y="438" name="center"/>
  <anchor x="403" y="838" name="top"/>
  <outline>
    <contour>
      <point x="365" y="-394" type="curve" smooth="yes"/>
      <point x="458" y="-394"/>
      <point x="523" y="-314"/>
      <point x="523" y="-114" type="curve" smooth="yes"/>
      <point x="523" y="66"/>
      <point x="479" y="219"/>
      <point x="319" y="231" type="curve"/>
      <point x="319" y="233" type="line"/>
      <point x="510" y="341"/>
      <point x="664" y="484"/>
      <point x="664" y="671" type="curve" smooth="yes"/>
      <point x="664" y="815"/>
      <point x="569" y="890"/>
      <point x="433" y="890" type="curve" smooth="yes"/>
      <point x="304" y="890"/>
      <point x="201" y="834"/>
      <point x="64" y="719" type="curve" smooth="yes"/>
      <point x="54" y="710"/>
      <point x="58" y="701"/>
      <point x="65" y="693" type="curve" smooth="yes"/>
      <point x="71" y="685"/>
      <point x="78" y="681"/>
      <point x="90" y="693" type="curve" smooth="yes"/>
      <point x="211" y="798"/>
      <point x="306" y="855"/>
      <point x="430" y="855" type="curve" smooth="yes"/>
      <point x="543" y="855"/>
      <point x="624" y="795"/>
      <point x="624" y="670" type="curve" smooth="yes"/>
      <point x="624" y="486"/>
      <point x="468" y="349"/>
      <point x="280" y="246" type="curve" smooth="yes"/>
      <point x="256" y="233"/>
      <point x="264" y="201"/>
      <point x="286" y="201" type="curve" smooth="yes"/>
      <point x="463" y="199"/>
      <point x="485" y="48"/>
      <point x="485" y="-116" type="curve" smooth="yes"/>
      <point x="485" y="-286"/>
      <point x="436" y="-359"/>
      <point x="369" y="-359" type="curve" smooth="yes"/>
      <point x="313" y="-359"/>
      <point x="296" y="-321"/>
      <point x="296" y="-266" type="curve" smooth="yes"/>
      <point x="296" y="-154"/>
      <point x="410" y="-26"/>
      <point x="713" y="185" type="curve" smooth="yes"/>
      <point x="723" y="191"/>
      <point x="723" y="198"/>
      <point x="718" y="208" type="curve" smooth="yes"/>
      <point x="711" y="219"/>
      <point x="705" y="221"/>
      <point x="695" y="214" type="curve" smooth="yes"/>
      <point x="386" y="-2"/>
      <point x="256" y="-137"/>
      <point x="256" y="-266" type="curve" smooth="yes"/>
      <point x="256" y="-340"/>
      <point x="288" y="-394"/>
    </contour>
  </outline>
</glyph>
<glyph name="Z.cur.ini" format="2">
  <advance width="725"/>
  <anchor x="403" y="0" name="bottom"/>
  <anchor x="403" y="438" name="center"/>
  <anchor x="725" y="0" name="cnct"/>
  <anchor x="403" y="838" name="top"/>
  <outline>
    <contour>
      <point x="444" y="-394" type="curve" smooth="yes"/>
      <point x="528" y="-394"/>
      <point x="584" y="-325"/>
      <point x="584" y="-164" type="curve" smooth="yes"/>
      <point x="584" y="66"/>
      <point x="535" y="219"/>
      <point x="356" y="231" type="curve"/>
      <point x="356" y="233" type="line"/>
      <point x="548" y="344"/>
      <point x="676" y="501"/>
      <point x="676" y="659" type="curve" smooth="yes"/>
      <point x="676" y="811"/>
      <point x="576" y="890"/>
      <point x="433" y="890" type="curve" smooth="yes"/>
      <point x="308" y="890"/>
      <point x="211" y="831"/>
      <point x="76" y="719" type="curve" smooth="yes"/>
      <point x="66" y="710"/>
      <point x="70" y="701"/>
      <point x="78" y="693" type="curve" smooth="yes"/>
      <point x="84" y="685"/>
      <point x="90" y="681"/>
      <point x="103" y="693" type="curve" smooth="yes"/>
      <point x="221" y="795"/>
      <point x="311" y="855"/>
      <point x="430" y="855" type="curve" smooth="yes"/>
      <point x="550" y="855"/>
      <point x="636" y="791"/>
      <point x="636" y="658" type="curve" smooth="yes"/>
      <point x="636" y="510"/>
      <point x="516" y="355"/>
      <point x="318" y="246" type="curve" smooth="yes"/>
      <point x="294" y="233"/>
      <point x="301" y="201"/>
      <point x="324" y="201" type="curve" smooth="yes"/>
      <point x="514" y="199"/>
      <point x="546" y="48"/>
      <point x="546" y="-166" type="curve" smooth="yes"/>
      <point x="546" y="-309"/>
      <point x="504" y="-359"/>
      <point x="448" y="-359" type="curve" smooth="yes"/>
      <point x="400" y="-359"/>
      <point x="375" y="-324"/>
      <point x="375" y="-275" type="curve" smooth="yes"/>
      <point x="375" y="-250"/>
      <point x="335" y="-251"/>
      <point x="335" y="-276" type="curve" smooth="yes"/>
      <point x="335" y="-344"/>
      <point x="376" y="-394"/>
    </contour>
  </outline>
</glyph>
<glyph name="a.mod.med" format="2">
  <advance width="635"/>
  <anchor x="314" y="0" name="bottom"/>
  <anchor x="635" y="0" name="cnct"/>
  <anchor x="533" y="0" name="ogonek"/>
  <anchor x="323" y="500" name="top"/>
  <outline>
    <contour>
      <point x="241" y="-17" type="curve" smooth="yes"/>
      <point x="354" y="-17"/>
      <point x="434" y="83"/>
      <point x="475" y="341" type="curve"/>
      <point x="455" y="404" type="line"/>
      <point x="425" y="124"/>
      <point x="340" y="18"/>
      <point x="246" y="18" type="curve" smooth="yes"/>
      <point x="160" y="18"/>
      <point x="128" y="115"/>
      <point x="128" y="224" type="curve" smooth="yes"/>
      <point x="128" y="393"/>
      <point x="198" y="485"/>
      <point x="318" y="485" type="curve" smooth="yes"/>
      <point x="356" y="485"/>
      <point x="406" y="475"/>
      <point x="461" y="436" type="curve"/>
      <point x="461" y="474" type="line"/>
      <point x="411" y="505"/>
      <point x="370" y="519"/>
      <point x="321" y="519" type="curve" smooth="yes"/>
      <point x="163" y="519"/>
      <point x="88" y="398"/>
      <point x="88" y="223" type="curve" smooth="yes"/>
      <point x="88" y="71"/>
      <point x="145" y="-17"/>
    </contour>
    <contour>
      <point x="533" y="-17" type="curve" smooth="yes"/>
      <point x="553" y="-17"/>
      <point x="553" y="18"/>
      <point x="533" y="18" type="curve" smooth="yes"/>
      <point x="501" y="18"/>
      <point x="491" y="40"/>
      <point x="491" y="84" type="curve" smooth="yes"/>
      <point x="491" y="500" type="line"/>
      <point x="491" y="511"/>
      <point x="486" y="515"/>
      <point x="474" y="515" type="curve" smooth="yes"/>
      <point x="461" y="515"/>
      <point x="455" y="511"/>
      <point x="455" y="500" type="curve" smooth="yes"/>
      <point x="455" y="83" type="line" smooth="yes"/>
      <point x="455" y="11"/>
      <point x="479" y="-17"/>
    </contour>
  </outline>
</glyph>
<glyph name="ae.ful" format="2">
  <advance width="775"/>
  <anchor x="437" y="500" name="top"/>
  <outline>
    <contour>
      <point x="203" y="-17" type="curve" smooth="yes"/>
      <point x="303" y="-17"/>
      <point x="363" y="76"/>
      <point x="423" y="213" type="curve"/>
      <point x="407" y="251" type="line"/>
      <point x="333" y="96"/>
      <point x="287" y="18"/>
      <point x="208" y="18" type="curve" smooth="yes"/>
      <point x="147" y="18"/>
      <point x="115" y="100"/>
      <point x="115" y="218" type="curve" smooth="yes"/>
      <point x="115" y="371"/>
      <point x="182" y="485"/>
      <point x="315" y="485" type="curve" smooth="yes"/>
      <point x="371" y="485"/>
      <point x="423" y="470"/>
      <point x="460" y="445" type="curve"/>
      <point x="480" y="475" type="line"/>
      <point x="420" y="506"/>
      <point x="371" y="519"/>
      <point x="315" y="519" type="curve" smooth="yes"/>
      <point x="150" y="519"/>
      <point x="75" y="376"/>
      <point x="75" y="214" type="curve" smooth="yes"/>
      <point x="75" y="70"/>
      <point x="126" y="-17"/>
    </contour>
    <contour>
      <point x="626" y="-19" type="curve" smooth="yes"/>
      <point x="722" y="-19"/>
      <point x="803" y="65"/>
      <point x="836" y="116" type="curve" smooth="yes"/>
      <point x="842" y="125"/>
      <point x="836" y="133"/>
      <point x="830" y="138" type="curve" smooth="yes"/>
      <point x="822" y="143"/>
      <point x="815" y="145"/>
      <point x="808" y="138" type="curve" smooth="yes"/>
      <point x="778" y="95"/>
      <point x="716" y="15"/>
      <point x="627" y="15" type="curve" smooth="yes"/>
      <point x="498" y="15"/>
      <point x="436" y="170"/>
      <point x="436" y="293" type="curve" smooth="yes"/>
      <point x="436" y="424"/>
      <point x="508" y="485"/>
      <point x="560" y="485" type="curve" smooth="yes"/>
      <point x="602" y="485"/>
      <point x="627" y="456"/>
      <point x="627" y="409" type="curve" smooth="yes"/>
      <point x="627" y="310"/>
      <point x="507" y="243"/>
      <point x="421" y="245" type="curve"/>
      <point x="437" y="215" type="line"/>
      <point x="540" y="221"/>
      <point x="667" y="301"/>
      <point x="667" y="413" type="curve" smooth="yes"/>
      <point x="667" y="479"/>
      <point x="628" y="519"/>
      <point x="563" y="519" type="curve" smooth="yes"/>
      <point x="461" y="519"/>
      <point x="397" y="411"/>
      <point x="397" y="289" type="curve" smooth="yes"/>
      <point x="397" y="180"/>
      <point x="455" y="-19"/>
    </contour>
  </outline>
</glyph>
<glyph name="ae.ful.ini" format="2">
  <advance width="775"/>
  <anchor x="775" y="0" name="cnct"/>
  <anchor x="437" y="500" name="top"/>
  <outline>
    <contour>
      <point x="203" y="-17" type="curve" smooth="yes"/>
      <point x="303" y="-17"/>
      <point x="363" y="76"/>
      <point x="423" y="213" type="curve"/>
      <point x="407" y="251" type="line"/>
      <point x="333" y="96"/>
      <point x="287" y="18"/>
      <point x="208" y="18" type="curve" smooth="yes"/>
      <point x="147" y="18"/>
      <point x="115" y="100"/>
      <point x="115" y="218" type="curve" smooth="yes"/>
      <point x="115" y="371"/>
      <point x="182" y="485"/>
      <point x="315" y="485" type="curve" smooth="yes"/>
      <point x="371" y="485"/>
      <point x="423" y="470"/>
      <point x="460" y="445" type="curve"/>
      <point x="480" y="475" type="line"/>
      <point x="420" y="506"/>
      <point x="371" y="519"/>
      <point x="315" y="519" type="curve" smooth="yes"/>
      <point x="150" y="519"/>
      <point x="75" y="376"/>
      <point x="75" y="214" type="curve" smooth="yes"/>
      <point x="75" y="70"/>
      <point x="126" y="-17"/>
    </contour>
    <contour>
      <point x="563" y="519" type="curve" smooth="yes"/>
      <point x="538" y="519"/>
      <point x="535" y="485"/>
      <point x="560" y="485" type="curve" smooth="yes"/>
      <point x="602" y="485"/>
      <point x="627" y="463"/>
      <point x="627" y="414" type="curve" smooth="yes"/>
      <point x="627" y="313"/>
      <point x="507" y="243"/>
      <point x="421" y="245" type="curve"/>
      <point x="437" y="215" type="line"/>
      <point x="540" y="221"/>
      <point x="667" y="304"/>
      <point x="667" y="418" type="curve" smooth="yes"/>
      <point x="667" y="481"/>
      <point x="627" y="519"/>
    </contour>
  </outline>
</glyph>
<glyph name="ae.mod.ini" format="2">
  <advance width="876"/>
  <anchor x="876" y="0" name="cnct"/>
  <anchor x="495" y="500" name="top"/>
  <outline>
    <contour>
      <point x="826" y="396" type="curve" smooth="yes"/>
      <point x="826" y="473"/>
      <point x="770" y="519"/>
      <point x="670" y="519" type="curve" smooth="yes"/>
      <point x="605" y="519"/>
      <point x="555" y="499"/>
      <point x="498" y="463" type="curve"/>
      <point x="517" y="430" type="line"/>
      <point x="563" y="468"/>
      <point x="617" y="485"/>
      <point x="666" y="485" type="curve" smooth="yes"/>
      <point x="740" y="485"/>
      <point x="786" y="456"/>
      <point x="786" y="396" type="curve" smooth="yes"/>
      <point x="786" y="288"/>
      <point x="588" y="231"/>
      <point x="476" y="206" type="curve"/>
      <point x="476" y="173" type="line"/>
      <point x="620" y="200"/>
      <point x="826" y="270"/>
    </contour>
    <contour>
      <point x="667" y="-17" type="curve" smooth="yes"/>
      <point x="690" y="-17"/>
      <point x="690" y="18"/>
      <point x="667" y="18" type="curve" smooth="yes"/>
      <point x="578" y="18"/>
      <point x="481" y="85"/>
      <point x="481" y="238" type="curve" smooth="yes"/>
      <point x="481" y="315"/>
      <point x="502" y="391"/>
      <point x="537" y="466" type="curve"/>
      <point x="470" y="496"/>
      <point x="408" y="519"/>
      <point x="327" y="519" type="curve" smooth="yes"/>
      <point x="150" y="519"/>
      <point x="75" y="376"/>
      <point x="75" y="214" type="curve" smooth="yes"/>
      <point x="75" y="70"/>
      <point x="126" y="-17"/>
      <point x="205" y="-17" type="curve" smooth="yes"/>
      <point x="303" y="-17"/>
      <point x="378" y="66"/>
      <point x="510" y="423" type="curve"/>
      <point x="485" y="438" type="line"/>
      <point x="352" y="96"/>
      <point x="287" y="18"/>
      <point x="208" y="18" type="curve" smooth="yes"/>
      <point x="147" y="18"/>
      <point x="115" y="100"/>
      <point x="115" y="218" type="curve" smooth="yes"/>
      <point x="115" y="371"/>
      <point x="182" y="485"/>
      <point x="323" y="485" type="curve" smooth="yes"/>
      <point x="392" y="485"/>
      <point x="443" y="466"/>
      <point x="505" y="439" type="curve"/>
      <point x="495" y="461" type="line"/>
      <point x="471" y="406"/>
      <point x="445" y="330"/>
      <point x="445" y="234" type="curve" smooth="yes"/>
      <point x="445" y="96"/>
      <point x="523" y="-17"/>
    </contour>
  </outline>
</glyph>
<glyph name="ae.mod.med" format="2">
  <advance width="889"/>
  <anchor x="889" y="0" name="cnct"/>
  <anchor x="508" y="500" name="top"/>
  <outline>
    <contour>
      <point x="839" y="396" type="curve" smooth="yes"/>
      <point x="839" y="473"/>
      <point x="783" y="519"/>
      <point x="683" y="519" type="curve" smooth="yes"/>
      <point x="618" y="519"/>
      <point x="568" y="499"/>
      <point x="511" y="463" type="curve"/>
      <point x="530" y="430" type="line"/>
      <point x="576" y="468"/>
      <point x="630" y="485"/>
      <point x="679" y="485" type="curve" smooth="yes"/>
      <point x="753" y="485"/>
      <point x="799" y="456"/>
      <point x="799" y="396" type="curve" smooth="yes"/>
      <point x="799" y="288"/>
      <point x="601" y="231"/>
      <point x="489" y="206" type="curve"/>
      <point x="489" y="173" type="line"/>
      <point x="633" y="200"/>
      <point x="839" y="270"/>
    </contour>
    <contour>
      <point x="680" y="-17" type="curve" smooth="yes"/>
      <point x="703" y="-17"/>
      <point x="703" y="18"/>
      <point x="680" y="18" type="curve" smooth="yes"/>
      <point x="591" y="18"/>
      <point x="494" y="85"/>
      <point x="494" y="238" type="curve" smooth="yes"/>
      <point x="494" y="315"/>
      <point x="515" y="391"/>
      <point x="550" y="466" type="curve"/>
      <point x="483" y="496"/>
      <point x="421" y="519"/>
      <point x="340" y="519" type="curve" smooth="yes"/>
      <point x="163" y="519"/>
      <point x="88" y="376"/>
      <point x="88" y="214" type="curve" smooth="yes"/>
      <point x="88" y="70"/>
      <point x="139" y="-17"/>
      <point x="218" y="-17" type="curve" smooth="yes"/>
      <point x="316" y="-17"/>
      <point x="391" y="66"/>
      <point x="523" y="423" type="curve"/>
      <point x="498" y="438" type="line"/>
      <point x="365" y="96"/>
      <point x="300" y="18"/>
      <point x="221" y="18" type="curve" smooth="yes"/>
      <point x="160" y="18"/>
      <point x="128" y="100"/>
      <point x="128" y="218" type="curve" smooth="yes"/>
      <point x="128" y="371"/>
      <point x="195" y="485"/>
      <point x="336" y="485" type="curve" smooth="yes"/>
      <point x="405" y="485"/>
      <point x="456" y="466"/>
      <point x="518" y="439" type="curve"/>
      <point x="508" y="461" type="line"/>
      <point x="484" y="406"/>
      <point x="458" y="330"/>
      <point x="458" y="234" type="curve" smooth="yes"/>
      <point x="458" y="96"/>
      <point x="536" y="-17"/>
    </contour>
  </outline>
</glyph>
<glyph name="b.jmc_dk.fin" format="2">
  <advance width="623"/>
  <anchor x="332" y="0" name="bottom"/>
  <anchor x="355" y="250" name="center"/>
  <anchor x="430" y="500" name="top"/>
  <outline>
    <contour>
      <point x="161" y="-15" type="curve" smooth="yes"/>
      <point x="174" y="-15"/>
      <point x="180" y="-11"/>
      <point x="180" y="0" type="curve" smooth="yes"/>
      <point x="180" y="645" type="line" smooth="yes"/>
      <point x="180" y="793"/>
      <point x="208" y="859"/>
      <point x="258" y="859" type="curve" smooth="yes"/>
      <point x="298" y="859"/>
      <point x="303" y="821"/>
      <point x="303" y="789" type="curve" smooth="yes"/>
      <point x="303" y="723"/>
      <point x="275" y="656"/>
      <point x="168" y="416" type="curve"/>
      <point x="169" y="354" type="line"/>
      <point x="293" y="609"/>
      <point x="341" y="710"/>
      <point x="341" y="789" type="curve" smooth="yes"/>
      <point x="341" y="835"/>
      <point x="329" y="894"/>
      <point x="258" y="894" type="curve" smooth="yes"/>
      <point x="183" y="894"/>
      <point x="144" y="825"/>
      <point x="144" y="669" type="curve" smooth="yes"/>
      <point x="144" y="0" type="line" smooth="yes"/>
      <point x="144" y="-11"/>
      <point x="149" y="-15"/>
    </contour>
    <contour>
      <point x="168" y="36" type="curve" smooth="yes"/>
      <point x="228" y="-4"/>
      <point x="268" y="-17"/>
      <point x="324" y="-17" type="curve" smooth="yes"/>
      <point x="463" y="-17"/>
      <point x="548" y="95"/>
      <point x="548" y="279" type="curve" smooth="yes"/>
      <point x="548" y="430"/>
      <point x="490" y="519"/>
      <point x="394" y="519" type="curve" smooth="yes"/>
      <point x="308" y="519"/>
      <point x="193" y="448"/>
      <point x="151" y="98" type="curve"/>
      <point x="180" y="98" type="line"/>
      <point x="210" y="378"/>
      <point x="305" y="484"/>
      <point x="389" y="484" type="curve" smooth="yes"/>
      <point x="475" y="484"/>
      <point x="508" y="386"/>
      <point x="508" y="278" type="curve" smooth="yes"/>
      <point x="508" y="115"/>
      <point x="440" y="16"/>
      <point x="328" y="16" type="curve" smooth="yes"/>
      <point x="280" y="16"/>
      <point x="233" y="26"/>
      <point x="180" y="65" type="curve" smooth="yes"/>
      <point x="166" y="75"/>
      <point x="148" y="50"/>
    </contour>
  </outline>
</glyph>
<glyph name="b.jmc_dk" format="2">
  <advance width="664"/>
  <anchor x="285" y="0" name="bottom"/>
  <anchor x="373" y="250" name="center"/>
  <anchor x="450" y="500" name="top"/>
  <outline>
    <contour>
      <point x="-102" y="-17" type="curve" smooth="yes"/>
      <point x="-5" y="-17"/>
      <point x="51" y="111"/>
      <point x="158" y="343" type="curve" smooth="yes"/>
      <point x="166" y="361"/>
      <point x="160" y="421"/>
      <point x="149" y="396" type="curve" smooth="yes"/>
      <point x="21" y="114"/>
      <point x="-27" y="18"/>
      <point x="-102" y="18" type="curve" smooth="yes"/>
      <point x="-125" y="18"/>
      <point x="-125" y="-17"/>
    </contour>
    <component base="b.jmc_dk.fin"/>
  </outline>
</glyph>
<glyph name="b.jmc_dk.ini" format="2">
  <advance width="623"/>
  <anchor x="623" y="0" name="cnct"/>
  <anchor x="332" y="0" name="bottom"/>
  <anchor x="355" y="250" name="center"/>
  <anchor x="430" y="500" name="top"/>
  <outline>
    <contour>
      <point x="517" y="-17" type="curve" smooth="yes"/>
      <point x="542" y="-17"/>
      <point x="542" y="18"/>
      <point x="517" y="18" type="curve" smooth="yes"/>
      <point x="485" y="18"/>
      <point x="455" y="30"/>
      <point x="390" y="5" type="curve"/>
      <point x="369" y="-12" type="line"/>
      <point x="422" y="4"/>
      <point x="459" y="-17"/>
    </contour>
    <component base="b.jmc_dk"/>
  </outline>
</glyph>
<glyph name="b.jmc_dk.med" format="2">
  <advance width="664"/>
  <anchor x="664" y="0" name="cnct"/>
  <anchor x="285" y="0" name="bottom"/>
  <anchor x="373" y="250" name="center"/>
  <anchor x="450" y="500" name="top"/>
  <outline>
    <contour>
      <point x="558" y="-17" type="curve" smooth="yes"/>
      <point x="583" y="-17"/>
      <point x="583" y="18"/>
      <point x="558" y="18" type="curve" smooth="yes"/>
      <point x="476" y="18"/>
      <point x="423" y="48"/>
      <point x="305" y="13" type="curve"/>
      <point x="284" y="-5" type="line"/>
      <point x="386" y="21"/>
      <point x="446" y="-17"/>
    </contour>
    <component base="b.jmc_dk.fin"/>
  </outline>
</glyph>
<glyph name="b.lop.ini" format="2">
  <advance width="614"/>
  <anchor x="614" y="0" name="cnct"/>
  <anchor x="341" y="0" name="bottom"/>
  <anchor x="341" y="250" name="center"/>
  <anchor x="341" y="500" name="top"/>
  <outline>
    <contour>
      <point x="-102" y="-17" type="curve" smooth="yes"/>
      <point x="63" y="-17"/>
      <point x="350" y="568"/>
      <point x="350" y="779" type="curve" smooth="yes"/>
      <point x="350" y="804"/>
      <point x="311" y="804"/>
      <point x="311" y="779" type="curve" smooth="yes"/>
      <point x="311" y="588"/>
      <point x="40" y="18"/>
      <point x="-102" y="18" type="curve" smooth="yes"/>
      <point x="-125" y="18"/>
      <point x="-125" y="-17"/>
    </contour>
    <component base="b.lop.med"/>
  </outline>
</glyph>
<glyph name="brevecomb_hookabovecomb.case" format="2">
  <anchor x="0" y="838" name="_top"/>
  <anchor x="0" y="1293" name="top"/>
  <outline>
    <contour>
      <point x="0" y="945" type="curve" smooth="yes"/>
      <point x="94" y="945"/>
      <point x="160" y="1000"/>
      <point x="163" y="1108" type="curve" smooth="yes"/>
      <point x="163" y="1119"/>
      <point x="158" y="1124"/>
      <point x="145" y="1124" type="curve" smooth="yes"/>
      <point x="133" y="1124"/>
      <point x="128" y="1119"/>
      <point x="128" y="1108" type="curve" smooth="yes"/>
      <point x="125" y="1024"/>
      <point x="75" y="985"/>
      <point x="0" y="985" type="curve" smooth="yes"/>
      <point x="-75" y="985"/>
      <point x="-125" y="1024"/>
      <point x="-127" y="1108" type="curve" smooth="yes"/>
      <point x="-127" y="1119"/>
      <point x="-132" y="1124"/>
      <point x="-145" y="1124" type="curve" smooth="yes"/>
      <point x="-157" y="1124"/>
      <point x="-162" y="1119"/>
      <point x="-162" y="1108" type="curve" smooth="yes"/>
      <point x="-160" y="1000"/>
      <point x="-94" y="945"/>
    </contour>
    <contour>
      <point x="8" y="1313" type="curve" smooth="yes"/>
      <point x="-31" y="1313"/>
      <point x="-59" y="1304"/>
      <point x="-82" y="1286" type="curve" smooth="yes"/>
      <point x="-90" y="1279"/>
      <point x="-91" y="1271"/>
      <point x="-86" y="1262" type="curve" smooth="yes"/>
      <point x="-82" y="1253"/>
      <point x="-74" y="1251"/>
      <point x="-65" y="1256" type="curve"/>
      <point x="-44" y="1271"/>
      <point x="-22" y="1278"/>
      <point x="4" y="1278" type="curve" smooth="yes"/>
      <point x="34" y="1278"/>
      <point x="61" y="1263"/>
      <point x="61" y="1241" type="curve" smooth="yes"/>
      <point x="61" y="1221"/>
      <point x="46" y="1207"/>
      <point x="16" y="1188" type="curve" smooth="yes"/>
      <point x="-16" y="1168"/>
      <point x="-27" y="1143"/>
      <point x="-12" y="1109" type="curve" smooth="yes"/>
      <point x="-5" y="1093" type="line" smooth="yes"/>
      <point x="1" y="1078"/>
      <point x="35" y="1091"/>
      <point x="26" y="1109" type="curve" smooth="yes"/>
      <point x="24" y="1114" type="line" smooth="yes"/>
      <point x="11" y="1139"/>
      <point x="18" y="1147"/>
      <point x="48" y="1167" type="curve" smooth="yes"/>
      <point x="85" y="1192"/>
      <point x="101" y="1211"/>
      <point x="101" y="1241" type="curve" smooth="yes"/>
      <point x="101" y="1282"/>
      <point x="64" y="1313"/>
    </contour>
  </outline>
</glyph>
<glyph name="c.mod.ini" format="2">
  <advance width="522"/>
  <anchor x="262" y="0" name="bottom"/>
  <anchor x="522" y="0" name="cnct"/>
  <anchor x="275" y="500" name="top"/>
  <outline>
    <contour>
      <point x="280" y="-17" type="curve" smooth="yes"/>
      <point x="305" y="-17"/>
      <point x="310" y="16"/>
      <point x="285" y="16" type="curve" smooth="yes"/>
      <point x="167" y="16"/>
      <point x="113" y="106"/>
      <point x="113" y="236" type="curve" smooth="yes"/>
      <point x="113" y="390"/>
      <point x="190" y="485"/>
      <point x="295" y="485" type="curve" smooth="yes"/>
      <point x="355" y="485"/>
      <point x="387" y="464"/>
      <point x="427" y="424" type="curve" smooth="yes"/>
      <point x="432" y="419"/>
      <point x="441" y="415"/>
      <point x="450" y="424" type="curve" smooth="yes"/>
      <point x="461" y="435"/>
      <point x="458" y="440"/>
      <point x="455" y="446" type="curve"/>
      <point x="418" y="490"/>
      <point x="360" y="519"/>
      <point x="298" y="519" type="curve" smooth="yes"/>
      <point x="158" y="519"/>
      <point x="75" y="395"/>
      <point x="75" y="233" type="curve" smooth="yes"/>
      <point x="75" y="71"/>
      <point x="152" y="-17"/>
    </contour>
  </outline>
</glyph>
<glyph name="c.mod.med" format="2">
  <advance width="535"/>
  <anchor x="275" y="0" name="bottom"/>
  <anchor x="535" y="0" name="cnct"/>
  <anchor x="288" y="500" name="top"/>
  <outline>
    <contour>
      <point x="293" y="-17" type="curve" smooth="yes"/>
      <point x="318" y="-17"/>
      <point x="323" y="16"/>
      <point x="298" y="16" type="curve" smooth="yes"/>
      <point x="180" y="16"/>
      <point x="126" y="106"/>
      <point x="126" y="236" type="curve" smooth="yes"/>
      <point x="126" y="390"/>
      <point x="203" y="485"/>
      <point x="308" y="485" type="curve" smooth="yes"/>
      <point x="368" y="485"/>
      <point x="400" y="464"/>
      <point x="440" y="424" type="curve" smooth="yes"/>
      <point x="445" y="419"/>
      <point x="454" y="415"/>
      <point x="463" y="424" type="curve" smooth="yes"/>
      <point x="474" y="435"/>
      <point x="471" y="440"/>
      <point x="468" y="446" type="curve"/>
      <point x="431" y="490"/>
      <point x="373" y="519"/>
      <point x="311" y="519" type="curve" smooth="yes"/>
      <point x="171" y="519"/>
      <point x="88" y="395"/>
      <point x="88" y="233" type="curve" smooth="yes"/>
      <point x="88" y="71"/>
      <point x="165" y="-17"/>
    </contour>
  </outline>
</glyph>
<glyph name="circumflexcomb_gravecomb" format="2">
  <anchor x="0" y="500" name="_top"/>
  <anchor x="0" y="818" name="top"/>
  <outline>
    <contour>
      <point x="-146" y="630" type="curve" smooth="yes"/>
      <point x="-141" y="630"/>
      <point x="-137" y="633"/>
      <point x="-134" y="636" type="curve" smooth="yes"/>
      <point x="0" y="784" type="line"/>
      <point x="134" y="636" type="line" smooth="yes"/>
      <point x="138" y="633"/>
      <point x="141" y="630"/>
      <point x="146" y="630" type="curve" smooth="yes"/>
      <point x="155" y="630"/>
      <point x="164" y="638"/>
      <point x="164" y="648" type="curve" smooth="yes"/>
      <point x="164" y="651"/>
      <point x="163" y="655"/>
      <point x="159" y="659" type="curve" smooth="yes"/>
      <point x="16" y="828" type="line" smooth="yes"/>
      <point x="10" y="835"/>
      <point x="5" y="836"/>
      <point x="0" y="836" type="curve" smooth="yes"/>
      <point x="-5" y="836"/>
      <point x="-10" y="835"/>
      <point x="-16" y="828" type="curve" smooth="yes"/>
      <point x="-159" y="659" type="line" smooth="yes"/>
      <point x="-162" y="655"/>
      <point x="-164" y="651"/>
      <point x="-164" y="648" type="curve" smooth="yes"/>
      <point x="-164" y="638"/>
      <point x="-155" y="630"/>
    </contour>
    <contour>
      <point x="197" y="780" type="curve" smooth="yes"/>
      <point x="204" y="780"/>
      <point x="216" y="790"/>
      <point x="216" y="798" type="curve" smooth="yes"/>
      <point x="216" y="800"/>
      <point x="214" y="804"/>
      <point x="212" y="808" type="curve" smooth="yes"/>
      <point x="87" y="979" type="line" smooth="yes"/>
      <point x="83" y="984"/>
      <point x="79" y="986"/>
      <point x="74" y="986" type="curve" smooth="yes"/>
      <point x="64" y="986"/>
      <point x="48" y="974"/>
      <point x="48" y="964" type="curve" smooth="yes"/>
      <point x="48" y="960"/>
      <point x="49" y="958"/>
      <point x="52" y="954" type="curve" smooth="yes"/>
      <point x="186" y="786" type="line" smooth="yes"/>
      <point x="189" y="781"/>
      <point x="193" y="780"/>
    </contour>
  </outline>
</glyph>
<glyph name="cnct.cnt_C_n" format="2">
  <anchor x="0" y="0" name="_cnct"/>
  <outline>
    <contour>
      <point x="-342" y="-17" type="curve" smooth="yes"/>
      <point x="-82" y="-17"/>
      <point x="20" y="190"/>
      <point x="90" y="338" type="curve" smooth="yes"/>
      <point x="133" y="428"/>
      <point x="163" y="484"/>
      <point x="204" y="484" type="curve" smooth="yes"/>
      <point x="224" y="484"/>
      <point x="236" y="519"/>
      <point x="209" y="519" type="curve" smooth="yes"/>
      <point x="143" y="519"/>
      <point x="103" y="440"/>
      <point x="56" y="344" type="curve" smooth="yes"/>
      <point x="-15" y="199"/>
      <point x="-108" y="16"/>
      <point x="-337" y="16" type="curve" smooth="yes"/>
      <point x="-357" y="16"/>
      <point x="-362" y="-17"/>
    </contour>
  </outline>
</glyph>
<glyph name="cnct.cnt_C_z" format="2">
  <anchor x="0" y="0" name="_cnct"/>
  <outline>
    <contour>
      <point x="-342" y="-17" type="curve" smooth="yes"/>
      <point x="-113" y="-17"/>
      <point x="0" y="153"/>
      <point x="93" y="296" type="curve" smooth="yes"/>
      <point x="159" y="397"/>
      <point x="218" y="484"/>
      <point x="301" y="484" type="curve" smooth="yes"/>
      <point x="321" y="484"/>
      <point x="334" y="519"/>
      <point x="306" y="519" type="curve" smooth="yes"/>
      <point x="204" y="519"/>
      <point x="136" y="420"/>
      <point x="63" y="310" type="curve" smooth="yes"/>
      <point x="-29" y="171"/>
      <point x="-134" y="16"/>
      <point x="-337" y="16" type="curve" smooth="yes"/>
      <point x="-357" y="16"/>
      <point x="-362" y="-17"/>
    </contour>
  </outline>
</glyph>
<glyph name="cnct.cnt_G_z" format="2">
  <anchor x="0" y="0" name="_cnct"/>
  <outline>
    <contour>
      <point x="-390" y="-276" type="curve" smooth="yes"/>
      <point x="-390" y="-301"/>
      <point x="-350" y="-300"/>
      <point x="-350" y="-275" type="curve" smooth="yes"/>
      <point x="-350" y="-201"/>
      <point x="-282" y="-142"/>
      <point x="-107" y="-10" type="curve" smooth="yes"/>
      <point x="190" y="216"/>
      <point x="169" y="484"/>
      <point x="344" y="484" type="curve" smooth="yes"/>
      <point x="364" y="484"/>
      <point x="376" y="519"/>
      <point x="349" y="519" type="curve" smooth="yes"/>
      <point x="131" y="519"/>
      <point x="171" y="241"/>
      <point x="-121" y="24" type="curve" smooth="yes"/>
      <point x="-316" y="-120"/>
      <point x="-390" y="-189"/>
    </contour>
  </outline>
</glyph>
<glyph name="cnct.cnt_e_z" format="2">
  <anchor x="0" y="0" name="_cnct"/>
  <outline>
    <contour>
      <point x="-181" y="-17" type="curve" smooth="yes"/>
      <point x="-50" y="-17"/>
      <point x="15" y="116"/>
      <point x="79" y="249" type="curve" smooth="yes"/>
      <point x="138" y="371"/>
      <point x="193" y="484"/>
      <point x="295" y="484" type="curve" smooth="yes"/>
      <point x="321" y="484"/>
      <point x="325" y="519"/>
      <point x="300" y="519" type="curve" smooth="yes"/>
      <point x="169" y="519"/>
      <point x="106" y="389"/>
      <point x="44" y="258" type="curve" smooth="yes"/>
      <point x="-15" y="134"/>
      <point x="-72" y="18"/>
      <point x="-181" y="18" type="curve" smooth="yes"/>
      <point x="-279" y="18"/>
      <point x="-339" y="128"/>
      <point x="-339" y="280" type="curve" smooth="yes"/>
      <point x="-339" y="424"/>
      <point x="-270" y="485"/>
      <point x="-215" y="485" type="curve" smooth="yes"/>
      <point x="-190" y="485"/>
      <point x="-186" y="519"/>
      <point x="-211" y="519" type="curve" smooth="yes"/>
      <point x="-314" y="519"/>
      <point x="-377" y="411"/>
      <point x="-377" y="276" type="curve" smooth="yes"/>
      <point x="-377" y="106"/>
      <point x="-300" y="-17"/>
    </contour>
  </outline>
</glyph>
<glyph name="cnct.cnt_g_z" format="2">
  <anchor x="0" y="0" name="_cnct"/>
  <outline>
    <contour>
      <point x="-147" y="-21" type="curve" smooth="yes"/>
      <point x="129" y="169"/>
      <point x="134" y="484"/>
      <point x="281" y="484" type="curve" smooth="yes"/>
      <point x="301" y="484"/>
      <point x="314" y="519"/>
      <point x="286" y="519" type="curve" smooth="yes"/>
      <point x="96" y="519"/>
      <point x="128" y="216"/>
      <point x="-164" y="6" type="curve" smooth="yes"/>
      <point x="-189" y="-11"/>
      <point x="-160" y="-30"/>
    </contour>
  </outline>
</glyph>
<glyph name="cnct.cnt_r_t.lop_de" format="2">
  <anchor x="0" y="0" name="_cnct"/>
  <outline>
    <contour>
      <point x="70" y="258" type="curve" smooth="yes"/>
      <point x="268" y="258"/>
      <point x="333" y="768"/>
      <point x="333" y="873" type="curve" smooth="yes"/>
      <point x="333" y="890"/>
      <point x="305" y="889"/>
      <point x="305" y="873" type="curve" smooth="yes"/>
      <point x="305" y="781"/>
      <point x="235" y="289"/>
      <point x="73" y="289" type="curve" smooth="yes"/>
      <point x="-14" y="289"/>
      <point x="-45" y="433"/>
      <point x="-50" y="489" type="curve" smooth="yes"/>
      <point x="-52" y="514"/>
      <point x="-54" y="519"/>
      <point x="-82" y="519" type="curve"/>
      <point x="-82" y="485" type="line"/>
      <point x="-67" y="353"/>
      <point x="-19" y="258"/>
    </contour>
  </outline>
</glyph>
<glyph name="cnct.cnt_r_z" format="2">
  <anchor x="0" y="0" name="_cnct"/>
  <outline>
    <contour>
      <point x="9" y="343" type="curve" smooth="yes"/>
      <point x="99" y="343"/>
      <point x="153" y="484"/>
      <point x="259" y="484" type="curve" smooth="yes"/>
      <point x="284" y="484"/>
      <point x="288" y="519"/>
      <point x="263" y="519" type="curve" smooth="yes"/>
      <point x="141" y="519"/>
      <point x="78" y="374"/>
      <point x="10" y="374" type="curve" smooth="yes"/>
      <point x="-19" y="374"/>
      <point x="-44" y="404"/>
      <point x="-50" y="504" type="curve" smooth="yes"/>
      <point x="-51" y="514"/>
      <point x="-60" y="519"/>
      <point x="-80" y="519" type="curve"/>
      <point x="-81" y="485" type="line"/>
      <point x="-69" y="375"/>
      <point x="-40" y="343"/>
    </contour>
  </outline>
</glyph>
